G04 #@! TF.GenerationSoftware,KiCad,Pcbnew,7.0.1*
G04 #@! TF.CreationDate,2023-12-15T21:30:21-08:00*
G04 #@! TF.ProjectId,High current LED switch with ballast,48696768-2063-4757-9272-656e74204c45,rev?*
G04 #@! TF.SameCoordinates,Original*
G04 #@! TF.FileFunction,Legend,Top*
G04 #@! TF.FilePolarity,Positive*
%FSLAX46Y46*%
G04 Gerber Fmt 4.6, Leading zero omitted, Abs format (unit mm)*
G04 Created by KiCad (PCBNEW 7.0.1) date 2023-12-15 21:30:21*
%MOMM*%
%LPD*%
G01*
G04 APERTURE LIST*
%ADD10C,0.300000*%
%ADD11C,0.150000*%
%ADD12C,0.120000*%
%ADD13C,0.152400*%
%ADD14C,0.100000*%
%ADD15C,0.285372*%
%ADD16C,0.127000*%
%ADD17C,0.010000*%
G04 APERTURE END LIST*
D10*
X-31840714Y44410000D02*
X-29555000Y44410000D01*
X-30697857Y43267142D02*
X-30697857Y45552857D01*
X-31840714Y37760000D02*
X-29555000Y37760000D01*
X-30697857Y36617142D02*
X-30697857Y38902857D01*
X-26049047Y65952D02*
X-26049047Y2565952D01*
X-26049047Y1375476D02*
X-24620476Y1375476D01*
X-24620476Y65952D02*
X-24620476Y2565952D01*
X-23429999Y65952D02*
X-23429999Y1732619D01*
X-23429999Y2565952D02*
X-23549047Y2446904D01*
X-23549047Y2446904D02*
X-23429999Y2327857D01*
X-23429999Y2327857D02*
X-23310952Y2446904D01*
X-23310952Y2446904D02*
X-23429999Y2565952D01*
X-23429999Y2565952D02*
X-23429999Y2327857D01*
X-21168095Y1732619D02*
X-21168095Y-291190D01*
X-21168095Y-291190D02*
X-21287142Y-529285D01*
X-21287142Y-529285D02*
X-21406190Y-648333D01*
X-21406190Y-648333D02*
X-21644285Y-767380D01*
X-21644285Y-767380D02*
X-22001428Y-767380D01*
X-22001428Y-767380D02*
X-22239523Y-648333D01*
X-21168095Y185000D02*
X-21406190Y65952D01*
X-21406190Y65952D02*
X-21882381Y65952D01*
X-21882381Y65952D02*
X-22120476Y185000D01*
X-22120476Y185000D02*
X-22239523Y304047D01*
X-22239523Y304047D02*
X-22358571Y542142D01*
X-22358571Y542142D02*
X-22358571Y1256428D01*
X-22358571Y1256428D02*
X-22239523Y1494523D01*
X-22239523Y1494523D02*
X-22120476Y1613571D01*
X-22120476Y1613571D02*
X-21882381Y1732619D01*
X-21882381Y1732619D02*
X-21406190Y1732619D01*
X-21406190Y1732619D02*
X-21168095Y1613571D01*
X-19977618Y65952D02*
X-19977618Y2565952D01*
X-18906190Y65952D02*
X-18906190Y1375476D01*
X-18906190Y1375476D02*
X-19025237Y1613571D01*
X-19025237Y1613571D02*
X-19263333Y1732619D01*
X-19263333Y1732619D02*
X-19620476Y1732619D01*
X-19620476Y1732619D02*
X-19858571Y1613571D01*
X-19858571Y1613571D02*
X-19977618Y1494523D01*
X-14382380Y304047D02*
X-14501428Y185000D01*
X-14501428Y185000D02*
X-14858570Y65952D01*
X-14858570Y65952D02*
X-15096666Y65952D01*
X-15096666Y65952D02*
X-15453809Y185000D01*
X-15453809Y185000D02*
X-15691904Y423095D01*
X-15691904Y423095D02*
X-15810951Y661190D01*
X-15810951Y661190D02*
X-15929999Y1137380D01*
X-15929999Y1137380D02*
X-15929999Y1494523D01*
X-15929999Y1494523D02*
X-15810951Y1970714D01*
X-15810951Y1970714D02*
X-15691904Y2208809D01*
X-15691904Y2208809D02*
X-15453809Y2446904D01*
X-15453809Y2446904D02*
X-15096666Y2565952D01*
X-15096666Y2565952D02*
X-14858570Y2565952D01*
X-14858570Y2565952D02*
X-14501428Y2446904D01*
X-14501428Y2446904D02*
X-14382380Y2327857D01*
X-12239523Y1732619D02*
X-12239523Y65952D01*
X-13310951Y1732619D02*
X-13310951Y423095D01*
X-13310951Y423095D02*
X-13191904Y185000D01*
X-13191904Y185000D02*
X-12953809Y65952D01*
X-12953809Y65952D02*
X-12596666Y65952D01*
X-12596666Y65952D02*
X-12358570Y185000D01*
X-12358570Y185000D02*
X-12239523Y304047D01*
X-11049046Y65952D02*
X-11049046Y1732619D01*
X-11049046Y1256428D02*
X-10929999Y1494523D01*
X-10929999Y1494523D02*
X-10810951Y1613571D01*
X-10810951Y1613571D02*
X-10572856Y1732619D01*
X-10572856Y1732619D02*
X-10334761Y1732619D01*
X-9501427Y65952D02*
X-9501427Y1732619D01*
X-9501427Y1256428D02*
X-9382380Y1494523D01*
X-9382380Y1494523D02*
X-9263332Y1613571D01*
X-9263332Y1613571D02*
X-9025237Y1732619D01*
X-9025237Y1732619D02*
X-8787142Y1732619D01*
X-7001427Y185000D02*
X-7239523Y65952D01*
X-7239523Y65952D02*
X-7715713Y65952D01*
X-7715713Y65952D02*
X-7953808Y185000D01*
X-7953808Y185000D02*
X-8072856Y423095D01*
X-8072856Y423095D02*
X-8072856Y1375476D01*
X-8072856Y1375476D02*
X-7953808Y1613571D01*
X-7953808Y1613571D02*
X-7715713Y1732619D01*
X-7715713Y1732619D02*
X-7239523Y1732619D01*
X-7239523Y1732619D02*
X-7001427Y1613571D01*
X-7001427Y1613571D02*
X-6882380Y1375476D01*
X-6882380Y1375476D02*
X-6882380Y1137380D01*
X-6882380Y1137380D02*
X-8072856Y899285D01*
X-5810951Y1732619D02*
X-5810951Y65952D01*
X-5810951Y1494523D02*
X-5691904Y1613571D01*
X-5691904Y1613571D02*
X-5453809Y1732619D01*
X-5453809Y1732619D02*
X-5096666Y1732619D01*
X-5096666Y1732619D02*
X-4858570Y1613571D01*
X-4858570Y1613571D02*
X-4739523Y1375476D01*
X-4739523Y1375476D02*
X-4739523Y65952D01*
X-3906189Y1732619D02*
X-2953808Y1732619D01*
X-3549046Y2565952D02*
X-3549046Y423095D01*
X-3549046Y423095D02*
X-3429999Y185000D01*
X-3429999Y185000D02*
X-3191904Y65952D01*
X-3191904Y65952D02*
X-2953808Y65952D01*
X-23251428Y-3984047D02*
X-24441904Y-3984047D01*
X-24441904Y-3984047D02*
X-24441904Y-1484047D01*
X-22418094Y-2674523D02*
X-21584761Y-2674523D01*
X-21227618Y-3984047D02*
X-22418094Y-3984047D01*
X-22418094Y-3984047D02*
X-22418094Y-1484047D01*
X-22418094Y-1484047D02*
X-21227618Y-1484047D01*
X-20156189Y-3984047D02*
X-20156189Y-1484047D01*
X-20156189Y-1484047D02*
X-19560951Y-1484047D01*
X-19560951Y-1484047D02*
X-19203808Y-1603095D01*
X-19203808Y-1603095D02*
X-18965713Y-1841190D01*
X-18965713Y-1841190D02*
X-18846666Y-2079285D01*
X-18846666Y-2079285D02*
X-18727618Y-2555476D01*
X-18727618Y-2555476D02*
X-18727618Y-2912619D01*
X-18727618Y-2912619D02*
X-18846666Y-3388809D01*
X-18846666Y-3388809D02*
X-18965713Y-3626904D01*
X-18965713Y-3626904D02*
X-19203808Y-3865000D01*
X-19203808Y-3865000D02*
X-19560951Y-3984047D01*
X-19560951Y-3984047D02*
X-20156189Y-3984047D01*
X-15870475Y-3865000D02*
X-15513332Y-3984047D01*
X-15513332Y-3984047D02*
X-14918094Y-3984047D01*
X-14918094Y-3984047D02*
X-14679999Y-3865000D01*
X-14679999Y-3865000D02*
X-14560951Y-3745952D01*
X-14560951Y-3745952D02*
X-14441904Y-3507857D01*
X-14441904Y-3507857D02*
X-14441904Y-3269761D01*
X-14441904Y-3269761D02*
X-14560951Y-3031666D01*
X-14560951Y-3031666D02*
X-14679999Y-2912619D01*
X-14679999Y-2912619D02*
X-14918094Y-2793571D01*
X-14918094Y-2793571D02*
X-15394285Y-2674523D01*
X-15394285Y-2674523D02*
X-15632380Y-2555476D01*
X-15632380Y-2555476D02*
X-15751427Y-2436428D01*
X-15751427Y-2436428D02*
X-15870475Y-2198333D01*
X-15870475Y-2198333D02*
X-15870475Y-1960238D01*
X-15870475Y-1960238D02*
X-15751427Y-1722142D01*
X-15751427Y-1722142D02*
X-15632380Y-1603095D01*
X-15632380Y-1603095D02*
X-15394285Y-1484047D01*
X-15394285Y-1484047D02*
X-14799046Y-1484047D01*
X-14799046Y-1484047D02*
X-14441904Y-1603095D01*
X-13608571Y-2317380D02*
X-13132380Y-3984047D01*
X-13132380Y-3984047D02*
X-12656190Y-2793571D01*
X-12656190Y-2793571D02*
X-12179999Y-3984047D01*
X-12179999Y-3984047D02*
X-11703809Y-2317380D01*
X-10751427Y-3984047D02*
X-10751427Y-2317380D01*
X-10751427Y-1484047D02*
X-10870475Y-1603095D01*
X-10870475Y-1603095D02*
X-10751427Y-1722142D01*
X-10751427Y-1722142D02*
X-10632380Y-1603095D01*
X-10632380Y-1603095D02*
X-10751427Y-1484047D01*
X-10751427Y-1484047D02*
X-10751427Y-1722142D01*
X-9918094Y-2317380D02*
X-8965713Y-2317380D01*
X-9560951Y-1484047D02*
X-9560951Y-3626904D01*
X-9560951Y-3626904D02*
X-9441904Y-3865000D01*
X-9441904Y-3865000D02*
X-9203809Y-3984047D01*
X-9203809Y-3984047D02*
X-8965713Y-3984047D01*
X-7060952Y-3865000D02*
X-7299047Y-3984047D01*
X-7299047Y-3984047D02*
X-7775238Y-3984047D01*
X-7775238Y-3984047D02*
X-8013333Y-3865000D01*
X-8013333Y-3865000D02*
X-8132380Y-3745952D01*
X-8132380Y-3745952D02*
X-8251428Y-3507857D01*
X-8251428Y-3507857D02*
X-8251428Y-2793571D01*
X-8251428Y-2793571D02*
X-8132380Y-2555476D01*
X-8132380Y-2555476D02*
X-8013333Y-2436428D01*
X-8013333Y-2436428D02*
X-7775238Y-2317380D01*
X-7775238Y-2317380D02*
X-7299047Y-2317380D01*
X-7299047Y-2317380D02*
X-7060952Y-2436428D01*
X-5989523Y-3984047D02*
X-5989523Y-1484047D01*
X-4918095Y-3984047D02*
X-4918095Y-2674523D01*
X-4918095Y-2674523D02*
X-5037142Y-2436428D01*
X-5037142Y-2436428D02*
X-5275238Y-2317380D01*
X-5275238Y-2317380D02*
X-5632381Y-2317380D01*
X-5632381Y-2317380D02*
X-5870476Y-2436428D01*
X-5870476Y-2436428D02*
X-5989523Y-2555476D01*
X20431428Y-40066428D02*
X19717142Y-40066428D01*
X19717142Y-40066428D02*
X19717142Y-38566428D01*
X20931428Y-39280714D02*
X21431428Y-39280714D01*
X21645714Y-40066428D02*
X20931428Y-40066428D01*
X20931428Y-40066428D02*
X20931428Y-38566428D01*
X20931428Y-38566428D02*
X21645714Y-38566428D01*
X22288571Y-40066428D02*
X22288571Y-38566428D01*
X22288571Y-38566428D02*
X22645714Y-38566428D01*
X22645714Y-38566428D02*
X22860000Y-38637857D01*
X22860000Y-38637857D02*
X23002857Y-38780714D01*
X23002857Y-38780714D02*
X23074286Y-38923571D01*
X23074286Y-38923571D02*
X23145714Y-39209285D01*
X23145714Y-39209285D02*
X23145714Y-39423571D01*
X23145714Y-39423571D02*
X23074286Y-39709285D01*
X23074286Y-39709285D02*
X23002857Y-39852142D01*
X23002857Y-39852142D02*
X22860000Y-39995000D01*
X22860000Y-39995000D02*
X22645714Y-40066428D01*
X22645714Y-40066428D02*
X22288571Y-40066428D01*
X24860000Y-39066428D02*
X25931428Y-39066428D01*
X25288571Y-38423571D02*
X24860000Y-40352142D01*
X25788571Y-39709285D02*
X24717143Y-39709285D01*
X25360000Y-40352142D02*
X25788571Y-38423571D01*
X26288571Y-38566428D02*
X27217143Y-38566428D01*
X27217143Y-38566428D02*
X26717143Y-39137857D01*
X26717143Y-39137857D02*
X26931428Y-39137857D01*
X26931428Y-39137857D02*
X27074286Y-39209285D01*
X27074286Y-39209285D02*
X27145714Y-39280714D01*
X27145714Y-39280714D02*
X27217143Y-39423571D01*
X27217143Y-39423571D02*
X27217143Y-39780714D01*
X27217143Y-39780714D02*
X27145714Y-39923571D01*
X27145714Y-39923571D02*
X27074286Y-39995000D01*
X27074286Y-39995000D02*
X26931428Y-40066428D01*
X26931428Y-40066428D02*
X26502857Y-40066428D01*
X26502857Y-40066428D02*
X26360000Y-39995000D01*
X26360000Y-39995000D02*
X26288571Y-39923571D01*
X-29372857Y48003571D02*
X-29372857Y49503571D01*
X-29372857Y49503571D02*
X-28801428Y49503571D01*
X-28801428Y49503571D02*
X-28658571Y49432142D01*
X-28658571Y49432142D02*
X-28587142Y49360714D01*
X-28587142Y49360714D02*
X-28515714Y49217857D01*
X-28515714Y49217857D02*
X-28515714Y49003571D01*
X-28515714Y49003571D02*
X-28587142Y48860714D01*
X-28587142Y48860714D02*
X-28658571Y48789285D01*
X-28658571Y48789285D02*
X-28801428Y48717857D01*
X-28801428Y48717857D02*
X-29372857Y48717857D01*
X-27658571Y48003571D02*
X-27801428Y48075000D01*
X-27801428Y48075000D02*
X-27872857Y48146428D01*
X-27872857Y48146428D02*
X-27944285Y48289285D01*
X-27944285Y48289285D02*
X-27944285Y48717857D01*
X-27944285Y48717857D02*
X-27872857Y48860714D01*
X-27872857Y48860714D02*
X-27801428Y48932142D01*
X-27801428Y48932142D02*
X-27658571Y49003571D01*
X-27658571Y49003571D02*
X-27444285Y49003571D01*
X-27444285Y49003571D02*
X-27301428Y48932142D01*
X-27301428Y48932142D02*
X-27230000Y48860714D01*
X-27230000Y48860714D02*
X-27158571Y48717857D01*
X-27158571Y48717857D02*
X-27158571Y48289285D01*
X-27158571Y48289285D02*
X-27230000Y48146428D01*
X-27230000Y48146428D02*
X-27301428Y48075000D01*
X-27301428Y48075000D02*
X-27444285Y48003571D01*
X-27444285Y48003571D02*
X-27658571Y48003571D01*
X-26658571Y49003571D02*
X-26372857Y48003571D01*
X-26372857Y48003571D02*
X-26087142Y48717857D01*
X-26087142Y48717857D02*
X-25801428Y48003571D01*
X-25801428Y48003571D02*
X-25515714Y49003571D01*
X-24372856Y48075000D02*
X-24515713Y48003571D01*
X-24515713Y48003571D02*
X-24801428Y48003571D01*
X-24801428Y48003571D02*
X-24944285Y48075000D01*
X-24944285Y48075000D02*
X-25015713Y48217857D01*
X-25015713Y48217857D02*
X-25015713Y48789285D01*
X-25015713Y48789285D02*
X-24944285Y48932142D01*
X-24944285Y48932142D02*
X-24801428Y49003571D01*
X-24801428Y49003571D02*
X-24515713Y49003571D01*
X-24515713Y49003571D02*
X-24372856Y48932142D01*
X-24372856Y48932142D02*
X-24301428Y48789285D01*
X-24301428Y48789285D02*
X-24301428Y48646428D01*
X-24301428Y48646428D02*
X-25015713Y48503571D01*
X-23658571Y48003571D02*
X-23658571Y49003571D01*
X-23658571Y48717857D02*
X-23587142Y48860714D01*
X-23587142Y48860714D02*
X-23515714Y48932142D01*
X-23515714Y48932142D02*
X-23372856Y49003571D01*
X-23372856Y49003571D02*
X-23229999Y49003571D01*
X-29444285Y45645000D02*
X-29230000Y45573571D01*
X-29230000Y45573571D02*
X-28872857Y45573571D01*
X-28872857Y45573571D02*
X-28730000Y45645000D01*
X-28730000Y45645000D02*
X-28658571Y45716428D01*
X-28658571Y45716428D02*
X-28587142Y45859285D01*
X-28587142Y45859285D02*
X-28587142Y46002142D01*
X-28587142Y46002142D02*
X-28658571Y46145000D01*
X-28658571Y46145000D02*
X-28730000Y46216428D01*
X-28730000Y46216428D02*
X-28872857Y46287857D01*
X-28872857Y46287857D02*
X-29158571Y46359285D01*
X-29158571Y46359285D02*
X-29301428Y46430714D01*
X-29301428Y46430714D02*
X-29372857Y46502142D01*
X-29372857Y46502142D02*
X-29444285Y46645000D01*
X-29444285Y46645000D02*
X-29444285Y46787857D01*
X-29444285Y46787857D02*
X-29372857Y46930714D01*
X-29372857Y46930714D02*
X-29301428Y47002142D01*
X-29301428Y47002142D02*
X-29158571Y47073571D01*
X-29158571Y47073571D02*
X-28801428Y47073571D01*
X-28801428Y47073571D02*
X-28587142Y47002142D01*
X-27301429Y46573571D02*
X-27301429Y45573571D01*
X-27944286Y46573571D02*
X-27944286Y45787857D01*
X-27944286Y45787857D02*
X-27872857Y45645000D01*
X-27872857Y45645000D02*
X-27730000Y45573571D01*
X-27730000Y45573571D02*
X-27515714Y45573571D01*
X-27515714Y45573571D02*
X-27372857Y45645000D01*
X-27372857Y45645000D02*
X-27301429Y45716428D01*
X-26587143Y46573571D02*
X-26587143Y45073571D01*
X-26587143Y46502142D02*
X-26444286Y46573571D01*
X-26444286Y46573571D02*
X-26158571Y46573571D01*
X-26158571Y46573571D02*
X-26015714Y46502142D01*
X-26015714Y46502142D02*
X-25944286Y46430714D01*
X-25944286Y46430714D02*
X-25872857Y46287857D01*
X-25872857Y46287857D02*
X-25872857Y45859285D01*
X-25872857Y45859285D02*
X-25944286Y45716428D01*
X-25944286Y45716428D02*
X-26015714Y45645000D01*
X-26015714Y45645000D02*
X-26158571Y45573571D01*
X-26158571Y45573571D02*
X-26444286Y45573571D01*
X-26444286Y45573571D02*
X-26587143Y45645000D01*
X-25230000Y46573571D02*
X-25230000Y45073571D01*
X-25230000Y46502142D02*
X-25087143Y46573571D01*
X-25087143Y46573571D02*
X-24801428Y46573571D01*
X-24801428Y46573571D02*
X-24658571Y46502142D01*
X-24658571Y46502142D02*
X-24587143Y46430714D01*
X-24587143Y46430714D02*
X-24515714Y46287857D01*
X-24515714Y46287857D02*
X-24515714Y45859285D01*
X-24515714Y45859285D02*
X-24587143Y45716428D01*
X-24587143Y45716428D02*
X-24658571Y45645000D01*
X-24658571Y45645000D02*
X-24801428Y45573571D01*
X-24801428Y45573571D02*
X-25087143Y45573571D01*
X-25087143Y45573571D02*
X-25230000Y45645000D01*
X-23658571Y45573571D02*
X-23801428Y45645000D01*
X-23801428Y45645000D02*
X-23872857Y45787857D01*
X-23872857Y45787857D02*
X-23872857Y47073571D01*
X-23230000Y46573571D02*
X-22872857Y45573571D01*
X-22515714Y46573571D02*
X-22872857Y45573571D01*
X-22872857Y45573571D02*
X-23015714Y45216428D01*
X-23015714Y45216428D02*
X-23087143Y45145000D01*
X-23087143Y45145000D02*
X-23230000Y45073571D01*
X18436190Y-48703333D02*
X19960000Y-48703333D01*
X19198095Y-49465238D02*
X19198095Y-47941428D01*
X27007620Y-48703333D02*
X28531430Y-48703333D01*
D11*
X-27361904Y-43667619D02*
X-27361904Y-42667619D01*
X-27361904Y-42667619D02*
X-27123809Y-42667619D01*
X-27123809Y-42667619D02*
X-26980952Y-42715238D01*
X-26980952Y-42715238D02*
X-26885714Y-42810476D01*
X-26885714Y-42810476D02*
X-26838095Y-42905714D01*
X-26838095Y-42905714D02*
X-26790476Y-43096190D01*
X-26790476Y-43096190D02*
X-26790476Y-43239047D01*
X-26790476Y-43239047D02*
X-26838095Y-43429523D01*
X-26838095Y-43429523D02*
X-26885714Y-43524761D01*
X-26885714Y-43524761D02*
X-26980952Y-43620000D01*
X-26980952Y-43620000D02*
X-27123809Y-43667619D01*
X-27123809Y-43667619D02*
X-27361904Y-43667619D01*
X-25980952Y-43620000D02*
X-26076190Y-43667619D01*
X-26076190Y-43667619D02*
X-26266666Y-43667619D01*
X-26266666Y-43667619D02*
X-26361904Y-43620000D01*
X-26361904Y-43620000D02*
X-26409523Y-43524761D01*
X-26409523Y-43524761D02*
X-26409523Y-43143809D01*
X-26409523Y-43143809D02*
X-26361904Y-43048571D01*
X-26361904Y-43048571D02*
X-26266666Y-43000952D01*
X-26266666Y-43000952D02*
X-26076190Y-43000952D01*
X-26076190Y-43000952D02*
X-25980952Y-43048571D01*
X-25980952Y-43048571D02*
X-25933333Y-43143809D01*
X-25933333Y-43143809D02*
X-25933333Y-43239047D01*
X-25933333Y-43239047D02*
X-26409523Y-43334285D01*
X-25552380Y-43620000D02*
X-25457142Y-43667619D01*
X-25457142Y-43667619D02*
X-25266666Y-43667619D01*
X-25266666Y-43667619D02*
X-25171428Y-43620000D01*
X-25171428Y-43620000D02*
X-25123809Y-43524761D01*
X-25123809Y-43524761D02*
X-25123809Y-43477142D01*
X-25123809Y-43477142D02*
X-25171428Y-43381904D01*
X-25171428Y-43381904D02*
X-25266666Y-43334285D01*
X-25266666Y-43334285D02*
X-25409523Y-43334285D01*
X-25409523Y-43334285D02*
X-25504761Y-43286666D01*
X-25504761Y-43286666D02*
X-25552380Y-43191428D01*
X-25552380Y-43191428D02*
X-25552380Y-43143809D01*
X-25552380Y-43143809D02*
X-25504761Y-43048571D01*
X-25504761Y-43048571D02*
X-25409523Y-43000952D01*
X-25409523Y-43000952D02*
X-25266666Y-43000952D01*
X-25266666Y-43000952D02*
X-25171428Y-43048571D01*
X-24695237Y-43667619D02*
X-24695237Y-43000952D01*
X-24695237Y-42667619D02*
X-24742856Y-42715238D01*
X-24742856Y-42715238D02*
X-24695237Y-42762857D01*
X-24695237Y-42762857D02*
X-24647618Y-42715238D01*
X-24647618Y-42715238D02*
X-24695237Y-42667619D01*
X-24695237Y-42667619D02*
X-24695237Y-42762857D01*
X-23790476Y-43000952D02*
X-23790476Y-43810476D01*
X-23790476Y-43810476D02*
X-23838095Y-43905714D01*
X-23838095Y-43905714D02*
X-23885714Y-43953333D01*
X-23885714Y-43953333D02*
X-23980952Y-44000952D01*
X-23980952Y-44000952D02*
X-24123809Y-44000952D01*
X-24123809Y-44000952D02*
X-24219047Y-43953333D01*
X-23790476Y-43620000D02*
X-23885714Y-43667619D01*
X-23885714Y-43667619D02*
X-24076190Y-43667619D01*
X-24076190Y-43667619D02*
X-24171428Y-43620000D01*
X-24171428Y-43620000D02*
X-24219047Y-43572380D01*
X-24219047Y-43572380D02*
X-24266666Y-43477142D01*
X-24266666Y-43477142D02*
X-24266666Y-43191428D01*
X-24266666Y-43191428D02*
X-24219047Y-43096190D01*
X-24219047Y-43096190D02*
X-24171428Y-43048571D01*
X-24171428Y-43048571D02*
X-24076190Y-43000952D01*
X-24076190Y-43000952D02*
X-23885714Y-43000952D01*
X-23885714Y-43000952D02*
X-23790476Y-43048571D01*
X-23314285Y-43000952D02*
X-23314285Y-43667619D01*
X-23314285Y-43096190D02*
X-23266666Y-43048571D01*
X-23266666Y-43048571D02*
X-23171428Y-43000952D01*
X-23171428Y-43000952D02*
X-23028571Y-43000952D01*
X-23028571Y-43000952D02*
X-22933333Y-43048571D01*
X-22933333Y-43048571D02*
X-22885714Y-43143809D01*
X-22885714Y-43143809D02*
X-22885714Y-43667619D01*
X-22028571Y-43620000D02*
X-22123809Y-43667619D01*
X-22123809Y-43667619D02*
X-22314285Y-43667619D01*
X-22314285Y-43667619D02*
X-22409523Y-43620000D01*
X-22409523Y-43620000D02*
X-22457142Y-43524761D01*
X-22457142Y-43524761D02*
X-22457142Y-43143809D01*
X-22457142Y-43143809D02*
X-22409523Y-43048571D01*
X-22409523Y-43048571D02*
X-22314285Y-43000952D01*
X-22314285Y-43000952D02*
X-22123809Y-43000952D01*
X-22123809Y-43000952D02*
X-22028571Y-43048571D01*
X-22028571Y-43048571D02*
X-21980952Y-43143809D01*
X-21980952Y-43143809D02*
X-21980952Y-43239047D01*
X-21980952Y-43239047D02*
X-22457142Y-43334285D01*
X-21123809Y-43667619D02*
X-21123809Y-42667619D01*
X-21123809Y-43620000D02*
X-21219047Y-43667619D01*
X-21219047Y-43667619D02*
X-21409523Y-43667619D01*
X-21409523Y-43667619D02*
X-21504761Y-43620000D01*
X-21504761Y-43620000D02*
X-21552380Y-43572380D01*
X-21552380Y-43572380D02*
X-21599999Y-43477142D01*
X-21599999Y-43477142D02*
X-21599999Y-43191428D01*
X-21599999Y-43191428D02*
X-21552380Y-43096190D01*
X-21552380Y-43096190D02*
X-21504761Y-43048571D01*
X-21504761Y-43048571D02*
X-21409523Y-43000952D01*
X-21409523Y-43000952D02*
X-21219047Y-43000952D01*
X-21219047Y-43000952D02*
X-21123809Y-43048571D01*
X-19885713Y-43667619D02*
X-19885713Y-42667619D01*
X-19885713Y-43048571D02*
X-19790475Y-43000952D01*
X-19790475Y-43000952D02*
X-19599999Y-43000952D01*
X-19599999Y-43000952D02*
X-19504761Y-43048571D01*
X-19504761Y-43048571D02*
X-19457142Y-43096190D01*
X-19457142Y-43096190D02*
X-19409523Y-43191428D01*
X-19409523Y-43191428D02*
X-19409523Y-43477142D01*
X-19409523Y-43477142D02*
X-19457142Y-43572380D01*
X-19457142Y-43572380D02*
X-19504761Y-43620000D01*
X-19504761Y-43620000D02*
X-19599999Y-43667619D01*
X-19599999Y-43667619D02*
X-19790475Y-43667619D01*
X-19790475Y-43667619D02*
X-19885713Y-43620000D01*
X-19076189Y-43000952D02*
X-18838094Y-43667619D01*
X-18599999Y-43000952D02*
X-18838094Y-43667619D01*
X-18838094Y-43667619D02*
X-18933332Y-43905714D01*
X-18933332Y-43905714D02*
X-18980951Y-43953333D01*
X-18980951Y-43953333D02*
X-19076189Y-44000952D01*
X-18219046Y-43572380D02*
X-18171427Y-43620000D01*
X-18171427Y-43620000D02*
X-18219046Y-43667619D01*
X-18219046Y-43667619D02*
X-18266665Y-43620000D01*
X-18266665Y-43620000D02*
X-18219046Y-43572380D01*
X-18219046Y-43572380D02*
X-18219046Y-43667619D01*
X-18219046Y-43048571D02*
X-18171427Y-43096190D01*
X-18171427Y-43096190D02*
X-18219046Y-43143809D01*
X-18219046Y-43143809D02*
X-18266665Y-43096190D01*
X-18266665Y-43096190D02*
X-18219046Y-43048571D01*
X-18219046Y-43048571D02*
X-18219046Y-43143809D01*
X-16647618Y-43143809D02*
X-16504761Y-43191428D01*
X-16504761Y-43191428D02*
X-16457142Y-43239047D01*
X-16457142Y-43239047D02*
X-16409523Y-43334285D01*
X-16409523Y-43334285D02*
X-16409523Y-43477142D01*
X-16409523Y-43477142D02*
X-16457142Y-43572380D01*
X-16457142Y-43572380D02*
X-16504761Y-43620000D01*
X-16504761Y-43620000D02*
X-16599999Y-43667619D01*
X-16599999Y-43667619D02*
X-16980951Y-43667619D01*
X-16980951Y-43667619D02*
X-16980951Y-42667619D01*
X-16980951Y-42667619D02*
X-16647618Y-42667619D01*
X-16647618Y-42667619D02*
X-16552380Y-42715238D01*
X-16552380Y-42715238D02*
X-16504761Y-42762857D01*
X-16504761Y-42762857D02*
X-16457142Y-42858095D01*
X-16457142Y-42858095D02*
X-16457142Y-42953333D01*
X-16457142Y-42953333D02*
X-16504761Y-43048571D01*
X-16504761Y-43048571D02*
X-16552380Y-43096190D01*
X-16552380Y-43096190D02*
X-16647618Y-43143809D01*
X-16647618Y-43143809D02*
X-16980951Y-43143809D01*
X-15599999Y-43620000D02*
X-15695237Y-43667619D01*
X-15695237Y-43667619D02*
X-15885713Y-43667619D01*
X-15885713Y-43667619D02*
X-15980951Y-43620000D01*
X-15980951Y-43620000D02*
X-16028570Y-43524761D01*
X-16028570Y-43524761D02*
X-16028570Y-43143809D01*
X-16028570Y-43143809D02*
X-15980951Y-43048571D01*
X-15980951Y-43048571D02*
X-15885713Y-43000952D01*
X-15885713Y-43000952D02*
X-15695237Y-43000952D01*
X-15695237Y-43000952D02*
X-15599999Y-43048571D01*
X-15599999Y-43048571D02*
X-15552380Y-43143809D01*
X-15552380Y-43143809D02*
X-15552380Y-43239047D01*
X-15552380Y-43239047D02*
X-16028570Y-43334285D01*
X-15123808Y-43000952D02*
X-15123808Y-43667619D01*
X-15123808Y-43096190D02*
X-15076189Y-43048571D01*
X-15076189Y-43048571D02*
X-14980951Y-43000952D01*
X-14980951Y-43000952D02*
X-14838094Y-43000952D01*
X-14838094Y-43000952D02*
X-14742856Y-43048571D01*
X-14742856Y-43048571D02*
X-14695237Y-43143809D01*
X-14695237Y-43143809D02*
X-14695237Y-43667619D01*
X-14219046Y-43000952D02*
X-14219046Y-43858095D01*
X-14219046Y-43858095D02*
X-14266665Y-43953333D01*
X-14266665Y-43953333D02*
X-14361903Y-44000952D01*
X-14361903Y-44000952D02*
X-14409522Y-44000952D01*
X-14219046Y-42667619D02*
X-14266665Y-42715238D01*
X-14266665Y-42715238D02*
X-14219046Y-42762857D01*
X-14219046Y-42762857D02*
X-14171427Y-42715238D01*
X-14171427Y-42715238D02*
X-14219046Y-42667619D01*
X-14219046Y-42667619D02*
X-14219046Y-42762857D01*
X-13314285Y-43667619D02*
X-13314285Y-43143809D01*
X-13314285Y-43143809D02*
X-13361904Y-43048571D01*
X-13361904Y-43048571D02*
X-13457142Y-43000952D01*
X-13457142Y-43000952D02*
X-13647618Y-43000952D01*
X-13647618Y-43000952D02*
X-13742856Y-43048571D01*
X-13314285Y-43620000D02*
X-13409523Y-43667619D01*
X-13409523Y-43667619D02*
X-13647618Y-43667619D01*
X-13647618Y-43667619D02*
X-13742856Y-43620000D01*
X-13742856Y-43620000D02*
X-13790475Y-43524761D01*
X-13790475Y-43524761D02*
X-13790475Y-43429523D01*
X-13790475Y-43429523D02*
X-13742856Y-43334285D01*
X-13742856Y-43334285D02*
X-13647618Y-43286666D01*
X-13647618Y-43286666D02*
X-13409523Y-43286666D01*
X-13409523Y-43286666D02*
X-13314285Y-43239047D01*
X-12838094Y-43667619D02*
X-12838094Y-43000952D01*
X-12838094Y-43096190D02*
X-12790475Y-43048571D01*
X-12790475Y-43048571D02*
X-12695237Y-43000952D01*
X-12695237Y-43000952D02*
X-12552380Y-43000952D01*
X-12552380Y-43000952D02*
X-12457142Y-43048571D01*
X-12457142Y-43048571D02*
X-12409523Y-43143809D01*
X-12409523Y-43143809D02*
X-12409523Y-43667619D01*
X-12409523Y-43143809D02*
X-12361904Y-43048571D01*
X-12361904Y-43048571D02*
X-12266666Y-43000952D01*
X-12266666Y-43000952D02*
X-12123809Y-43000952D01*
X-12123809Y-43000952D02*
X-12028570Y-43048571D01*
X-12028570Y-43048571D02*
X-11980951Y-43143809D01*
X-11980951Y-43143809D02*
X-11980951Y-43667619D01*
X-11504761Y-43667619D02*
X-11504761Y-43000952D01*
X-11504761Y-42667619D02*
X-11552380Y-42715238D01*
X-11552380Y-42715238D02*
X-11504761Y-42762857D01*
X-11504761Y-42762857D02*
X-11457142Y-42715238D01*
X-11457142Y-42715238D02*
X-11504761Y-42667619D01*
X-11504761Y-42667619D02*
X-11504761Y-42762857D01*
X-11028571Y-43000952D02*
X-11028571Y-43667619D01*
X-11028571Y-43096190D02*
X-10980952Y-43048571D01*
X-10980952Y-43048571D02*
X-10885714Y-43000952D01*
X-10885714Y-43000952D02*
X-10742857Y-43000952D01*
X-10742857Y-43000952D02*
X-10647619Y-43048571D01*
X-10647619Y-43048571D02*
X-10600000Y-43143809D01*
X-10600000Y-43143809D02*
X-10600000Y-43667619D01*
X-9361904Y-43143809D02*
X-9028571Y-43143809D01*
X-8885714Y-43667619D02*
X-9361904Y-43667619D01*
X-9361904Y-43667619D02*
X-9361904Y-42667619D01*
X-9361904Y-42667619D02*
X-8885714Y-42667619D01*
X-8457142Y-43572380D02*
X-8409523Y-43620000D01*
X-8409523Y-43620000D02*
X-8457142Y-43667619D01*
X-8457142Y-43667619D02*
X-8504761Y-43620000D01*
X-8504761Y-43620000D02*
X-8457142Y-43572380D01*
X-8457142Y-43572380D02*
X-8457142Y-43667619D01*
X-7266666Y-43620000D02*
X-7123809Y-43667619D01*
X-7123809Y-43667619D02*
X-6885714Y-43667619D01*
X-6885714Y-43667619D02*
X-6790476Y-43620000D01*
X-6790476Y-43620000D02*
X-6742857Y-43572380D01*
X-6742857Y-43572380D02*
X-6695238Y-43477142D01*
X-6695238Y-43477142D02*
X-6695238Y-43381904D01*
X-6695238Y-43381904D02*
X-6742857Y-43286666D01*
X-6742857Y-43286666D02*
X-6790476Y-43239047D01*
X-6790476Y-43239047D02*
X-6885714Y-43191428D01*
X-6885714Y-43191428D02*
X-7076190Y-43143809D01*
X-7076190Y-43143809D02*
X-7171428Y-43096190D01*
X-7171428Y-43096190D02*
X-7219047Y-43048571D01*
X-7219047Y-43048571D02*
X-7266666Y-42953333D01*
X-7266666Y-42953333D02*
X-7266666Y-42858095D01*
X-7266666Y-42858095D02*
X-7219047Y-42762857D01*
X-7219047Y-42762857D02*
X-7171428Y-42715238D01*
X-7171428Y-42715238D02*
X-7076190Y-42667619D01*
X-7076190Y-42667619D02*
X-6838095Y-42667619D01*
X-6838095Y-42667619D02*
X-6695238Y-42715238D01*
X-6266666Y-43667619D02*
X-6266666Y-43000952D01*
X-6266666Y-43096190D02*
X-6219047Y-43048571D01*
X-6219047Y-43048571D02*
X-6123809Y-43000952D01*
X-6123809Y-43000952D02*
X-5980952Y-43000952D01*
X-5980952Y-43000952D02*
X-5885714Y-43048571D01*
X-5885714Y-43048571D02*
X-5838095Y-43143809D01*
X-5838095Y-43143809D02*
X-5838095Y-43667619D01*
X-5838095Y-43143809D02*
X-5790476Y-43048571D01*
X-5790476Y-43048571D02*
X-5695238Y-43000952D01*
X-5695238Y-43000952D02*
X-5552381Y-43000952D01*
X-5552381Y-43000952D02*
X-5457142Y-43048571D01*
X-5457142Y-43048571D02*
X-5409523Y-43143809D01*
X-5409523Y-43143809D02*
X-5409523Y-43667619D01*
X-4933333Y-43667619D02*
X-4933333Y-43000952D01*
X-4933333Y-42667619D02*
X-4980952Y-42715238D01*
X-4980952Y-42715238D02*
X-4933333Y-42762857D01*
X-4933333Y-42762857D02*
X-4885714Y-42715238D01*
X-4885714Y-42715238D02*
X-4933333Y-42667619D01*
X-4933333Y-42667619D02*
X-4933333Y-42762857D01*
X-4600000Y-43000952D02*
X-4219048Y-43000952D01*
X-4457143Y-42667619D02*
X-4457143Y-43524761D01*
X-4457143Y-43524761D02*
X-4409524Y-43620000D01*
X-4409524Y-43620000D02*
X-4314286Y-43667619D01*
X-4314286Y-43667619D02*
X-4219048Y-43667619D01*
X-3885714Y-43667619D02*
X-3885714Y-42667619D01*
X-3457143Y-43667619D02*
X-3457143Y-43143809D01*
X-3457143Y-43143809D02*
X-3504762Y-43048571D01*
X-3504762Y-43048571D02*
X-3600000Y-43000952D01*
X-3600000Y-43000952D02*
X-3742857Y-43000952D01*
X-3742857Y-43000952D02*
X-3838095Y-43048571D01*
X-3838095Y-43048571D02*
X-3885714Y-43096190D01*
X-27028571Y-44763809D02*
X-27361904Y-44763809D01*
X-27361904Y-45287619D02*
X-27361904Y-44287619D01*
X-27361904Y-44287619D02*
X-26885714Y-44287619D01*
X-26076190Y-44620952D02*
X-26076190Y-45287619D01*
X-26504761Y-44620952D02*
X-26504761Y-45144761D01*
X-26504761Y-45144761D02*
X-26457142Y-45240000D01*
X-26457142Y-45240000D02*
X-26361904Y-45287619D01*
X-26361904Y-45287619D02*
X-26219047Y-45287619D01*
X-26219047Y-45287619D02*
X-26123809Y-45240000D01*
X-26123809Y-45240000D02*
X-26076190Y-45192380D01*
X-25599999Y-44620952D02*
X-25599999Y-45287619D01*
X-25599999Y-44716190D02*
X-25552380Y-44668571D01*
X-25552380Y-44668571D02*
X-25457142Y-44620952D01*
X-25457142Y-44620952D02*
X-25314285Y-44620952D01*
X-25314285Y-44620952D02*
X-25219047Y-44668571D01*
X-25219047Y-44668571D02*
X-25171428Y-44763809D01*
X-25171428Y-44763809D02*
X-25171428Y-45287619D01*
X-24266666Y-45287619D02*
X-24266666Y-44287619D01*
X-24266666Y-45240000D02*
X-24361904Y-45287619D01*
X-24361904Y-45287619D02*
X-24552380Y-45287619D01*
X-24552380Y-45287619D02*
X-24647618Y-45240000D01*
X-24647618Y-45240000D02*
X-24695237Y-45192380D01*
X-24695237Y-45192380D02*
X-24742856Y-45097142D01*
X-24742856Y-45097142D02*
X-24742856Y-44811428D01*
X-24742856Y-44811428D02*
X-24695237Y-44716190D01*
X-24695237Y-44716190D02*
X-24647618Y-44668571D01*
X-24647618Y-44668571D02*
X-24552380Y-44620952D01*
X-24552380Y-44620952D02*
X-24361904Y-44620952D01*
X-24361904Y-44620952D02*
X-24266666Y-44668571D01*
X-23409523Y-45240000D02*
X-23504761Y-45287619D01*
X-23504761Y-45287619D02*
X-23695237Y-45287619D01*
X-23695237Y-45287619D02*
X-23790475Y-45240000D01*
X-23790475Y-45240000D02*
X-23838094Y-45144761D01*
X-23838094Y-45144761D02*
X-23838094Y-44763809D01*
X-23838094Y-44763809D02*
X-23790475Y-44668571D01*
X-23790475Y-44668571D02*
X-23695237Y-44620952D01*
X-23695237Y-44620952D02*
X-23504761Y-44620952D01*
X-23504761Y-44620952D02*
X-23409523Y-44668571D01*
X-23409523Y-44668571D02*
X-23361904Y-44763809D01*
X-23361904Y-44763809D02*
X-23361904Y-44859047D01*
X-23361904Y-44859047D02*
X-23838094Y-44954285D01*
X-22504761Y-45287619D02*
X-22504761Y-44287619D01*
X-22504761Y-45240000D02*
X-22599999Y-45287619D01*
X-22599999Y-45287619D02*
X-22790475Y-45287619D01*
X-22790475Y-45287619D02*
X-22885713Y-45240000D01*
X-22885713Y-45240000D02*
X-22933332Y-45192380D01*
X-22933332Y-45192380D02*
X-22980951Y-45097142D01*
X-22980951Y-45097142D02*
X-22980951Y-44811428D01*
X-22980951Y-44811428D02*
X-22933332Y-44716190D01*
X-22933332Y-44716190D02*
X-22885713Y-44668571D01*
X-22885713Y-44668571D02*
X-22790475Y-44620952D01*
X-22790475Y-44620952D02*
X-22599999Y-44620952D01*
X-22599999Y-44620952D02*
X-22504761Y-44668571D01*
X-21266665Y-45287619D02*
X-21266665Y-44287619D01*
X-21266665Y-44668571D02*
X-21171427Y-44620952D01*
X-21171427Y-44620952D02*
X-20980951Y-44620952D01*
X-20980951Y-44620952D02*
X-20885713Y-44668571D01*
X-20885713Y-44668571D02*
X-20838094Y-44716190D01*
X-20838094Y-44716190D02*
X-20790475Y-44811428D01*
X-20790475Y-44811428D02*
X-20790475Y-45097142D01*
X-20790475Y-45097142D02*
X-20838094Y-45192380D01*
X-20838094Y-45192380D02*
X-20885713Y-45240000D01*
X-20885713Y-45240000D02*
X-20980951Y-45287619D01*
X-20980951Y-45287619D02*
X-21171427Y-45287619D01*
X-21171427Y-45287619D02*
X-21266665Y-45240000D01*
X-20457141Y-44620952D02*
X-20219046Y-45287619D01*
X-19980951Y-44620952D02*
X-20219046Y-45287619D01*
X-20219046Y-45287619D02*
X-20314284Y-45525714D01*
X-20314284Y-45525714D02*
X-20361903Y-45573333D01*
X-20361903Y-45573333D02*
X-20457141Y-45620952D01*
X-19599998Y-45192380D02*
X-19552379Y-45240000D01*
X-19552379Y-45240000D02*
X-19599998Y-45287619D01*
X-19599998Y-45287619D02*
X-19647617Y-45240000D01*
X-19647617Y-45240000D02*
X-19599998Y-45192380D01*
X-19599998Y-45192380D02*
X-19599998Y-45287619D01*
X-19599998Y-44668571D02*
X-19552379Y-44716190D01*
X-19552379Y-44716190D02*
X-19599998Y-44763809D01*
X-19599998Y-44763809D02*
X-19647617Y-44716190D01*
X-19647617Y-44716190D02*
X-19599998Y-44668571D01*
X-19599998Y-44668571D02*
X-19599998Y-44763809D01*
X-18361903Y-45287619D02*
X-18361903Y-44287619D01*
X-18361903Y-44287619D02*
X-17790475Y-45287619D01*
X-17790475Y-45287619D02*
X-17790475Y-44287619D01*
X-17314284Y-45287619D02*
X-17314284Y-44287619D01*
X-16838094Y-45287619D02*
X-16838094Y-44287619D01*
X-16838094Y-44763809D02*
X-16266666Y-44763809D01*
X-16266666Y-45287619D02*
X-16266666Y-44287619D01*
X-15028570Y-45287619D02*
X-15028570Y-44287619D01*
X-15028570Y-44287619D02*
X-14647618Y-44287619D01*
X-14647618Y-44287619D02*
X-14552380Y-44335238D01*
X-14552380Y-44335238D02*
X-14504761Y-44382857D01*
X-14504761Y-44382857D02*
X-14457142Y-44478095D01*
X-14457142Y-44478095D02*
X-14457142Y-44620952D01*
X-14457142Y-44620952D02*
X-14504761Y-44716190D01*
X-14504761Y-44716190D02*
X-14552380Y-44763809D01*
X-14552380Y-44763809D02*
X-14647618Y-44811428D01*
X-14647618Y-44811428D02*
X-15028570Y-44811428D01*
X-14123808Y-44287619D02*
X-13504761Y-44287619D01*
X-13504761Y-44287619D02*
X-13838094Y-44668571D01*
X-13838094Y-44668571D02*
X-13695237Y-44668571D01*
X-13695237Y-44668571D02*
X-13599999Y-44716190D01*
X-13599999Y-44716190D02*
X-13552380Y-44763809D01*
X-13552380Y-44763809D02*
X-13504761Y-44859047D01*
X-13504761Y-44859047D02*
X-13504761Y-45097142D01*
X-13504761Y-45097142D02*
X-13552380Y-45192380D01*
X-13552380Y-45192380D02*
X-13599999Y-45240000D01*
X-13599999Y-45240000D02*
X-13695237Y-45287619D01*
X-13695237Y-45287619D02*
X-13980951Y-45287619D01*
X-13980951Y-45287619D02*
X-14076189Y-45240000D01*
X-14076189Y-45240000D02*
X-14123808Y-45192380D01*
X-12885713Y-44287619D02*
X-12790475Y-44287619D01*
X-12790475Y-44287619D02*
X-12695237Y-44335238D01*
X-12695237Y-44335238D02*
X-12647618Y-44382857D01*
X-12647618Y-44382857D02*
X-12599999Y-44478095D01*
X-12599999Y-44478095D02*
X-12552380Y-44668571D01*
X-12552380Y-44668571D02*
X-12552380Y-44906666D01*
X-12552380Y-44906666D02*
X-12599999Y-45097142D01*
X-12599999Y-45097142D02*
X-12647618Y-45192380D01*
X-12647618Y-45192380D02*
X-12695237Y-45240000D01*
X-12695237Y-45240000D02*
X-12790475Y-45287619D01*
X-12790475Y-45287619D02*
X-12885713Y-45287619D01*
X-12885713Y-45287619D02*
X-12980951Y-45240000D01*
X-12980951Y-45240000D02*
X-13028570Y-45192380D01*
X-13028570Y-45192380D02*
X-13076189Y-45097142D01*
X-13076189Y-45097142D02*
X-13123808Y-44906666D01*
X-13123808Y-44906666D02*
X-13123808Y-44668571D01*
X-13123808Y-44668571D02*
X-13076189Y-44478095D01*
X-13076189Y-44478095D02*
X-13028570Y-44382857D01*
X-13028570Y-44382857D02*
X-12980951Y-44335238D01*
X-12980951Y-44335238D02*
X-12885713Y-44287619D01*
X-12123808Y-44763809D02*
X-11790475Y-44763809D01*
X-11647618Y-45287619D02*
X-12123808Y-45287619D01*
X-12123808Y-45287619D02*
X-12123808Y-44287619D01*
X-12123808Y-44287619D02*
X-11647618Y-44287619D01*
X-11028570Y-44811428D02*
X-11028570Y-45287619D01*
X-11361903Y-44287619D02*
X-11028570Y-44811428D01*
X-11028570Y-44811428D02*
X-10695237Y-44287619D01*
X-10171427Y-44287619D02*
X-10076189Y-44287619D01*
X-10076189Y-44287619D02*
X-9980951Y-44335238D01*
X-9980951Y-44335238D02*
X-9933332Y-44382857D01*
X-9933332Y-44382857D02*
X-9885713Y-44478095D01*
X-9885713Y-44478095D02*
X-9838094Y-44668571D01*
X-9838094Y-44668571D02*
X-9838094Y-44906666D01*
X-9838094Y-44906666D02*
X-9885713Y-45097142D01*
X-9885713Y-45097142D02*
X-9933332Y-45192380D01*
X-9933332Y-45192380D02*
X-9980951Y-45240000D01*
X-9980951Y-45240000D02*
X-10076189Y-45287619D01*
X-10076189Y-45287619D02*
X-10171427Y-45287619D01*
X-10171427Y-45287619D02*
X-10266665Y-45240000D01*
X-10266665Y-45240000D02*
X-10314284Y-45192380D01*
X-10314284Y-45192380D02*
X-10361903Y-45097142D01*
X-10361903Y-45097142D02*
X-10409522Y-44906666D01*
X-10409522Y-44906666D02*
X-10409522Y-44668571D01*
X-10409522Y-44668571D02*
X-10361903Y-44478095D01*
X-10361903Y-44478095D02*
X-10314284Y-44382857D01*
X-10314284Y-44382857D02*
X-10266665Y-44335238D01*
X-10266665Y-44335238D02*
X-10171427Y-44287619D01*
X-9219046Y-44287619D02*
X-9123808Y-44287619D01*
X-9123808Y-44287619D02*
X-9028570Y-44335238D01*
X-9028570Y-44335238D02*
X-8980951Y-44382857D01*
X-8980951Y-44382857D02*
X-8933332Y-44478095D01*
X-8933332Y-44478095D02*
X-8885713Y-44668571D01*
X-8885713Y-44668571D02*
X-8885713Y-44906666D01*
X-8885713Y-44906666D02*
X-8933332Y-45097142D01*
X-8933332Y-45097142D02*
X-8980951Y-45192380D01*
X-8980951Y-45192380D02*
X-9028570Y-45240000D01*
X-9028570Y-45240000D02*
X-9123808Y-45287619D01*
X-9123808Y-45287619D02*
X-9219046Y-45287619D01*
X-9219046Y-45287619D02*
X-9314284Y-45240000D01*
X-9314284Y-45240000D02*
X-9361903Y-45192380D01*
X-9361903Y-45192380D02*
X-9409522Y-45097142D01*
X-9409522Y-45097142D02*
X-9457141Y-44906666D01*
X-9457141Y-44906666D02*
X-9457141Y-44668571D01*
X-9457141Y-44668571D02*
X-9409522Y-44478095D01*
X-9409522Y-44478095D02*
X-9361903Y-44382857D01*
X-9361903Y-44382857D02*
X-9314284Y-44335238D01*
X-9314284Y-44335238D02*
X-9219046Y-44287619D01*
X-8552379Y-44287619D02*
X-7933332Y-44287619D01*
X-7933332Y-44287619D02*
X-8266665Y-44668571D01*
X-8266665Y-44668571D02*
X-8123808Y-44668571D01*
X-8123808Y-44668571D02*
X-8028570Y-44716190D01*
X-8028570Y-44716190D02*
X-7980951Y-44763809D01*
X-7980951Y-44763809D02*
X-7933332Y-44859047D01*
X-7933332Y-44859047D02*
X-7933332Y-45097142D01*
X-7933332Y-45097142D02*
X-7980951Y-45192380D01*
X-7980951Y-45192380D02*
X-8028570Y-45240000D01*
X-8028570Y-45240000D02*
X-8123808Y-45287619D01*
X-8123808Y-45287619D02*
X-8409522Y-45287619D01*
X-8409522Y-45287619D02*
X-8504760Y-45240000D01*
X-8504760Y-45240000D02*
X-8552379Y-45192380D01*
X-6980951Y-45287619D02*
X-7552379Y-45287619D01*
X-7266665Y-45287619D02*
X-7266665Y-44287619D01*
X-7266665Y-44287619D02*
X-7361903Y-44430476D01*
X-7361903Y-44430476D02*
X-7457141Y-44525714D01*
X-7457141Y-44525714D02*
X-7552379Y-44573333D01*
X-6647617Y-44287619D02*
X-5980951Y-44287619D01*
X-5980951Y-44287619D02*
X-6409522Y-45287619D01*
X-5171427Y-44287619D02*
X-5361903Y-44287619D01*
X-5361903Y-44287619D02*
X-5457141Y-44335238D01*
X-5457141Y-44335238D02*
X-5504760Y-44382857D01*
X-5504760Y-44382857D02*
X-5599998Y-44525714D01*
X-5599998Y-44525714D02*
X-5647617Y-44716190D01*
X-5647617Y-44716190D02*
X-5647617Y-45097142D01*
X-5647617Y-45097142D02*
X-5599998Y-45192380D01*
X-5599998Y-45192380D02*
X-5552379Y-45240000D01*
X-5552379Y-45240000D02*
X-5457141Y-45287619D01*
X-5457141Y-45287619D02*
X-5266665Y-45287619D01*
X-5266665Y-45287619D02*
X-5171427Y-45240000D01*
X-5171427Y-45240000D02*
X-5123808Y-45192380D01*
X-5123808Y-45192380D02*
X-5076189Y-45097142D01*
X-5076189Y-45097142D02*
X-5076189Y-44859047D01*
X-5076189Y-44859047D02*
X-5123808Y-44763809D01*
X-5123808Y-44763809D02*
X-5171427Y-44716190D01*
X-5171427Y-44716190D02*
X-5266665Y-44668571D01*
X-5266665Y-44668571D02*
X-5457141Y-44668571D01*
X-5457141Y-44668571D02*
X-5552379Y-44716190D01*
X-5552379Y-44716190D02*
X-5599998Y-44763809D01*
X-5599998Y-44763809D02*
X-5647617Y-44859047D01*
X-27361904Y-46907619D02*
X-27361904Y-45907619D01*
X-26933333Y-46907619D02*
X-26933333Y-46383809D01*
X-26933333Y-46383809D02*
X-26980952Y-46288571D01*
X-26980952Y-46288571D02*
X-27076190Y-46240952D01*
X-27076190Y-46240952D02*
X-27219047Y-46240952D01*
X-27219047Y-46240952D02*
X-27314285Y-46288571D01*
X-27314285Y-46288571D02*
X-27361904Y-46336190D01*
X-26599999Y-46240952D02*
X-26219047Y-46240952D01*
X-26457142Y-45907619D02*
X-26457142Y-46764761D01*
X-26457142Y-46764761D02*
X-26409523Y-46860000D01*
X-26409523Y-46860000D02*
X-26314285Y-46907619D01*
X-26314285Y-46907619D02*
X-26219047Y-46907619D01*
X-26028570Y-46240952D02*
X-25647618Y-46240952D01*
X-25885713Y-45907619D02*
X-25885713Y-46764761D01*
X-25885713Y-46764761D02*
X-25838094Y-46860000D01*
X-25838094Y-46860000D02*
X-25742856Y-46907619D01*
X-25742856Y-46907619D02*
X-25647618Y-46907619D01*
X-25314284Y-46240952D02*
X-25314284Y-47240952D01*
X-25314284Y-46288571D02*
X-25219046Y-46240952D01*
X-25219046Y-46240952D02*
X-25028570Y-46240952D01*
X-25028570Y-46240952D02*
X-24933332Y-46288571D01*
X-24933332Y-46288571D02*
X-24885713Y-46336190D01*
X-24885713Y-46336190D02*
X-24838094Y-46431428D01*
X-24838094Y-46431428D02*
X-24838094Y-46717142D01*
X-24838094Y-46717142D02*
X-24885713Y-46812380D01*
X-24885713Y-46812380D02*
X-24933332Y-46860000D01*
X-24933332Y-46860000D02*
X-25028570Y-46907619D01*
X-25028570Y-46907619D02*
X-25219046Y-46907619D01*
X-25219046Y-46907619D02*
X-25314284Y-46860000D01*
X-24457141Y-46860000D02*
X-24361903Y-46907619D01*
X-24361903Y-46907619D02*
X-24171427Y-46907619D01*
X-24171427Y-46907619D02*
X-24076189Y-46860000D01*
X-24076189Y-46860000D02*
X-24028570Y-46764761D01*
X-24028570Y-46764761D02*
X-24028570Y-46717142D01*
X-24028570Y-46717142D02*
X-24076189Y-46621904D01*
X-24076189Y-46621904D02*
X-24171427Y-46574285D01*
X-24171427Y-46574285D02*
X-24314284Y-46574285D01*
X-24314284Y-46574285D02*
X-24409522Y-46526666D01*
X-24409522Y-46526666D02*
X-24457141Y-46431428D01*
X-24457141Y-46431428D02*
X-24457141Y-46383809D01*
X-24457141Y-46383809D02*
X-24409522Y-46288571D01*
X-24409522Y-46288571D02*
X-24314284Y-46240952D01*
X-24314284Y-46240952D02*
X-24171427Y-46240952D01*
X-24171427Y-46240952D02*
X-24076189Y-46288571D01*
X-23599998Y-46812380D02*
X-23552379Y-46860000D01*
X-23552379Y-46860000D02*
X-23599998Y-46907619D01*
X-23599998Y-46907619D02*
X-23647617Y-46860000D01*
X-23647617Y-46860000D02*
X-23599998Y-46812380D01*
X-23599998Y-46812380D02*
X-23599998Y-46907619D01*
X-23599998Y-46288571D02*
X-23552379Y-46336190D01*
X-23552379Y-46336190D02*
X-23599998Y-46383809D01*
X-23599998Y-46383809D02*
X-23647617Y-46336190D01*
X-23647617Y-46336190D02*
X-23599998Y-46288571D01*
X-23599998Y-46288571D02*
X-23599998Y-46383809D01*
X-22409523Y-45860000D02*
X-23266665Y-47145714D01*
X-21361904Y-45860000D02*
X-22219046Y-47145714D01*
X-20599999Y-46240952D02*
X-20599999Y-47050476D01*
X-20599999Y-47050476D02*
X-20647618Y-47145714D01*
X-20647618Y-47145714D02*
X-20695237Y-47193333D01*
X-20695237Y-47193333D02*
X-20790475Y-47240952D01*
X-20790475Y-47240952D02*
X-20933332Y-47240952D01*
X-20933332Y-47240952D02*
X-21028570Y-47193333D01*
X-20599999Y-46860000D02*
X-20695237Y-46907619D01*
X-20695237Y-46907619D02*
X-20885713Y-46907619D01*
X-20885713Y-46907619D02*
X-20980951Y-46860000D01*
X-20980951Y-46860000D02*
X-21028570Y-46812380D01*
X-21028570Y-46812380D02*
X-21076189Y-46717142D01*
X-21076189Y-46717142D02*
X-21076189Y-46431428D01*
X-21076189Y-46431428D02*
X-21028570Y-46336190D01*
X-21028570Y-46336190D02*
X-20980951Y-46288571D01*
X-20980951Y-46288571D02*
X-20885713Y-46240952D01*
X-20885713Y-46240952D02*
X-20695237Y-46240952D01*
X-20695237Y-46240952D02*
X-20599999Y-46288571D01*
X-20123808Y-46907619D02*
X-20123808Y-46240952D01*
X-20123808Y-45907619D02*
X-20171427Y-45955238D01*
X-20171427Y-45955238D02*
X-20123808Y-46002857D01*
X-20123808Y-46002857D02*
X-20076189Y-45955238D01*
X-20076189Y-45955238D02*
X-20123808Y-45907619D01*
X-20123808Y-45907619D02*
X-20123808Y-46002857D01*
X-19790475Y-46240952D02*
X-19409523Y-46240952D01*
X-19647618Y-45907619D02*
X-19647618Y-46764761D01*
X-19647618Y-46764761D02*
X-19599999Y-46860000D01*
X-19599999Y-46860000D02*
X-19504761Y-46907619D01*
X-19504761Y-46907619D02*
X-19409523Y-46907619D01*
X-19076189Y-46907619D02*
X-19076189Y-45907619D01*
X-18647618Y-46907619D02*
X-18647618Y-46383809D01*
X-18647618Y-46383809D02*
X-18695237Y-46288571D01*
X-18695237Y-46288571D02*
X-18790475Y-46240952D01*
X-18790475Y-46240952D02*
X-18933332Y-46240952D01*
X-18933332Y-46240952D02*
X-19028570Y-46288571D01*
X-19028570Y-46288571D02*
X-19076189Y-46336190D01*
X-17742856Y-46240952D02*
X-17742856Y-46907619D01*
X-18171427Y-46240952D02*
X-18171427Y-46764761D01*
X-18171427Y-46764761D02*
X-18123808Y-46860000D01*
X-18123808Y-46860000D02*
X-18028570Y-46907619D01*
X-18028570Y-46907619D02*
X-17885713Y-46907619D01*
X-17885713Y-46907619D02*
X-17790475Y-46860000D01*
X-17790475Y-46860000D02*
X-17742856Y-46812380D01*
X-17266665Y-46907619D02*
X-17266665Y-45907619D01*
X-17266665Y-46288571D02*
X-17171427Y-46240952D01*
X-17171427Y-46240952D02*
X-16980951Y-46240952D01*
X-16980951Y-46240952D02*
X-16885713Y-46288571D01*
X-16885713Y-46288571D02*
X-16838094Y-46336190D01*
X-16838094Y-46336190D02*
X-16790475Y-46431428D01*
X-16790475Y-46431428D02*
X-16790475Y-46717142D01*
X-16790475Y-46717142D02*
X-16838094Y-46812380D01*
X-16838094Y-46812380D02*
X-16885713Y-46860000D01*
X-16885713Y-46860000D02*
X-16980951Y-46907619D01*
X-16980951Y-46907619D02*
X-17171427Y-46907619D01*
X-17171427Y-46907619D02*
X-17266665Y-46860000D01*
X-16361903Y-46812380D02*
X-16314284Y-46860000D01*
X-16314284Y-46860000D02*
X-16361903Y-46907619D01*
X-16361903Y-46907619D02*
X-16409522Y-46860000D01*
X-16409522Y-46860000D02*
X-16361903Y-46812380D01*
X-16361903Y-46812380D02*
X-16361903Y-46907619D01*
X-15457142Y-46860000D02*
X-15552380Y-46907619D01*
X-15552380Y-46907619D02*
X-15742856Y-46907619D01*
X-15742856Y-46907619D02*
X-15838094Y-46860000D01*
X-15838094Y-46860000D02*
X-15885713Y-46812380D01*
X-15885713Y-46812380D02*
X-15933332Y-46717142D01*
X-15933332Y-46717142D02*
X-15933332Y-46431428D01*
X-15933332Y-46431428D02*
X-15885713Y-46336190D01*
X-15885713Y-46336190D02*
X-15838094Y-46288571D01*
X-15838094Y-46288571D02*
X-15742856Y-46240952D01*
X-15742856Y-46240952D02*
X-15552380Y-46240952D01*
X-15552380Y-46240952D02*
X-15457142Y-46288571D01*
X-14885713Y-46907619D02*
X-14980951Y-46860000D01*
X-14980951Y-46860000D02*
X-15028570Y-46812380D01*
X-15028570Y-46812380D02*
X-15076189Y-46717142D01*
X-15076189Y-46717142D02*
X-15076189Y-46431428D01*
X-15076189Y-46431428D02*
X-15028570Y-46336190D01*
X-15028570Y-46336190D02*
X-14980951Y-46288571D01*
X-14980951Y-46288571D02*
X-14885713Y-46240952D01*
X-14885713Y-46240952D02*
X-14742856Y-46240952D01*
X-14742856Y-46240952D02*
X-14647618Y-46288571D01*
X-14647618Y-46288571D02*
X-14599999Y-46336190D01*
X-14599999Y-46336190D02*
X-14552380Y-46431428D01*
X-14552380Y-46431428D02*
X-14552380Y-46717142D01*
X-14552380Y-46717142D02*
X-14599999Y-46812380D01*
X-14599999Y-46812380D02*
X-14647618Y-46860000D01*
X-14647618Y-46860000D02*
X-14742856Y-46907619D01*
X-14742856Y-46907619D02*
X-14885713Y-46907619D01*
X-14123808Y-46907619D02*
X-14123808Y-46240952D01*
X-14123808Y-46336190D02*
X-14076189Y-46288571D01*
X-14076189Y-46288571D02*
X-13980951Y-46240952D01*
X-13980951Y-46240952D02*
X-13838094Y-46240952D01*
X-13838094Y-46240952D02*
X-13742856Y-46288571D01*
X-13742856Y-46288571D02*
X-13695237Y-46383809D01*
X-13695237Y-46383809D02*
X-13695237Y-46907619D01*
X-13695237Y-46383809D02*
X-13647618Y-46288571D01*
X-13647618Y-46288571D02*
X-13552380Y-46240952D01*
X-13552380Y-46240952D02*
X-13409523Y-46240952D01*
X-13409523Y-46240952D02*
X-13314284Y-46288571D01*
X-13314284Y-46288571D02*
X-13266665Y-46383809D01*
X-13266665Y-46383809D02*
X-13266665Y-46907619D01*
X-12076190Y-45860000D02*
X-12933332Y-47145714D01*
X-11266666Y-46907619D02*
X-11742856Y-46907619D01*
X-11742856Y-46907619D02*
X-11742856Y-45907619D01*
X-10790475Y-46907619D02*
X-10885713Y-46860000D01*
X-10885713Y-46860000D02*
X-10933332Y-46764761D01*
X-10933332Y-46764761D02*
X-10933332Y-45907619D01*
X-9980951Y-46907619D02*
X-9980951Y-46383809D01*
X-9980951Y-46383809D02*
X-10028570Y-46288571D01*
X-10028570Y-46288571D02*
X-10123808Y-46240952D01*
X-10123808Y-46240952D02*
X-10314284Y-46240952D01*
X-10314284Y-46240952D02*
X-10409522Y-46288571D01*
X-9980951Y-46860000D02*
X-10076189Y-46907619D01*
X-10076189Y-46907619D02*
X-10314284Y-46907619D01*
X-10314284Y-46907619D02*
X-10409522Y-46860000D01*
X-10409522Y-46860000D02*
X-10457141Y-46764761D01*
X-10457141Y-46764761D02*
X-10457141Y-46669523D01*
X-10457141Y-46669523D02*
X-10409522Y-46574285D01*
X-10409522Y-46574285D02*
X-10314284Y-46526666D01*
X-10314284Y-46526666D02*
X-10076189Y-46526666D01*
X-10076189Y-46526666D02*
X-9980951Y-46479047D01*
X-9504760Y-46907619D02*
X-9504760Y-46240952D01*
X-9504760Y-46336190D02*
X-9457141Y-46288571D01*
X-9457141Y-46288571D02*
X-9361903Y-46240952D01*
X-9361903Y-46240952D02*
X-9219046Y-46240952D01*
X-9219046Y-46240952D02*
X-9123808Y-46288571D01*
X-9123808Y-46288571D02*
X-9076189Y-46383809D01*
X-9076189Y-46383809D02*
X-9076189Y-46907619D01*
X-9076189Y-46383809D02*
X-9028570Y-46288571D01*
X-9028570Y-46288571D02*
X-8933332Y-46240952D01*
X-8933332Y-46240952D02*
X-8790475Y-46240952D01*
X-8790475Y-46240952D02*
X-8695236Y-46288571D01*
X-8695236Y-46288571D02*
X-8647617Y-46383809D01*
X-8647617Y-46383809D02*
X-8647617Y-46907619D01*
X-7790475Y-46860000D02*
X-7885713Y-46907619D01*
X-7885713Y-46907619D02*
X-8076189Y-46907619D01*
X-8076189Y-46907619D02*
X-8171427Y-46860000D01*
X-8171427Y-46860000D02*
X-8219046Y-46764761D01*
X-8219046Y-46764761D02*
X-8219046Y-46383809D01*
X-8219046Y-46383809D02*
X-8171427Y-46288571D01*
X-8171427Y-46288571D02*
X-8076189Y-46240952D01*
X-8076189Y-46240952D02*
X-7885713Y-46240952D01*
X-7885713Y-46240952D02*
X-7790475Y-46288571D01*
X-7790475Y-46288571D02*
X-7742856Y-46383809D01*
X-7742856Y-46383809D02*
X-7742856Y-46479047D01*
X-7742856Y-46479047D02*
X-8219046Y-46574285D01*
X-7314284Y-46907619D02*
X-7314284Y-46240952D01*
X-7314284Y-46431428D02*
X-7266665Y-46336190D01*
X-7266665Y-46336190D02*
X-7219046Y-46288571D01*
X-7219046Y-46288571D02*
X-7123808Y-46240952D01*
X-7123808Y-46240952D02*
X-7028570Y-46240952D01*
X-6552379Y-46907619D02*
X-6647617Y-46860000D01*
X-6647617Y-46860000D02*
X-6695236Y-46812380D01*
X-6695236Y-46812380D02*
X-6742855Y-46717142D01*
X-6742855Y-46717142D02*
X-6742855Y-46431428D01*
X-6742855Y-46431428D02*
X-6695236Y-46336190D01*
X-6695236Y-46336190D02*
X-6647617Y-46288571D01*
X-6647617Y-46288571D02*
X-6552379Y-46240952D01*
X-6552379Y-46240952D02*
X-6409522Y-46240952D01*
X-6409522Y-46240952D02*
X-6314284Y-46288571D01*
X-6314284Y-46288571D02*
X-6266665Y-46336190D01*
X-6266665Y-46336190D02*
X-6219046Y-46431428D01*
X-6219046Y-46431428D02*
X-6219046Y-46717142D01*
X-6219046Y-46717142D02*
X-6266665Y-46812380D01*
X-6266665Y-46812380D02*
X-6314284Y-46860000D01*
X-6314284Y-46860000D02*
X-6409522Y-46907619D01*
X-6409522Y-46907619D02*
X-6552379Y-46907619D01*
X-5076189Y-45860000D02*
X-5933331Y-47145714D01*
X-27361904Y-48527619D02*
X-27361904Y-47527619D01*
X-27361904Y-48003809D02*
X-26790476Y-48003809D01*
X-26790476Y-48527619D02*
X-26790476Y-47527619D01*
X-26314285Y-48527619D02*
X-26314285Y-47860952D01*
X-26314285Y-47527619D02*
X-26361904Y-47575238D01*
X-26361904Y-47575238D02*
X-26314285Y-47622857D01*
X-26314285Y-47622857D02*
X-26266666Y-47575238D01*
X-26266666Y-47575238D02*
X-26314285Y-47527619D01*
X-26314285Y-47527619D02*
X-26314285Y-47622857D01*
X-25409524Y-47860952D02*
X-25409524Y-48670476D01*
X-25409524Y-48670476D02*
X-25457143Y-48765714D01*
X-25457143Y-48765714D02*
X-25504762Y-48813333D01*
X-25504762Y-48813333D02*
X-25600000Y-48860952D01*
X-25600000Y-48860952D02*
X-25742857Y-48860952D01*
X-25742857Y-48860952D02*
X-25838095Y-48813333D01*
X-25409524Y-48480000D02*
X-25504762Y-48527619D01*
X-25504762Y-48527619D02*
X-25695238Y-48527619D01*
X-25695238Y-48527619D02*
X-25790476Y-48480000D01*
X-25790476Y-48480000D02*
X-25838095Y-48432380D01*
X-25838095Y-48432380D02*
X-25885714Y-48337142D01*
X-25885714Y-48337142D02*
X-25885714Y-48051428D01*
X-25885714Y-48051428D02*
X-25838095Y-47956190D01*
X-25838095Y-47956190D02*
X-25790476Y-47908571D01*
X-25790476Y-47908571D02*
X-25695238Y-47860952D01*
X-25695238Y-47860952D02*
X-25504762Y-47860952D01*
X-25504762Y-47860952D02*
X-25409524Y-47908571D01*
X-24933333Y-48527619D02*
X-24933333Y-47527619D01*
X-24504762Y-48527619D02*
X-24504762Y-48003809D01*
X-24504762Y-48003809D02*
X-24552381Y-47908571D01*
X-24552381Y-47908571D02*
X-24647619Y-47860952D01*
X-24647619Y-47860952D02*
X-24790476Y-47860952D01*
X-24790476Y-47860952D02*
X-24885714Y-47908571D01*
X-24885714Y-47908571D02*
X-24933333Y-47956190D01*
X-24266667Y-48622857D02*
X-23504762Y-48622857D01*
X-22838095Y-48480000D02*
X-22933333Y-48527619D01*
X-22933333Y-48527619D02*
X-23123809Y-48527619D01*
X-23123809Y-48527619D02*
X-23219047Y-48480000D01*
X-23219047Y-48480000D02*
X-23266666Y-48432380D01*
X-23266666Y-48432380D02*
X-23314285Y-48337142D01*
X-23314285Y-48337142D02*
X-23314285Y-48051428D01*
X-23314285Y-48051428D02*
X-23266666Y-47956190D01*
X-23266666Y-47956190D02*
X-23219047Y-47908571D01*
X-23219047Y-47908571D02*
X-23123809Y-47860952D01*
X-23123809Y-47860952D02*
X-22933333Y-47860952D01*
X-22933333Y-47860952D02*
X-22838095Y-47908571D01*
X-21980952Y-47860952D02*
X-21980952Y-48527619D01*
X-22409523Y-47860952D02*
X-22409523Y-48384761D01*
X-22409523Y-48384761D02*
X-22361904Y-48480000D01*
X-22361904Y-48480000D02*
X-22266666Y-48527619D01*
X-22266666Y-48527619D02*
X-22123809Y-48527619D01*
X-22123809Y-48527619D02*
X-22028571Y-48480000D01*
X-22028571Y-48480000D02*
X-21980952Y-48432380D01*
X-21504761Y-48527619D02*
X-21504761Y-47860952D01*
X-21504761Y-48051428D02*
X-21457142Y-47956190D01*
X-21457142Y-47956190D02*
X-21409523Y-47908571D01*
X-21409523Y-47908571D02*
X-21314285Y-47860952D01*
X-21314285Y-47860952D02*
X-21219047Y-47860952D01*
X-20885713Y-48527619D02*
X-20885713Y-47860952D01*
X-20885713Y-48051428D02*
X-20838094Y-47956190D01*
X-20838094Y-47956190D02*
X-20790475Y-47908571D01*
X-20790475Y-47908571D02*
X-20695237Y-47860952D01*
X-20695237Y-47860952D02*
X-20599999Y-47860952D01*
X-19885713Y-48480000D02*
X-19980951Y-48527619D01*
X-19980951Y-48527619D02*
X-20171427Y-48527619D01*
X-20171427Y-48527619D02*
X-20266665Y-48480000D01*
X-20266665Y-48480000D02*
X-20314284Y-48384761D01*
X-20314284Y-48384761D02*
X-20314284Y-48003809D01*
X-20314284Y-48003809D02*
X-20266665Y-47908571D01*
X-20266665Y-47908571D02*
X-20171427Y-47860952D01*
X-20171427Y-47860952D02*
X-19980951Y-47860952D01*
X-19980951Y-47860952D02*
X-19885713Y-47908571D01*
X-19885713Y-47908571D02*
X-19838094Y-48003809D01*
X-19838094Y-48003809D02*
X-19838094Y-48099047D01*
X-19838094Y-48099047D02*
X-20314284Y-48194285D01*
X-19409522Y-47860952D02*
X-19409522Y-48527619D01*
X-19409522Y-47956190D02*
X-19361903Y-47908571D01*
X-19361903Y-47908571D02*
X-19266665Y-47860952D01*
X-19266665Y-47860952D02*
X-19123808Y-47860952D01*
X-19123808Y-47860952D02*
X-19028570Y-47908571D01*
X-19028570Y-47908571D02*
X-18980951Y-48003809D01*
X-18980951Y-48003809D02*
X-18980951Y-48527619D01*
X-18647617Y-47860952D02*
X-18266665Y-47860952D01*
X-18504760Y-47527619D02*
X-18504760Y-48384761D01*
X-18504760Y-48384761D02*
X-18457141Y-48480000D01*
X-18457141Y-48480000D02*
X-18361903Y-48527619D01*
X-18361903Y-48527619D02*
X-18266665Y-48527619D01*
X-18171427Y-48622857D02*
X-17409522Y-48622857D01*
X-16695236Y-48527619D02*
X-17171426Y-48527619D01*
X-17171426Y-48527619D02*
X-17171426Y-47527619D01*
X-16361902Y-48003809D02*
X-16028569Y-48003809D01*
X-15885712Y-48527619D02*
X-16361902Y-48527619D01*
X-16361902Y-48527619D02*
X-16361902Y-47527619D01*
X-16361902Y-47527619D02*
X-15885712Y-47527619D01*
X-15457140Y-48527619D02*
X-15457140Y-47527619D01*
X-15457140Y-47527619D02*
X-15219045Y-47527619D01*
X-15219045Y-47527619D02*
X-15076188Y-47575238D01*
X-15076188Y-47575238D02*
X-14980950Y-47670476D01*
X-14980950Y-47670476D02*
X-14933331Y-47765714D01*
X-14933331Y-47765714D02*
X-14885712Y-47956190D01*
X-14885712Y-47956190D02*
X-14885712Y-48099047D01*
X-14885712Y-48099047D02*
X-14933331Y-48289523D01*
X-14933331Y-48289523D02*
X-14980950Y-48384761D01*
X-14980950Y-48384761D02*
X-15076188Y-48480000D01*
X-15076188Y-48480000D02*
X-15219045Y-48527619D01*
X-15219045Y-48527619D02*
X-15457140Y-48527619D01*
X-14695236Y-48622857D02*
X-13933331Y-48622857D01*
X-13742854Y-48480000D02*
X-13647616Y-48527619D01*
X-13647616Y-48527619D02*
X-13457140Y-48527619D01*
X-13457140Y-48527619D02*
X-13361902Y-48480000D01*
X-13361902Y-48480000D02*
X-13314283Y-48384761D01*
X-13314283Y-48384761D02*
X-13314283Y-48337142D01*
X-13314283Y-48337142D02*
X-13361902Y-48241904D01*
X-13361902Y-48241904D02*
X-13457140Y-48194285D01*
X-13457140Y-48194285D02*
X-13599997Y-48194285D01*
X-13599997Y-48194285D02*
X-13695235Y-48146666D01*
X-13695235Y-48146666D02*
X-13742854Y-48051428D01*
X-13742854Y-48051428D02*
X-13742854Y-48003809D01*
X-13742854Y-48003809D02*
X-13695235Y-47908571D01*
X-13695235Y-47908571D02*
X-13599997Y-47860952D01*
X-13599997Y-47860952D02*
X-13457140Y-47860952D01*
X-13457140Y-47860952D02*
X-13361902Y-47908571D01*
X-12980949Y-47860952D02*
X-12790473Y-48527619D01*
X-12790473Y-48527619D02*
X-12599997Y-48051428D01*
X-12599997Y-48051428D02*
X-12409521Y-48527619D01*
X-12409521Y-48527619D02*
X-12219045Y-47860952D01*
X-11838092Y-48527619D02*
X-11838092Y-47860952D01*
X-11838092Y-47527619D02*
X-11885711Y-47575238D01*
X-11885711Y-47575238D02*
X-11838092Y-47622857D01*
X-11838092Y-47622857D02*
X-11790473Y-47575238D01*
X-11790473Y-47575238D02*
X-11838092Y-47527619D01*
X-11838092Y-47527619D02*
X-11838092Y-47622857D01*
X-11504759Y-47860952D02*
X-11123807Y-47860952D01*
X-11361902Y-47527619D02*
X-11361902Y-48384761D01*
X-11361902Y-48384761D02*
X-11314283Y-48480000D01*
X-11314283Y-48480000D02*
X-11219045Y-48527619D01*
X-11219045Y-48527619D02*
X-11123807Y-48527619D01*
X-10361902Y-48480000D02*
X-10457140Y-48527619D01*
X-10457140Y-48527619D02*
X-10647616Y-48527619D01*
X-10647616Y-48527619D02*
X-10742854Y-48480000D01*
X-10742854Y-48480000D02*
X-10790473Y-48432380D01*
X-10790473Y-48432380D02*
X-10838092Y-48337142D01*
X-10838092Y-48337142D02*
X-10838092Y-48051428D01*
X-10838092Y-48051428D02*
X-10790473Y-47956190D01*
X-10790473Y-47956190D02*
X-10742854Y-47908571D01*
X-10742854Y-47908571D02*
X-10647616Y-47860952D01*
X-10647616Y-47860952D02*
X-10457140Y-47860952D01*
X-10457140Y-47860952D02*
X-10361902Y-47908571D01*
X-9933330Y-48527619D02*
X-9933330Y-47527619D01*
X-9504759Y-48527619D02*
X-9504759Y-48003809D01*
X-9504759Y-48003809D02*
X-9552378Y-47908571D01*
X-9552378Y-47908571D02*
X-9647616Y-47860952D01*
X-9647616Y-47860952D02*
X-9790473Y-47860952D01*
X-9790473Y-47860952D02*
X-9885711Y-47908571D01*
X-9885711Y-47908571D02*
X-9933330Y-47956190D01*
D10*
X-49020714Y44470000D02*
X-46735000Y44470000D01*
X42225714Y11413571D02*
X41511428Y11413571D01*
X41511428Y11413571D02*
X41511428Y12913571D01*
X42725714Y12199285D02*
X43225714Y12199285D01*
X43440000Y11413571D02*
X42725714Y11413571D01*
X42725714Y11413571D02*
X42725714Y12913571D01*
X42725714Y12913571D02*
X43440000Y12913571D01*
X44082857Y11413571D02*
X44082857Y12913571D01*
X44082857Y12913571D02*
X44440000Y12913571D01*
X44440000Y12913571D02*
X44654286Y12842142D01*
X44654286Y12842142D02*
X44797143Y12699285D01*
X44797143Y12699285D02*
X44868572Y12556428D01*
X44868572Y12556428D02*
X44940000Y12270714D01*
X44940000Y12270714D02*
X44940000Y12056428D01*
X44940000Y12056428D02*
X44868572Y11770714D01*
X44868572Y11770714D02*
X44797143Y11627857D01*
X44797143Y11627857D02*
X44654286Y11485000D01*
X44654286Y11485000D02*
X44440000Y11413571D01*
X44440000Y11413571D02*
X44082857Y11413571D01*
X40332857Y9126428D02*
X40261429Y9055000D01*
X40261429Y9055000D02*
X40047143Y8983571D01*
X40047143Y8983571D02*
X39904286Y8983571D01*
X39904286Y8983571D02*
X39690000Y9055000D01*
X39690000Y9055000D02*
X39547143Y9197857D01*
X39547143Y9197857D02*
X39475714Y9340714D01*
X39475714Y9340714D02*
X39404286Y9626428D01*
X39404286Y9626428D02*
X39404286Y9840714D01*
X39404286Y9840714D02*
X39475714Y10126428D01*
X39475714Y10126428D02*
X39547143Y10269285D01*
X39547143Y10269285D02*
X39690000Y10412142D01*
X39690000Y10412142D02*
X39904286Y10483571D01*
X39904286Y10483571D02*
X40047143Y10483571D01*
X40047143Y10483571D02*
X40261429Y10412142D01*
X40261429Y10412142D02*
X40332857Y10340714D01*
X41190000Y8983571D02*
X41047143Y9055000D01*
X41047143Y9055000D02*
X40975714Y9126428D01*
X40975714Y9126428D02*
X40904286Y9269285D01*
X40904286Y9269285D02*
X40904286Y9697857D01*
X40904286Y9697857D02*
X40975714Y9840714D01*
X40975714Y9840714D02*
X41047143Y9912142D01*
X41047143Y9912142D02*
X41190000Y9983571D01*
X41190000Y9983571D02*
X41404286Y9983571D01*
X41404286Y9983571D02*
X41547143Y9912142D01*
X41547143Y9912142D02*
X41618572Y9840714D01*
X41618572Y9840714D02*
X41690000Y9697857D01*
X41690000Y9697857D02*
X41690000Y9269285D01*
X41690000Y9269285D02*
X41618572Y9126428D01*
X41618572Y9126428D02*
X41547143Y9055000D01*
X41547143Y9055000D02*
X41404286Y8983571D01*
X41404286Y8983571D02*
X41190000Y8983571D01*
X42332857Y9983571D02*
X42332857Y8983571D01*
X42332857Y9840714D02*
X42404286Y9912142D01*
X42404286Y9912142D02*
X42547143Y9983571D01*
X42547143Y9983571D02*
X42761429Y9983571D01*
X42761429Y9983571D02*
X42904286Y9912142D01*
X42904286Y9912142D02*
X42975715Y9769285D01*
X42975715Y9769285D02*
X42975715Y8983571D01*
X43475715Y9983571D02*
X44047143Y9983571D01*
X43690000Y10483571D02*
X43690000Y9197857D01*
X43690000Y9197857D02*
X43761429Y9055000D01*
X43761429Y9055000D02*
X43904286Y8983571D01*
X43904286Y8983571D02*
X44047143Y8983571D01*
X44547143Y8983571D02*
X44547143Y9983571D01*
X44547143Y9697857D02*
X44618572Y9840714D01*
X44618572Y9840714D02*
X44690001Y9912142D01*
X44690001Y9912142D02*
X44832858Y9983571D01*
X44832858Y9983571D02*
X44975715Y9983571D01*
X45690000Y8983571D02*
X45547143Y9055000D01*
X45547143Y9055000D02*
X45475714Y9126428D01*
X45475714Y9126428D02*
X45404286Y9269285D01*
X45404286Y9269285D02*
X45404286Y9697857D01*
X45404286Y9697857D02*
X45475714Y9840714D01*
X45475714Y9840714D02*
X45547143Y9912142D01*
X45547143Y9912142D02*
X45690000Y9983571D01*
X45690000Y9983571D02*
X45904286Y9983571D01*
X45904286Y9983571D02*
X46047143Y9912142D01*
X46047143Y9912142D02*
X46118572Y9840714D01*
X46118572Y9840714D02*
X46190000Y9697857D01*
X46190000Y9697857D02*
X46190000Y9269285D01*
X46190000Y9269285D02*
X46118572Y9126428D01*
X46118572Y9126428D02*
X46047143Y9055000D01*
X46047143Y9055000D02*
X45904286Y8983571D01*
X45904286Y8983571D02*
X45690000Y8983571D01*
X47047143Y8983571D02*
X46904286Y9055000D01*
X46904286Y9055000D02*
X46832857Y9197857D01*
X46832857Y9197857D02*
X46832857Y10483571D01*
X-49020714Y37820000D02*
X-46735000Y37820000D01*
X20641428Y47983571D02*
X19927142Y47983571D01*
X19927142Y47983571D02*
X19927142Y49483571D01*
X21141428Y48769285D02*
X21641428Y48769285D01*
X21855714Y47983571D02*
X21141428Y47983571D01*
X21141428Y47983571D02*
X21141428Y49483571D01*
X21141428Y49483571D02*
X21855714Y49483571D01*
X22498571Y47983571D02*
X22498571Y49483571D01*
X22498571Y49483571D02*
X22855714Y49483571D01*
X22855714Y49483571D02*
X23070000Y49412142D01*
X23070000Y49412142D02*
X23212857Y49269285D01*
X23212857Y49269285D02*
X23284286Y49126428D01*
X23284286Y49126428D02*
X23355714Y48840714D01*
X23355714Y48840714D02*
X23355714Y48626428D01*
X23355714Y48626428D02*
X23284286Y48340714D01*
X23284286Y48340714D02*
X23212857Y48197857D01*
X23212857Y48197857D02*
X23070000Y48055000D01*
X23070000Y48055000D02*
X22855714Y47983571D01*
X22855714Y47983571D02*
X22498571Y47983571D01*
X25070000Y48983571D02*
X26141428Y48983571D01*
X25498571Y49626428D02*
X25070000Y47697857D01*
X25998571Y48340714D02*
X24927143Y48340714D01*
X25570000Y47697857D02*
X25998571Y49626428D01*
X27427143Y47983571D02*
X26570000Y47983571D01*
X26998571Y47983571D02*
X26998571Y49483571D01*
X26998571Y49483571D02*
X26855714Y49269285D01*
X26855714Y49269285D02*
X26712857Y49126428D01*
X26712857Y49126428D02*
X26570000Y49055000D01*
X18416190Y-4693333D02*
X19940000Y-4693333D01*
X19178095Y-5455238D02*
X19178095Y-3931428D01*
X26987620Y-4693333D02*
X28511430Y-4693333D01*
X46035714Y23065095D02*
X47107142Y23065095D01*
X46464285Y23742238D02*
X46035714Y21710809D01*
X46964285Y22387952D02*
X45892857Y22387952D01*
X46535714Y21710809D02*
X46964285Y23742238D01*
X48392857Y22011761D02*
X47535714Y22011761D01*
X47964285Y22011761D02*
X47964285Y23591761D01*
X47964285Y23591761D02*
X47821428Y23366047D01*
X47821428Y23366047D02*
X47678571Y23215571D01*
X47678571Y23215571D02*
X47535714Y23140333D01*
X46035714Y20505495D02*
X47107142Y20505495D01*
X46464285Y21182638D02*
X46035714Y19151209D01*
X46964285Y19828352D02*
X45892857Y19828352D01*
X46535714Y19151209D02*
X46964285Y21182638D01*
X47535714Y20881685D02*
X47607142Y20956923D01*
X47607142Y20956923D02*
X47750000Y21032161D01*
X47750000Y21032161D02*
X48107142Y21032161D01*
X48107142Y21032161D02*
X48250000Y20956923D01*
X48250000Y20956923D02*
X48321428Y20881685D01*
X48321428Y20881685D02*
X48392857Y20731209D01*
X48392857Y20731209D02*
X48392857Y20580733D01*
X48392857Y20580733D02*
X48321428Y20355019D01*
X48321428Y20355019D02*
X47464285Y19452161D01*
X47464285Y19452161D02*
X48392857Y19452161D01*
X46892857Y18397323D02*
X46750000Y18472561D01*
X46750000Y18472561D02*
X46535714Y18472561D01*
X46535714Y18472561D02*
X46321428Y18397323D01*
X46321428Y18397323D02*
X46178571Y18246847D01*
X46178571Y18246847D02*
X46107142Y18096371D01*
X46107142Y18096371D02*
X46035714Y17795419D01*
X46035714Y17795419D02*
X46035714Y17569704D01*
X46035714Y17569704D02*
X46107142Y17268752D01*
X46107142Y17268752D02*
X46178571Y17118276D01*
X46178571Y17118276D02*
X46321428Y16967800D01*
X46321428Y16967800D02*
X46535714Y16892561D01*
X46535714Y16892561D02*
X46678571Y16892561D01*
X46678571Y16892561D02*
X46892857Y16967800D01*
X46892857Y16967800D02*
X46964285Y17043038D01*
X46964285Y17043038D02*
X46964285Y17569704D01*
X46964285Y17569704D02*
X46678571Y17569704D01*
X47607142Y17945895D02*
X47607142Y16892561D01*
X47607142Y17795419D02*
X47678571Y17870657D01*
X47678571Y17870657D02*
X47821428Y17945895D01*
X47821428Y17945895D02*
X48035714Y17945895D01*
X48035714Y17945895D02*
X48178571Y17870657D01*
X48178571Y17870657D02*
X48250000Y17720180D01*
X48250000Y17720180D02*
X48250000Y16892561D01*
X49607143Y16892561D02*
X49607143Y18472561D01*
X49607143Y16967800D02*
X49464285Y16892561D01*
X49464285Y16892561D02*
X49178571Y16892561D01*
X49178571Y16892561D02*
X49035714Y16967800D01*
X49035714Y16967800D02*
X48964285Y17043038D01*
X48964285Y17043038D02*
X48892857Y17193514D01*
X48892857Y17193514D02*
X48892857Y17644942D01*
X48892857Y17644942D02*
X48964285Y17795419D01*
X48964285Y17795419D02*
X49035714Y17870657D01*
X49035714Y17870657D02*
X49178571Y17945895D01*
X49178571Y17945895D02*
X49464285Y17945895D01*
X49464285Y17945895D02*
X49607143Y17870657D01*
X46035714Y15386295D02*
X47107142Y15386295D01*
X46464285Y16063438D02*
X46035714Y14032009D01*
X46964285Y14709152D02*
X45892857Y14709152D01*
X46535714Y14032009D02*
X46964285Y16063438D01*
X47464285Y15912961D02*
X48392857Y15912961D01*
X48392857Y15912961D02*
X47892857Y15311057D01*
X47892857Y15311057D02*
X48107142Y15311057D01*
X48107142Y15311057D02*
X48250000Y15235819D01*
X48250000Y15235819D02*
X48321428Y15160580D01*
X48321428Y15160580D02*
X48392857Y15010104D01*
X48392857Y15010104D02*
X48392857Y14633914D01*
X48392857Y14633914D02*
X48321428Y14483438D01*
X48321428Y14483438D02*
X48250000Y14408200D01*
X48250000Y14408200D02*
X48107142Y14332961D01*
X48107142Y14332961D02*
X47678571Y14332961D01*
X47678571Y14332961D02*
X47535714Y14408200D01*
X47535714Y14408200D02*
X47464285Y14483438D01*
X20411428Y3943571D02*
X19697142Y3943571D01*
X19697142Y3943571D02*
X19697142Y5443571D01*
X20911428Y4729285D02*
X21411428Y4729285D01*
X21625714Y3943571D02*
X20911428Y3943571D01*
X20911428Y3943571D02*
X20911428Y5443571D01*
X20911428Y5443571D02*
X21625714Y5443571D01*
X22268571Y3943571D02*
X22268571Y5443571D01*
X22268571Y5443571D02*
X22625714Y5443571D01*
X22625714Y5443571D02*
X22840000Y5372142D01*
X22840000Y5372142D02*
X22982857Y5229285D01*
X22982857Y5229285D02*
X23054286Y5086428D01*
X23054286Y5086428D02*
X23125714Y4800714D01*
X23125714Y4800714D02*
X23125714Y4586428D01*
X23125714Y4586428D02*
X23054286Y4300714D01*
X23054286Y4300714D02*
X22982857Y4157857D01*
X22982857Y4157857D02*
X22840000Y4015000D01*
X22840000Y4015000D02*
X22625714Y3943571D01*
X22625714Y3943571D02*
X22268571Y3943571D01*
X24840000Y4943571D02*
X25911428Y4943571D01*
X25268571Y5586428D02*
X24840000Y3657857D01*
X25768571Y4300714D02*
X24697143Y4300714D01*
X25340000Y3657857D02*
X25768571Y5586428D01*
X26340000Y5300714D02*
X26411428Y5372142D01*
X26411428Y5372142D02*
X26554286Y5443571D01*
X26554286Y5443571D02*
X26911428Y5443571D01*
X26911428Y5443571D02*
X27054286Y5372142D01*
X27054286Y5372142D02*
X27125714Y5300714D01*
X27125714Y5300714D02*
X27197143Y5157857D01*
X27197143Y5157857D02*
X27197143Y5015000D01*
X27197143Y5015000D02*
X27125714Y4800714D01*
X27125714Y4800714D02*
X26268571Y3943571D01*
X26268571Y3943571D02*
X27197143Y3943571D01*
X18646190Y39346666D02*
X20170000Y39346666D01*
X19408095Y38584761D02*
X19408095Y40108571D01*
X27217620Y39346666D02*
X28741430Y39346666D01*
D11*
X-24718094Y-7332619D02*
X-24718094Y-6332619D01*
X-24718094Y-6808809D02*
X-24146666Y-6808809D01*
X-24146666Y-7332619D02*
X-24146666Y-6332619D01*
X-23718094Y-7285000D02*
X-23575237Y-7332619D01*
X-23575237Y-7332619D02*
X-23337142Y-7332619D01*
X-23337142Y-7332619D02*
X-23241904Y-7285000D01*
X-23241904Y-7285000D02*
X-23194285Y-7237380D01*
X-23194285Y-7237380D02*
X-23146666Y-7142142D01*
X-23146666Y-7142142D02*
X-23146666Y-7046904D01*
X-23146666Y-7046904D02*
X-23194285Y-6951666D01*
X-23194285Y-6951666D02*
X-23241904Y-6904047D01*
X-23241904Y-6904047D02*
X-23337142Y-6856428D01*
X-23337142Y-6856428D02*
X-23527618Y-6808809D01*
X-23527618Y-6808809D02*
X-23622856Y-6761190D01*
X-23622856Y-6761190D02*
X-23670475Y-6713571D01*
X-23670475Y-6713571D02*
X-23718094Y-6618333D01*
X-23718094Y-6618333D02*
X-23718094Y-6523095D01*
X-23718094Y-6523095D02*
X-23670475Y-6427857D01*
X-23670475Y-6427857D02*
X-23622856Y-6380238D01*
X-23622856Y-6380238D02*
X-23527618Y-6332619D01*
X-23527618Y-6332619D02*
X-23289523Y-6332619D01*
X-23289523Y-6332619D02*
X-23146666Y-6380238D01*
X-22765713Y-6427857D02*
X-22718094Y-6380238D01*
X-22718094Y-6380238D02*
X-22622856Y-6332619D01*
X-22622856Y-6332619D02*
X-22384761Y-6332619D01*
X-22384761Y-6332619D02*
X-22289523Y-6380238D01*
X-22289523Y-6380238D02*
X-22241904Y-6427857D01*
X-22241904Y-6427857D02*
X-22194285Y-6523095D01*
X-22194285Y-6523095D02*
X-22194285Y-6618333D01*
X-22194285Y-6618333D02*
X-22241904Y-6761190D01*
X-22241904Y-6761190D02*
X-22813332Y-7332619D01*
X-22813332Y-7332619D02*
X-22194285Y-7332619D01*
X17053333Y39487380D02*
X16720000Y39963571D01*
X16481905Y39487380D02*
X16481905Y40487380D01*
X16481905Y40487380D02*
X16862857Y40487380D01*
X16862857Y40487380D02*
X16958095Y40439761D01*
X16958095Y40439761D02*
X17005714Y40392142D01*
X17005714Y40392142D02*
X17053333Y40296904D01*
X17053333Y40296904D02*
X17053333Y40154047D01*
X17053333Y40154047D02*
X17005714Y40058809D01*
X17005714Y40058809D02*
X16958095Y40011190D01*
X16958095Y40011190D02*
X16862857Y39963571D01*
X16862857Y39963571D02*
X16481905Y39963571D01*
X17958095Y40487380D02*
X17481905Y40487380D01*
X17481905Y40487380D02*
X17434286Y40011190D01*
X17434286Y40011190D02*
X17481905Y40058809D01*
X17481905Y40058809D02*
X17577143Y40106428D01*
X17577143Y40106428D02*
X17815238Y40106428D01*
X17815238Y40106428D02*
X17910476Y40058809D01*
X17910476Y40058809D02*
X17958095Y40011190D01*
X17958095Y40011190D02*
X18005714Y39915952D01*
X18005714Y39915952D02*
X18005714Y39677857D01*
X18005714Y39677857D02*
X17958095Y39582619D01*
X17958095Y39582619D02*
X17910476Y39535000D01*
X17910476Y39535000D02*
X17815238Y39487380D01*
X17815238Y39487380D02*
X17577143Y39487380D01*
X17577143Y39487380D02*
X17481905Y39535000D01*
X17481905Y39535000D02*
X17434286Y39582619D01*
X-48856666Y6752619D02*
X-48904285Y6705000D01*
X-48904285Y6705000D02*
X-49047142Y6657380D01*
X-49047142Y6657380D02*
X-49142380Y6657380D01*
X-49142380Y6657380D02*
X-49285237Y6705000D01*
X-49285237Y6705000D02*
X-49380475Y6800238D01*
X-49380475Y6800238D02*
X-49428094Y6895476D01*
X-49428094Y6895476D02*
X-49475713Y7085952D01*
X-49475713Y7085952D02*
X-49475713Y7228809D01*
X-49475713Y7228809D02*
X-49428094Y7419285D01*
X-49428094Y7419285D02*
X-49380475Y7514523D01*
X-49380475Y7514523D02*
X-49285237Y7609761D01*
X-49285237Y7609761D02*
X-49142380Y7657380D01*
X-49142380Y7657380D02*
X-49047142Y7657380D01*
X-49047142Y7657380D02*
X-48904285Y7609761D01*
X-48904285Y7609761D02*
X-48856666Y7562142D01*
X-48475713Y7562142D02*
X-48428094Y7609761D01*
X-48428094Y7609761D02*
X-48332856Y7657380D01*
X-48332856Y7657380D02*
X-48094761Y7657380D01*
X-48094761Y7657380D02*
X-47999523Y7609761D01*
X-47999523Y7609761D02*
X-47951904Y7562142D01*
X-47951904Y7562142D02*
X-47904285Y7466904D01*
X-47904285Y7466904D02*
X-47904285Y7371666D01*
X-47904285Y7371666D02*
X-47951904Y7228809D01*
X-47951904Y7228809D02*
X-48523332Y6657380D01*
X-48523332Y6657380D02*
X-47904285Y6657380D01*
X17003333Y-4502619D02*
X16670000Y-4026428D01*
X16431905Y-4502619D02*
X16431905Y-3502619D01*
X16431905Y-3502619D02*
X16812857Y-3502619D01*
X16812857Y-3502619D02*
X16908095Y-3550238D01*
X16908095Y-3550238D02*
X16955714Y-3597857D01*
X16955714Y-3597857D02*
X17003333Y-3693095D01*
X17003333Y-3693095D02*
X17003333Y-3835952D01*
X17003333Y-3835952D02*
X16955714Y-3931190D01*
X16955714Y-3931190D02*
X16908095Y-3978809D01*
X16908095Y-3978809D02*
X16812857Y-4026428D01*
X16812857Y-4026428D02*
X16431905Y-4026428D01*
X17479524Y-4502619D02*
X17670000Y-4502619D01*
X17670000Y-4502619D02*
X17765238Y-4455000D01*
X17765238Y-4455000D02*
X17812857Y-4407380D01*
X17812857Y-4407380D02*
X17908095Y-4264523D01*
X17908095Y-4264523D02*
X17955714Y-4074047D01*
X17955714Y-4074047D02*
X17955714Y-3693095D01*
X17955714Y-3693095D02*
X17908095Y-3597857D01*
X17908095Y-3597857D02*
X17860476Y-3550238D01*
X17860476Y-3550238D02*
X17765238Y-3502619D01*
X17765238Y-3502619D02*
X17574762Y-3502619D01*
X17574762Y-3502619D02*
X17479524Y-3550238D01*
X17479524Y-3550238D02*
X17431905Y-3597857D01*
X17431905Y-3597857D02*
X17384286Y-3693095D01*
X17384286Y-3693095D02*
X17384286Y-3931190D01*
X17384286Y-3931190D02*
X17431905Y-4026428D01*
X17431905Y-4026428D02*
X17479524Y-4074047D01*
X17479524Y-4074047D02*
X17574762Y-4121666D01*
X17574762Y-4121666D02*
X17765238Y-4121666D01*
X17765238Y-4121666D02*
X17860476Y-4074047D01*
X17860476Y-4074047D02*
X17908095Y-4026428D01*
X17908095Y-4026428D02*
X17955714Y-3931190D01*
X17053333Y3517380D02*
X16720000Y3993571D01*
X16481905Y3517380D02*
X16481905Y4517380D01*
X16481905Y4517380D02*
X16862857Y4517380D01*
X16862857Y4517380D02*
X16958095Y4469761D01*
X16958095Y4469761D02*
X17005714Y4422142D01*
X17005714Y4422142D02*
X17053333Y4326904D01*
X17053333Y4326904D02*
X17053333Y4184047D01*
X17053333Y4184047D02*
X17005714Y4088809D01*
X17005714Y4088809D02*
X16958095Y4041190D01*
X16958095Y4041190D02*
X16862857Y3993571D01*
X16862857Y3993571D02*
X16481905Y3993571D01*
X17624762Y4088809D02*
X17529524Y4136428D01*
X17529524Y4136428D02*
X17481905Y4184047D01*
X17481905Y4184047D02*
X17434286Y4279285D01*
X17434286Y4279285D02*
X17434286Y4326904D01*
X17434286Y4326904D02*
X17481905Y4422142D01*
X17481905Y4422142D02*
X17529524Y4469761D01*
X17529524Y4469761D02*
X17624762Y4517380D01*
X17624762Y4517380D02*
X17815238Y4517380D01*
X17815238Y4517380D02*
X17910476Y4469761D01*
X17910476Y4469761D02*
X17958095Y4422142D01*
X17958095Y4422142D02*
X18005714Y4326904D01*
X18005714Y4326904D02*
X18005714Y4279285D01*
X18005714Y4279285D02*
X17958095Y4184047D01*
X17958095Y4184047D02*
X17910476Y4136428D01*
X17910476Y4136428D02*
X17815238Y4088809D01*
X17815238Y4088809D02*
X17624762Y4088809D01*
X17624762Y4088809D02*
X17529524Y4041190D01*
X17529524Y4041190D02*
X17481905Y3993571D01*
X17481905Y3993571D02*
X17434286Y3898333D01*
X17434286Y3898333D02*
X17434286Y3707857D01*
X17434286Y3707857D02*
X17481905Y3612619D01*
X17481905Y3612619D02*
X17529524Y3565000D01*
X17529524Y3565000D02*
X17624762Y3517380D01*
X17624762Y3517380D02*
X17815238Y3517380D01*
X17815238Y3517380D02*
X17910476Y3565000D01*
X17910476Y3565000D02*
X17958095Y3612619D01*
X17958095Y3612619D02*
X18005714Y3707857D01*
X18005714Y3707857D02*
X18005714Y3898333D01*
X18005714Y3898333D02*
X17958095Y3993571D01*
X17958095Y3993571D02*
X17910476Y4041190D01*
X17910476Y4041190D02*
X17815238Y4088809D01*
X-16860476Y40937619D02*
X-16908095Y40890000D01*
X-16908095Y40890000D02*
X-17050952Y40842380D01*
X-17050952Y40842380D02*
X-17146190Y40842380D01*
X-17146190Y40842380D02*
X-17289047Y40890000D01*
X-17289047Y40890000D02*
X-17384285Y40985238D01*
X-17384285Y40985238D02*
X-17431904Y41080476D01*
X-17431904Y41080476D02*
X-17479523Y41270952D01*
X-17479523Y41270952D02*
X-17479523Y41413809D01*
X-17479523Y41413809D02*
X-17431904Y41604285D01*
X-17431904Y41604285D02*
X-17384285Y41699523D01*
X-17384285Y41699523D02*
X-17289047Y41794761D01*
X-17289047Y41794761D02*
X-17146190Y41842380D01*
X-17146190Y41842380D02*
X-17050952Y41842380D01*
X-17050952Y41842380D02*
X-16908095Y41794761D01*
X-16908095Y41794761D02*
X-16860476Y41747142D01*
X-15860476Y40937619D02*
X-15908095Y40890000D01*
X-15908095Y40890000D02*
X-16050952Y40842380D01*
X-16050952Y40842380D02*
X-16146190Y40842380D01*
X-16146190Y40842380D02*
X-16289047Y40890000D01*
X-16289047Y40890000D02*
X-16384285Y40985238D01*
X-16384285Y40985238D02*
X-16431904Y41080476D01*
X-16431904Y41080476D02*
X-16479523Y41270952D01*
X-16479523Y41270952D02*
X-16479523Y41413809D01*
X-16479523Y41413809D02*
X-16431904Y41604285D01*
X-16431904Y41604285D02*
X-16384285Y41699523D01*
X-16384285Y41699523D02*
X-16289047Y41794761D01*
X-16289047Y41794761D02*
X-16146190Y41842380D01*
X-16146190Y41842380D02*
X-16050952Y41842380D01*
X-16050952Y41842380D02*
X-15908095Y41794761D01*
X-15908095Y41794761D02*
X-15860476Y41747142D01*
X-17250476Y38767619D02*
X-17298095Y38720000D01*
X-17298095Y38720000D02*
X-17440952Y38672380D01*
X-17440952Y38672380D02*
X-17536190Y38672380D01*
X-17536190Y38672380D02*
X-17679047Y38720000D01*
X-17679047Y38720000D02*
X-17774285Y38815238D01*
X-17774285Y38815238D02*
X-17821904Y38910476D01*
X-17821904Y38910476D02*
X-17869523Y39100952D01*
X-17869523Y39100952D02*
X-17869523Y39243809D01*
X-17869523Y39243809D02*
X-17821904Y39434285D01*
X-17821904Y39434285D02*
X-17774285Y39529523D01*
X-17774285Y39529523D02*
X-17679047Y39624761D01*
X-17679047Y39624761D02*
X-17536190Y39672380D01*
X-17536190Y39672380D02*
X-17440952Y39672380D01*
X-17440952Y39672380D02*
X-17298095Y39624761D01*
X-17298095Y39624761D02*
X-17250476Y39577142D01*
X-16250476Y38767619D02*
X-16298095Y38720000D01*
X-16298095Y38720000D02*
X-16440952Y38672380D01*
X-16440952Y38672380D02*
X-16536190Y38672380D01*
X-16536190Y38672380D02*
X-16679047Y38720000D01*
X-16679047Y38720000D02*
X-16774285Y38815238D01*
X-16774285Y38815238D02*
X-16821904Y38910476D01*
X-16821904Y38910476D02*
X-16869523Y39100952D01*
X-16869523Y39100952D02*
X-16869523Y39243809D01*
X-16869523Y39243809D02*
X-16821904Y39434285D01*
X-16821904Y39434285D02*
X-16774285Y39529523D01*
X-16774285Y39529523D02*
X-16679047Y39624761D01*
X-16679047Y39624761D02*
X-16536190Y39672380D01*
X-16536190Y39672380D02*
X-16440952Y39672380D01*
X-16440952Y39672380D02*
X-16298095Y39624761D01*
X-16298095Y39624761D02*
X-16250476Y39577142D01*
X-15821904Y39053333D02*
X-15060000Y39053333D01*
X-14250476Y39196190D02*
X-14107619Y39148571D01*
X-14107619Y39148571D02*
X-14060000Y39100952D01*
X-14060000Y39100952D02*
X-14012381Y39005714D01*
X-14012381Y39005714D02*
X-14012381Y38862857D01*
X-14012381Y38862857D02*
X-14060000Y38767619D01*
X-14060000Y38767619D02*
X-14107619Y38720000D01*
X-14107619Y38720000D02*
X-14202857Y38672380D01*
X-14202857Y38672380D02*
X-14583809Y38672380D01*
X-14583809Y38672380D02*
X-14583809Y39672380D01*
X-14583809Y39672380D02*
X-14250476Y39672380D01*
X-14250476Y39672380D02*
X-14155238Y39624761D01*
X-14155238Y39624761D02*
X-14107619Y39577142D01*
X-14107619Y39577142D02*
X-14060000Y39481904D01*
X-14060000Y39481904D02*
X-14060000Y39386666D01*
X-14060000Y39386666D02*
X-14107619Y39291428D01*
X-14107619Y39291428D02*
X-14155238Y39243809D01*
X-14155238Y39243809D02*
X-14250476Y39196190D01*
X-14250476Y39196190D02*
X-14583809Y39196190D01*
X-13393333Y39148571D02*
X-13393333Y38672380D01*
X-13726666Y39672380D02*
X-13393333Y39148571D01*
X-13393333Y39148571D02*
X-13060000Y39672380D01*
X-12726666Y39053333D02*
X-11964762Y39053333D01*
X-11536190Y38720000D02*
X-11393333Y38672380D01*
X-11393333Y38672380D02*
X-11155238Y38672380D01*
X-11155238Y38672380D02*
X-11060000Y38720000D01*
X-11060000Y38720000D02*
X-11012381Y38767619D01*
X-11012381Y38767619D02*
X-10964762Y38862857D01*
X-10964762Y38862857D02*
X-10964762Y38958095D01*
X-10964762Y38958095D02*
X-11012381Y39053333D01*
X-11012381Y39053333D02*
X-11060000Y39100952D01*
X-11060000Y39100952D02*
X-11155238Y39148571D01*
X-11155238Y39148571D02*
X-11345714Y39196190D01*
X-11345714Y39196190D02*
X-11440952Y39243809D01*
X-11440952Y39243809D02*
X-11488571Y39291428D01*
X-11488571Y39291428D02*
X-11536190Y39386666D01*
X-11536190Y39386666D02*
X-11536190Y39481904D01*
X-11536190Y39481904D02*
X-11488571Y39577142D01*
X-11488571Y39577142D02*
X-11440952Y39624761D01*
X-11440952Y39624761D02*
X-11345714Y39672380D01*
X-11345714Y39672380D02*
X-11107619Y39672380D01*
X-11107619Y39672380D02*
X-10964762Y39624761D01*
X-10583809Y38958095D02*
X-10107619Y38958095D01*
X-10679047Y38672380D02*
X-10345714Y39672380D01*
X-10345714Y39672380D02*
X-10012381Y38672380D01*
X-3142857Y-41442619D02*
X-3476190Y-40966428D01*
X-3714285Y-41442619D02*
X-3714285Y-40442619D01*
X-3714285Y-40442619D02*
X-3333333Y-40442619D01*
X-3333333Y-40442619D02*
X-3238095Y-40490238D01*
X-3238095Y-40490238D02*
X-3190476Y-40537857D01*
X-3190476Y-40537857D02*
X-3142857Y-40633095D01*
X-3142857Y-40633095D02*
X-3142857Y-40775952D01*
X-3142857Y-40775952D02*
X-3190476Y-40871190D01*
X-3190476Y-40871190D02*
X-3238095Y-40918809D01*
X-3238095Y-40918809D02*
X-3333333Y-40966428D01*
X-3333333Y-40966428D02*
X-3714285Y-40966428D01*
X-2190476Y-41442619D02*
X-2761904Y-41442619D01*
X-2476190Y-41442619D02*
X-2476190Y-40442619D01*
X-2476190Y-40442619D02*
X-2571428Y-40585476D01*
X-2571428Y-40585476D02*
X-2666666Y-40680714D01*
X-2666666Y-40680714D02*
X-2761904Y-40728333D01*
X-1571428Y-40442619D02*
X-1476190Y-40442619D01*
X-1476190Y-40442619D02*
X-1380952Y-40490238D01*
X-1380952Y-40490238D02*
X-1333333Y-40537857D01*
X-1333333Y-40537857D02*
X-1285714Y-40633095D01*
X-1285714Y-40633095D02*
X-1238095Y-40823571D01*
X-1238095Y-40823571D02*
X-1238095Y-41061666D01*
X-1238095Y-41061666D02*
X-1285714Y-41252142D01*
X-1285714Y-41252142D02*
X-1333333Y-41347380D01*
X-1333333Y-41347380D02*
X-1380952Y-41395000D01*
X-1380952Y-41395000D02*
X-1476190Y-41442619D01*
X-1476190Y-41442619D02*
X-1571428Y-41442619D01*
X-1571428Y-41442619D02*
X-1666666Y-41395000D01*
X-1666666Y-41395000D02*
X-1714285Y-41347380D01*
X-1714285Y-41347380D02*
X-1761904Y-41252142D01*
X-1761904Y-41252142D02*
X-1809523Y-41061666D01*
X-1809523Y-41061666D02*
X-1809523Y-40823571D01*
X-1809523Y-40823571D02*
X-1761904Y-40633095D01*
X-1761904Y-40633095D02*
X-1714285Y-40537857D01*
X-1714285Y-40537857D02*
X-1666666Y-40490238D01*
X-1666666Y-40490238D02*
X-1571428Y-40442619D01*
X17866666Y537380D02*
X17866666Y-176904D01*
X17866666Y-176904D02*
X17819047Y-319761D01*
X17819047Y-319761D02*
X17723809Y-415000D01*
X17723809Y-415000D02*
X17580952Y-462619D01*
X17580952Y-462619D02*
X17485714Y-462619D01*
X18485714Y108809D02*
X18390476Y156428D01*
X18390476Y156428D02*
X18342857Y204047D01*
X18342857Y204047D02*
X18295238Y299285D01*
X18295238Y299285D02*
X18295238Y346904D01*
X18295238Y346904D02*
X18342857Y442142D01*
X18342857Y442142D02*
X18390476Y489761D01*
X18390476Y489761D02*
X18485714Y537380D01*
X18485714Y537380D02*
X18676190Y537380D01*
X18676190Y537380D02*
X18771428Y489761D01*
X18771428Y489761D02*
X18819047Y442142D01*
X18819047Y442142D02*
X18866666Y346904D01*
X18866666Y346904D02*
X18866666Y299285D01*
X18866666Y299285D02*
X18819047Y204047D01*
X18819047Y204047D02*
X18771428Y156428D01*
X18771428Y156428D02*
X18676190Y108809D01*
X18676190Y108809D02*
X18485714Y108809D01*
X18485714Y108809D02*
X18390476Y61190D01*
X18390476Y61190D02*
X18342857Y13571D01*
X18342857Y13571D02*
X18295238Y-81666D01*
X18295238Y-81666D02*
X18295238Y-272142D01*
X18295238Y-272142D02*
X18342857Y-367380D01*
X18342857Y-367380D02*
X18390476Y-415000D01*
X18390476Y-415000D02*
X18485714Y-462619D01*
X18485714Y-462619D02*
X18676190Y-462619D01*
X18676190Y-462619D02*
X18771428Y-415000D01*
X18771428Y-415000D02*
X18819047Y-367380D01*
X18819047Y-367380D02*
X18866666Y-272142D01*
X18866666Y-272142D02*
X18866666Y-81666D01*
X18866666Y-81666D02*
X18819047Y13571D01*
X18819047Y13571D02*
X18771428Y61190D01*
X18771428Y61190D02*
X18676190Y108809D01*
X36161905Y-7432619D02*
X36161905Y-6432619D01*
X36161905Y-6908809D02*
X36733333Y-6908809D01*
X36733333Y-7432619D02*
X36733333Y-6432619D01*
X37161905Y-7385000D02*
X37304762Y-7432619D01*
X37304762Y-7432619D02*
X37542857Y-7432619D01*
X37542857Y-7432619D02*
X37638095Y-7385000D01*
X37638095Y-7385000D02*
X37685714Y-7337380D01*
X37685714Y-7337380D02*
X37733333Y-7242142D01*
X37733333Y-7242142D02*
X37733333Y-7146904D01*
X37733333Y-7146904D02*
X37685714Y-7051666D01*
X37685714Y-7051666D02*
X37638095Y-7004047D01*
X37638095Y-7004047D02*
X37542857Y-6956428D01*
X37542857Y-6956428D02*
X37352381Y-6908809D01*
X37352381Y-6908809D02*
X37257143Y-6861190D01*
X37257143Y-6861190D02*
X37209524Y-6813571D01*
X37209524Y-6813571D02*
X37161905Y-6718333D01*
X37161905Y-6718333D02*
X37161905Y-6623095D01*
X37161905Y-6623095D02*
X37209524Y-6527857D01*
X37209524Y-6527857D02*
X37257143Y-6480238D01*
X37257143Y-6480238D02*
X37352381Y-6432619D01*
X37352381Y-6432619D02*
X37590476Y-6432619D01*
X37590476Y-6432619D02*
X37733333Y-6480238D01*
X38590476Y-6765952D02*
X38590476Y-7432619D01*
X38352381Y-6385000D02*
X38114286Y-7099285D01*
X38114286Y-7099285D02*
X38733333Y-7099285D01*
X24916666Y487380D02*
X24916666Y-226904D01*
X24916666Y-226904D02*
X24869047Y-369761D01*
X24869047Y-369761D02*
X24773809Y-465000D01*
X24773809Y-465000D02*
X24630952Y-512619D01*
X24630952Y-512619D02*
X24535714Y-512619D01*
X25440476Y-512619D02*
X25630952Y-512619D01*
X25630952Y-512619D02*
X25726190Y-465000D01*
X25726190Y-465000D02*
X25773809Y-417380D01*
X25773809Y-417380D02*
X25869047Y-274523D01*
X25869047Y-274523D02*
X25916666Y-84047D01*
X25916666Y-84047D02*
X25916666Y296904D01*
X25916666Y296904D02*
X25869047Y392142D01*
X25869047Y392142D02*
X25821428Y439761D01*
X25821428Y439761D02*
X25726190Y487380D01*
X25726190Y487380D02*
X25535714Y487380D01*
X25535714Y487380D02*
X25440476Y439761D01*
X25440476Y439761D02*
X25392857Y392142D01*
X25392857Y392142D02*
X25345238Y296904D01*
X25345238Y296904D02*
X25345238Y58809D01*
X25345238Y58809D02*
X25392857Y-36428D01*
X25392857Y-36428D02*
X25440476Y-84047D01*
X25440476Y-84047D02*
X25535714Y-131666D01*
X25535714Y-131666D02*
X25726190Y-131666D01*
X25726190Y-131666D02*
X25821428Y-84047D01*
X25821428Y-84047D02*
X25869047Y-36428D01*
X25869047Y-36428D02*
X25916666Y58809D01*
X-33978333Y49477380D02*
X-33978333Y48763095D01*
X-33978333Y48763095D02*
X-34025952Y48620238D01*
X-34025952Y48620238D02*
X-34121190Y48525000D01*
X-34121190Y48525000D02*
X-34264047Y48477380D01*
X-34264047Y48477380D02*
X-34359285Y48477380D01*
X-32978333Y48477380D02*
X-33549761Y48477380D01*
X-33264047Y48477380D02*
X-33264047Y49477380D01*
X-33264047Y49477380D02*
X-33359285Y49334523D01*
X-33359285Y49334523D02*
X-33454523Y49239285D01*
X-33454523Y49239285D02*
X-33549761Y49191666D01*
X-48886666Y-13077380D02*
X-48934285Y-13125000D01*
X-48934285Y-13125000D02*
X-49077142Y-13172619D01*
X-49077142Y-13172619D02*
X-49172380Y-13172619D01*
X-49172380Y-13172619D02*
X-49315237Y-13125000D01*
X-49315237Y-13125000D02*
X-49410475Y-13029761D01*
X-49410475Y-13029761D02*
X-49458094Y-12934523D01*
X-49458094Y-12934523D02*
X-49505713Y-12744047D01*
X-49505713Y-12744047D02*
X-49505713Y-12601190D01*
X-49505713Y-12601190D02*
X-49458094Y-12410714D01*
X-49458094Y-12410714D02*
X-49410475Y-12315476D01*
X-49410475Y-12315476D02*
X-49315237Y-12220238D01*
X-49315237Y-12220238D02*
X-49172380Y-12172619D01*
X-49172380Y-12172619D02*
X-49077142Y-12172619D01*
X-49077142Y-12172619D02*
X-48934285Y-12220238D01*
X-48934285Y-12220238D02*
X-48886666Y-12267857D01*
X-48553332Y-12172619D02*
X-47934285Y-12172619D01*
X-47934285Y-12172619D02*
X-48267618Y-12553571D01*
X-48267618Y-12553571D02*
X-48124761Y-12553571D01*
X-48124761Y-12553571D02*
X-48029523Y-12601190D01*
X-48029523Y-12601190D02*
X-47981904Y-12648809D01*
X-47981904Y-12648809D02*
X-47934285Y-12744047D01*
X-47934285Y-12744047D02*
X-47934285Y-12982142D01*
X-47934285Y-12982142D02*
X-47981904Y-13077380D01*
X-47981904Y-13077380D02*
X-48029523Y-13125000D01*
X-48029523Y-13125000D02*
X-48124761Y-13172619D01*
X-48124761Y-13172619D02*
X-48410475Y-13172619D01*
X-48410475Y-13172619D02*
X-48505713Y-13125000D01*
X-48505713Y-13125000D02*
X-48553332Y-13077380D01*
X24766666Y44612380D02*
X24766666Y43898095D01*
X24766666Y43898095D02*
X24719047Y43755238D01*
X24719047Y43755238D02*
X24623809Y43660000D01*
X24623809Y43660000D02*
X24480952Y43612380D01*
X24480952Y43612380D02*
X24385714Y43612380D01*
X25147619Y44612380D02*
X25814285Y44612380D01*
X25814285Y44612380D02*
X25385714Y43612380D01*
X-39471666Y45947380D02*
X-39804999Y46423571D01*
X-40043094Y45947380D02*
X-40043094Y46947380D01*
X-40043094Y46947380D02*
X-39662142Y46947380D01*
X-39662142Y46947380D02*
X-39566904Y46899761D01*
X-39566904Y46899761D02*
X-39519285Y46852142D01*
X-39519285Y46852142D02*
X-39471666Y46756904D01*
X-39471666Y46756904D02*
X-39471666Y46614047D01*
X-39471666Y46614047D02*
X-39519285Y46518809D01*
X-39519285Y46518809D02*
X-39566904Y46471190D01*
X-39566904Y46471190D02*
X-39662142Y46423571D01*
X-39662142Y46423571D02*
X-40043094Y46423571D01*
X-38519285Y45947380D02*
X-39090713Y45947380D01*
X-38804999Y45947380D02*
X-38804999Y46947380D01*
X-38804999Y46947380D02*
X-38900237Y46804523D01*
X-38900237Y46804523D02*
X-38995475Y46709285D01*
X-38995475Y46709285D02*
X-39090713Y46661666D01*
X-2216666Y40527380D02*
X-2549999Y41003571D01*
X-2788094Y40527380D02*
X-2788094Y41527380D01*
X-2788094Y41527380D02*
X-2407142Y41527380D01*
X-2407142Y41527380D02*
X-2311904Y41479761D01*
X-2311904Y41479761D02*
X-2264285Y41432142D01*
X-2264285Y41432142D02*
X-2216666Y41336904D01*
X-2216666Y41336904D02*
X-2216666Y41194047D01*
X-2216666Y41194047D02*
X-2264285Y41098809D01*
X-2264285Y41098809D02*
X-2311904Y41051190D01*
X-2311904Y41051190D02*
X-2407142Y41003571D01*
X-2407142Y41003571D02*
X-2788094Y41003571D01*
X-1883332Y41527380D02*
X-1264285Y41527380D01*
X-1264285Y41527380D02*
X-1597618Y41146428D01*
X-1597618Y41146428D02*
X-1454761Y41146428D01*
X-1454761Y41146428D02*
X-1359523Y41098809D01*
X-1359523Y41098809D02*
X-1311904Y41051190D01*
X-1311904Y41051190D02*
X-1264285Y40955952D01*
X-1264285Y40955952D02*
X-1264285Y40717857D01*
X-1264285Y40717857D02*
X-1311904Y40622619D01*
X-1311904Y40622619D02*
X-1359523Y40575000D01*
X-1359523Y40575000D02*
X-1454761Y40527380D01*
X-1454761Y40527380D02*
X-1740475Y40527380D01*
X-1740475Y40527380D02*
X-1835713Y40575000D01*
X-1835713Y40575000D02*
X-1883332Y40622619D01*
X36151905Y36827380D02*
X36151905Y37827380D01*
X36151905Y37351190D02*
X36723333Y37351190D01*
X36723333Y36827380D02*
X36723333Y37827380D01*
X37151905Y36875000D02*
X37294762Y36827380D01*
X37294762Y36827380D02*
X37532857Y36827380D01*
X37532857Y36827380D02*
X37628095Y36875000D01*
X37628095Y36875000D02*
X37675714Y36922619D01*
X37675714Y36922619D02*
X37723333Y37017857D01*
X37723333Y37017857D02*
X37723333Y37113095D01*
X37723333Y37113095D02*
X37675714Y37208333D01*
X37675714Y37208333D02*
X37628095Y37255952D01*
X37628095Y37255952D02*
X37532857Y37303571D01*
X37532857Y37303571D02*
X37342381Y37351190D01*
X37342381Y37351190D02*
X37247143Y37398809D01*
X37247143Y37398809D02*
X37199524Y37446428D01*
X37199524Y37446428D02*
X37151905Y37541666D01*
X37151905Y37541666D02*
X37151905Y37636904D01*
X37151905Y37636904D02*
X37199524Y37732142D01*
X37199524Y37732142D02*
X37247143Y37779761D01*
X37247143Y37779761D02*
X37342381Y37827380D01*
X37342381Y37827380D02*
X37580476Y37827380D01*
X37580476Y37827380D02*
X37723333Y37779761D01*
X38056667Y37827380D02*
X38675714Y37827380D01*
X38675714Y37827380D02*
X38342381Y37446428D01*
X38342381Y37446428D02*
X38485238Y37446428D01*
X38485238Y37446428D02*
X38580476Y37398809D01*
X38580476Y37398809D02*
X38628095Y37351190D01*
X38628095Y37351190D02*
X38675714Y37255952D01*
X38675714Y37255952D02*
X38675714Y37017857D01*
X38675714Y37017857D02*
X38628095Y36922619D01*
X38628095Y36922619D02*
X38580476Y36875000D01*
X38580476Y36875000D02*
X38485238Y36827380D01*
X38485238Y36827380D02*
X38199524Y36827380D01*
X38199524Y36827380D02*
X38104286Y36875000D01*
X38104286Y36875000D02*
X38056667Y36922619D01*
X-24758094Y36777380D02*
X-24758094Y37777380D01*
X-24758094Y37301190D02*
X-24186666Y37301190D01*
X-24186666Y36777380D02*
X-24186666Y37777380D01*
X-23758094Y36825000D02*
X-23615237Y36777380D01*
X-23615237Y36777380D02*
X-23377142Y36777380D01*
X-23377142Y36777380D02*
X-23281904Y36825000D01*
X-23281904Y36825000D02*
X-23234285Y36872619D01*
X-23234285Y36872619D02*
X-23186666Y36967857D01*
X-23186666Y36967857D02*
X-23186666Y37063095D01*
X-23186666Y37063095D02*
X-23234285Y37158333D01*
X-23234285Y37158333D02*
X-23281904Y37205952D01*
X-23281904Y37205952D02*
X-23377142Y37253571D01*
X-23377142Y37253571D02*
X-23567618Y37301190D01*
X-23567618Y37301190D02*
X-23662856Y37348809D01*
X-23662856Y37348809D02*
X-23710475Y37396428D01*
X-23710475Y37396428D02*
X-23758094Y37491666D01*
X-23758094Y37491666D02*
X-23758094Y37586904D01*
X-23758094Y37586904D02*
X-23710475Y37682142D01*
X-23710475Y37682142D02*
X-23662856Y37729761D01*
X-23662856Y37729761D02*
X-23567618Y37777380D01*
X-23567618Y37777380D02*
X-23329523Y37777380D01*
X-23329523Y37777380D02*
X-23186666Y37729761D01*
X-22234285Y36777380D02*
X-22805713Y36777380D01*
X-22519999Y36777380D02*
X-22519999Y37777380D01*
X-22519999Y37777380D02*
X-22615237Y37634523D01*
X-22615237Y37634523D02*
X-22710475Y37539285D01*
X-22710475Y37539285D02*
X-22805713Y37491666D01*
X43091905Y-31182619D02*
X43091905Y-30182619D01*
X43091905Y-30182619D02*
X43330000Y-30182619D01*
X43330000Y-30182619D02*
X43472857Y-30230238D01*
X43472857Y-30230238D02*
X43568095Y-30325476D01*
X43568095Y-30325476D02*
X43615714Y-30420714D01*
X43615714Y-30420714D02*
X43663333Y-30611190D01*
X43663333Y-30611190D02*
X43663333Y-30754047D01*
X43663333Y-30754047D02*
X43615714Y-30944523D01*
X43615714Y-30944523D02*
X43568095Y-31039761D01*
X43568095Y-31039761D02*
X43472857Y-31135000D01*
X43472857Y-31135000D02*
X43330000Y-31182619D01*
X43330000Y-31182619D02*
X43091905Y-31182619D01*
X43996667Y-30182619D02*
X44615714Y-30182619D01*
X44615714Y-30182619D02*
X44282381Y-30563571D01*
X44282381Y-30563571D02*
X44425238Y-30563571D01*
X44425238Y-30563571D02*
X44520476Y-30611190D01*
X44520476Y-30611190D02*
X44568095Y-30658809D01*
X44568095Y-30658809D02*
X44615714Y-30754047D01*
X44615714Y-30754047D02*
X44615714Y-30992142D01*
X44615714Y-30992142D02*
X44568095Y-31087380D01*
X44568095Y-31087380D02*
X44520476Y-31135000D01*
X44520476Y-31135000D02*
X44425238Y-31182619D01*
X44425238Y-31182619D02*
X44139524Y-31182619D01*
X44139524Y-31182619D02*
X44044286Y-31135000D01*
X44044286Y-31135000D02*
X43996667Y-31087380D01*
X30534761Y48362142D02*
X30439523Y48409761D01*
X30439523Y48409761D02*
X30344285Y48505000D01*
X30344285Y48505000D02*
X30201428Y48647857D01*
X30201428Y48647857D02*
X30106190Y48695476D01*
X30106190Y48695476D02*
X30010952Y48695476D01*
X30058571Y48457380D02*
X29963333Y48505000D01*
X29963333Y48505000D02*
X29868095Y48600238D01*
X29868095Y48600238D02*
X29820476Y48790714D01*
X29820476Y48790714D02*
X29820476Y49124047D01*
X29820476Y49124047D02*
X29868095Y49314523D01*
X29868095Y49314523D02*
X29963333Y49409761D01*
X29963333Y49409761D02*
X30058571Y49457380D01*
X30058571Y49457380D02*
X30249047Y49457380D01*
X30249047Y49457380D02*
X30344285Y49409761D01*
X30344285Y49409761D02*
X30439523Y49314523D01*
X30439523Y49314523D02*
X30487142Y49124047D01*
X30487142Y49124047D02*
X30487142Y48790714D01*
X30487142Y48790714D02*
X30439523Y48600238D01*
X30439523Y48600238D02*
X30344285Y48505000D01*
X30344285Y48505000D02*
X30249047Y48457380D01*
X30249047Y48457380D02*
X30058571Y48457380D01*
X31439523Y48457380D02*
X30868095Y48457380D01*
X31153809Y48457380D02*
X31153809Y49457380D01*
X31153809Y49457380D02*
X31058571Y49314523D01*
X31058571Y49314523D02*
X30963333Y49219285D01*
X30963333Y49219285D02*
X30868095Y49171666D01*
X-48836666Y26762619D02*
X-48884285Y26715000D01*
X-48884285Y26715000D02*
X-49027142Y26667380D01*
X-49027142Y26667380D02*
X-49122380Y26667380D01*
X-49122380Y26667380D02*
X-49265237Y26715000D01*
X-49265237Y26715000D02*
X-49360475Y26810238D01*
X-49360475Y26810238D02*
X-49408094Y26905476D01*
X-49408094Y26905476D02*
X-49455713Y27095952D01*
X-49455713Y27095952D02*
X-49455713Y27238809D01*
X-49455713Y27238809D02*
X-49408094Y27429285D01*
X-49408094Y27429285D02*
X-49360475Y27524523D01*
X-49360475Y27524523D02*
X-49265237Y27619761D01*
X-49265237Y27619761D02*
X-49122380Y27667380D01*
X-49122380Y27667380D02*
X-49027142Y27667380D01*
X-49027142Y27667380D02*
X-48884285Y27619761D01*
X-48884285Y27619761D02*
X-48836666Y27572142D01*
X-47884285Y26667380D02*
X-48455713Y26667380D01*
X-48169999Y26667380D02*
X-48169999Y27667380D01*
X-48169999Y27667380D02*
X-48265237Y27524523D01*
X-48265237Y27524523D02*
X-48360475Y27429285D01*
X-48360475Y27429285D02*
X-48455713Y27381666D01*
X-2136666Y2437380D02*
X-2469999Y2913571D01*
X-2708094Y2437380D02*
X-2708094Y3437380D01*
X-2708094Y3437380D02*
X-2327142Y3437380D01*
X-2327142Y3437380D02*
X-2231904Y3389761D01*
X-2231904Y3389761D02*
X-2184285Y3342142D01*
X-2184285Y3342142D02*
X-2136666Y3246904D01*
X-2136666Y3246904D02*
X-2136666Y3104047D01*
X-2136666Y3104047D02*
X-2184285Y3008809D01*
X-2184285Y3008809D02*
X-2231904Y2961190D01*
X-2231904Y2961190D02*
X-2327142Y2913571D01*
X-2327142Y2913571D02*
X-2708094Y2913571D01*
X-1279523Y3437380D02*
X-1469999Y3437380D01*
X-1469999Y3437380D02*
X-1565237Y3389761D01*
X-1565237Y3389761D02*
X-1612856Y3342142D01*
X-1612856Y3342142D02*
X-1708094Y3199285D01*
X-1708094Y3199285D02*
X-1755713Y3008809D01*
X-1755713Y3008809D02*
X-1755713Y2627857D01*
X-1755713Y2627857D02*
X-1708094Y2532619D01*
X-1708094Y2532619D02*
X-1660475Y2485000D01*
X-1660475Y2485000D02*
X-1565237Y2437380D01*
X-1565237Y2437380D02*
X-1374761Y2437380D01*
X-1374761Y2437380D02*
X-1279523Y2485000D01*
X-1279523Y2485000D02*
X-1231904Y2532619D01*
X-1231904Y2532619D02*
X-1184285Y2627857D01*
X-1184285Y2627857D02*
X-1184285Y2865952D01*
X-1184285Y2865952D02*
X-1231904Y2961190D01*
X-1231904Y2961190D02*
X-1279523Y3008809D01*
X-1279523Y3008809D02*
X-1374761Y3056428D01*
X-1374761Y3056428D02*
X-1565237Y3056428D01*
X-1565237Y3056428D02*
X-1660475Y3008809D01*
X-1660475Y3008809D02*
X-1708094Y2961190D01*
X-1708094Y2961190D02*
X-1755713Y2865952D01*
X24410476Y-43442619D02*
X24410476Y-44156904D01*
X24410476Y-44156904D02*
X24362857Y-44299761D01*
X24362857Y-44299761D02*
X24267619Y-44395000D01*
X24267619Y-44395000D02*
X24124762Y-44442619D01*
X24124762Y-44442619D02*
X24029524Y-44442619D01*
X25410476Y-44442619D02*
X24839048Y-44442619D01*
X25124762Y-44442619D02*
X25124762Y-43442619D01*
X25124762Y-43442619D02*
X25029524Y-43585476D01*
X25029524Y-43585476D02*
X24934286Y-43680714D01*
X24934286Y-43680714D02*
X24839048Y-43728333D01*
X26362857Y-44442619D02*
X25791429Y-44442619D01*
X26077143Y-44442619D02*
X26077143Y-43442619D01*
X26077143Y-43442619D02*
X25981905Y-43585476D01*
X25981905Y-43585476D02*
X25886667Y-43680714D01*
X25886667Y-43680714D02*
X25791429Y-43728333D01*
X-33978333Y42877380D02*
X-33978333Y42163095D01*
X-33978333Y42163095D02*
X-34025952Y42020238D01*
X-34025952Y42020238D02*
X-34121190Y41925000D01*
X-34121190Y41925000D02*
X-34264047Y41877380D01*
X-34264047Y41877380D02*
X-34359285Y41877380D01*
X-33549761Y42782142D02*
X-33502142Y42829761D01*
X-33502142Y42829761D02*
X-33406904Y42877380D01*
X-33406904Y42877380D02*
X-33168809Y42877380D01*
X-33168809Y42877380D02*
X-33073571Y42829761D01*
X-33073571Y42829761D02*
X-33025952Y42782142D01*
X-33025952Y42782142D02*
X-32978333Y42686904D01*
X-32978333Y42686904D02*
X-32978333Y42591666D01*
X-32978333Y42591666D02*
X-33025952Y42448809D01*
X-33025952Y42448809D02*
X-33597380Y41877380D01*
X-33597380Y41877380D02*
X-32978333Y41877380D01*
X17340476Y-43497619D02*
X17340476Y-44211904D01*
X17340476Y-44211904D02*
X17292857Y-44354761D01*
X17292857Y-44354761D02*
X17197619Y-44450000D01*
X17197619Y-44450000D02*
X17054762Y-44497619D01*
X17054762Y-44497619D02*
X16959524Y-44497619D01*
X18340476Y-44497619D02*
X17769048Y-44497619D01*
X18054762Y-44497619D02*
X18054762Y-43497619D01*
X18054762Y-43497619D02*
X17959524Y-43640476D01*
X17959524Y-43640476D02*
X17864286Y-43735714D01*
X17864286Y-43735714D02*
X17769048Y-43783333D01*
X18959524Y-43497619D02*
X19054762Y-43497619D01*
X19054762Y-43497619D02*
X19150000Y-43545238D01*
X19150000Y-43545238D02*
X19197619Y-43592857D01*
X19197619Y-43592857D02*
X19245238Y-43688095D01*
X19245238Y-43688095D02*
X19292857Y-43878571D01*
X19292857Y-43878571D02*
X19292857Y-44116666D01*
X19292857Y-44116666D02*
X19245238Y-44307142D01*
X19245238Y-44307142D02*
X19197619Y-44402380D01*
X19197619Y-44402380D02*
X19150000Y-44450000D01*
X19150000Y-44450000D02*
X19054762Y-44497619D01*
X19054762Y-44497619D02*
X18959524Y-44497619D01*
X18959524Y-44497619D02*
X18864286Y-44450000D01*
X18864286Y-44450000D02*
X18816667Y-44402380D01*
X18816667Y-44402380D02*
X18769048Y-44307142D01*
X18769048Y-44307142D02*
X18721429Y-44116666D01*
X18721429Y-44116666D02*
X18721429Y-43878571D01*
X18721429Y-43878571D02*
X18769048Y-43688095D01*
X18769048Y-43688095D02*
X18816667Y-43592857D01*
X18816667Y-43592857D02*
X18864286Y-43545238D01*
X18864286Y-43545238D02*
X18959524Y-43497619D01*
X-48846666Y-32907380D02*
X-48894285Y-32955000D01*
X-48894285Y-32955000D02*
X-49037142Y-33002619D01*
X-49037142Y-33002619D02*
X-49132380Y-33002619D01*
X-49132380Y-33002619D02*
X-49275237Y-32955000D01*
X-49275237Y-32955000D02*
X-49370475Y-32859761D01*
X-49370475Y-32859761D02*
X-49418094Y-32764523D01*
X-49418094Y-32764523D02*
X-49465713Y-32574047D01*
X-49465713Y-32574047D02*
X-49465713Y-32431190D01*
X-49465713Y-32431190D02*
X-49418094Y-32240714D01*
X-49418094Y-32240714D02*
X-49370475Y-32145476D01*
X-49370475Y-32145476D02*
X-49275237Y-32050238D01*
X-49275237Y-32050238D02*
X-49132380Y-32002619D01*
X-49132380Y-32002619D02*
X-49037142Y-32002619D01*
X-49037142Y-32002619D02*
X-48894285Y-32050238D01*
X-48894285Y-32050238D02*
X-48846666Y-32097857D01*
X-47989523Y-32335952D02*
X-47989523Y-33002619D01*
X-48227618Y-31955000D02*
X-48465713Y-32669285D01*
X-48465713Y-32669285D02*
X-47846666Y-32669285D01*
X-45178333Y42880180D02*
X-45178333Y42165895D01*
X-45178333Y42165895D02*
X-45225952Y42023038D01*
X-45225952Y42023038D02*
X-45321190Y41927800D01*
X-45321190Y41927800D02*
X-45464047Y41880180D01*
X-45464047Y41880180D02*
X-45559285Y41880180D01*
X-44273571Y42546847D02*
X-44273571Y41880180D01*
X-44511666Y42927800D02*
X-44749761Y42213514D01*
X-44749761Y42213514D02*
X-44130714Y42213514D01*
X43101905Y38767380D02*
X43101905Y39767380D01*
X43101905Y39767380D02*
X43340000Y39767380D01*
X43340000Y39767380D02*
X43482857Y39719761D01*
X43482857Y39719761D02*
X43578095Y39624523D01*
X43578095Y39624523D02*
X43625714Y39529285D01*
X43625714Y39529285D02*
X43673333Y39338809D01*
X43673333Y39338809D02*
X43673333Y39195952D01*
X43673333Y39195952D02*
X43625714Y39005476D01*
X43625714Y39005476D02*
X43578095Y38910238D01*
X43578095Y38910238D02*
X43482857Y38815000D01*
X43482857Y38815000D02*
X43340000Y38767380D01*
X43340000Y38767380D02*
X43101905Y38767380D01*
X44625714Y38767380D02*
X44054286Y38767380D01*
X44340000Y38767380D02*
X44340000Y39767380D01*
X44340000Y39767380D02*
X44244762Y39624523D01*
X44244762Y39624523D02*
X44149524Y39529285D01*
X44149524Y39529285D02*
X44054286Y39481666D01*
X17023333Y47517380D02*
X16690000Y47993571D01*
X16451905Y47517380D02*
X16451905Y48517380D01*
X16451905Y48517380D02*
X16832857Y48517380D01*
X16832857Y48517380D02*
X16928095Y48469761D01*
X16928095Y48469761D02*
X16975714Y48422142D01*
X16975714Y48422142D02*
X17023333Y48326904D01*
X17023333Y48326904D02*
X17023333Y48184047D01*
X17023333Y48184047D02*
X16975714Y48088809D01*
X16975714Y48088809D02*
X16928095Y48041190D01*
X16928095Y48041190D02*
X16832857Y47993571D01*
X16832857Y47993571D02*
X16451905Y47993571D01*
X17880476Y48184047D02*
X17880476Y47517380D01*
X17642381Y48565000D02*
X17404286Y47850714D01*
X17404286Y47850714D02*
X18023333Y47850714D01*
X16997142Y-40482619D02*
X16663809Y-40006428D01*
X16425714Y-40482619D02*
X16425714Y-39482619D01*
X16425714Y-39482619D02*
X16806666Y-39482619D01*
X16806666Y-39482619D02*
X16901904Y-39530238D01*
X16901904Y-39530238D02*
X16949523Y-39577857D01*
X16949523Y-39577857D02*
X16997142Y-39673095D01*
X16997142Y-39673095D02*
X16997142Y-39815952D01*
X16997142Y-39815952D02*
X16949523Y-39911190D01*
X16949523Y-39911190D02*
X16901904Y-39958809D01*
X16901904Y-39958809D02*
X16806666Y-40006428D01*
X16806666Y-40006428D02*
X16425714Y-40006428D01*
X17949523Y-40482619D02*
X17378095Y-40482619D01*
X17663809Y-40482619D02*
X17663809Y-39482619D01*
X17663809Y-39482619D02*
X17568571Y-39625476D01*
X17568571Y-39625476D02*
X17473333Y-39720714D01*
X17473333Y-39720714D02*
X17378095Y-39768333D01*
X18330476Y-39577857D02*
X18378095Y-39530238D01*
X18378095Y-39530238D02*
X18473333Y-39482619D01*
X18473333Y-39482619D02*
X18711428Y-39482619D01*
X18711428Y-39482619D02*
X18806666Y-39530238D01*
X18806666Y-39530238D02*
X18854285Y-39577857D01*
X18854285Y-39577857D02*
X18901904Y-39673095D01*
X18901904Y-39673095D02*
X18901904Y-39768333D01*
X18901904Y-39768333D02*
X18854285Y-39911190D01*
X18854285Y-39911190D02*
X18282857Y-40482619D01*
X18282857Y-40482619D02*
X18901904Y-40482619D01*
X42231666Y25607380D02*
X42231666Y24893095D01*
X42231666Y24893095D02*
X42184047Y24750238D01*
X42184047Y24750238D02*
X42088809Y24655000D01*
X42088809Y24655000D02*
X41945952Y24607380D01*
X41945952Y24607380D02*
X41850714Y24607380D01*
X43184047Y25607380D02*
X42707857Y25607380D01*
X42707857Y25607380D02*
X42660238Y25131190D01*
X42660238Y25131190D02*
X42707857Y25178809D01*
X42707857Y25178809D02*
X42803095Y25226428D01*
X42803095Y25226428D02*
X43041190Y25226428D01*
X43041190Y25226428D02*
X43136428Y25178809D01*
X43136428Y25178809D02*
X43184047Y25131190D01*
X43184047Y25131190D02*
X43231666Y25035952D01*
X43231666Y25035952D02*
X43231666Y24797857D01*
X43231666Y24797857D02*
X43184047Y24702619D01*
X43184047Y24702619D02*
X43136428Y24655000D01*
X43136428Y24655000D02*
X43041190Y24607380D01*
X43041190Y24607380D02*
X42803095Y24607380D01*
X42803095Y24607380D02*
X42707857Y24655000D01*
X42707857Y24655000D02*
X42660238Y24702619D01*
X-2196666Y46297380D02*
X-2529999Y46773571D01*
X-2768094Y46297380D02*
X-2768094Y47297380D01*
X-2768094Y47297380D02*
X-2387142Y47297380D01*
X-2387142Y47297380D02*
X-2291904Y47249761D01*
X-2291904Y47249761D02*
X-2244285Y47202142D01*
X-2244285Y47202142D02*
X-2196666Y47106904D01*
X-2196666Y47106904D02*
X-2196666Y46964047D01*
X-2196666Y46964047D02*
X-2244285Y46868809D01*
X-2244285Y46868809D02*
X-2291904Y46821190D01*
X-2291904Y46821190D02*
X-2387142Y46773571D01*
X-2387142Y46773571D02*
X-2768094Y46773571D01*
X-1815713Y47202142D02*
X-1768094Y47249761D01*
X-1768094Y47249761D02*
X-1672856Y47297380D01*
X-1672856Y47297380D02*
X-1434761Y47297380D01*
X-1434761Y47297380D02*
X-1339523Y47249761D01*
X-1339523Y47249761D02*
X-1291904Y47202142D01*
X-1291904Y47202142D02*
X-1244285Y47106904D01*
X-1244285Y47106904D02*
X-1244285Y47011666D01*
X-1244285Y47011666D02*
X-1291904Y46868809D01*
X-1291904Y46868809D02*
X-1863332Y46297380D01*
X-1863332Y46297380D02*
X-1244285Y46297380D01*
X-3072857Y-47232619D02*
X-3406190Y-46756428D01*
X-3644285Y-47232619D02*
X-3644285Y-46232619D01*
X-3644285Y-46232619D02*
X-3263333Y-46232619D01*
X-3263333Y-46232619D02*
X-3168095Y-46280238D01*
X-3168095Y-46280238D02*
X-3120476Y-46327857D01*
X-3120476Y-46327857D02*
X-3072857Y-46423095D01*
X-3072857Y-46423095D02*
X-3072857Y-46565952D01*
X-3072857Y-46565952D02*
X-3120476Y-46661190D01*
X-3120476Y-46661190D02*
X-3168095Y-46708809D01*
X-3168095Y-46708809D02*
X-3263333Y-46756428D01*
X-3263333Y-46756428D02*
X-3644285Y-46756428D01*
X-2120476Y-47232619D02*
X-2691904Y-47232619D01*
X-2406190Y-47232619D02*
X-2406190Y-46232619D01*
X-2406190Y-46232619D02*
X-2501428Y-46375476D01*
X-2501428Y-46375476D02*
X-2596666Y-46470714D01*
X-2596666Y-46470714D02*
X-2691904Y-46518333D01*
X-1168095Y-47232619D02*
X-1739523Y-47232619D01*
X-1453809Y-47232619D02*
X-1453809Y-46232619D01*
X-1453809Y-46232619D02*
X-1549047Y-46375476D01*
X-1549047Y-46375476D02*
X-1644285Y-46470714D01*
X-1644285Y-46470714D02*
X-1739523Y-46518333D01*
X-2216666Y-3352619D02*
X-2549999Y-2876428D01*
X-2788094Y-3352619D02*
X-2788094Y-2352619D01*
X-2788094Y-2352619D02*
X-2407142Y-2352619D01*
X-2407142Y-2352619D02*
X-2311904Y-2400238D01*
X-2311904Y-2400238D02*
X-2264285Y-2447857D01*
X-2264285Y-2447857D02*
X-2216666Y-2543095D01*
X-2216666Y-2543095D02*
X-2216666Y-2685952D01*
X-2216666Y-2685952D02*
X-2264285Y-2781190D01*
X-2264285Y-2781190D02*
X-2311904Y-2828809D01*
X-2311904Y-2828809D02*
X-2407142Y-2876428D01*
X-2407142Y-2876428D02*
X-2788094Y-2876428D01*
X-1883332Y-2352619D02*
X-1216666Y-2352619D01*
X-1216666Y-2352619D02*
X-1645237Y-3352619D01*
X-45378333Y49580180D02*
X-45378333Y48865895D01*
X-45378333Y48865895D02*
X-45425952Y48723038D01*
X-45425952Y48723038D02*
X-45521190Y48627800D01*
X-45521190Y48627800D02*
X-45664047Y48580180D01*
X-45664047Y48580180D02*
X-45759285Y48580180D01*
X-44997380Y49580180D02*
X-44378333Y49580180D01*
X-44378333Y49580180D02*
X-44711666Y49199228D01*
X-44711666Y49199228D02*
X-44568809Y49199228D01*
X-44568809Y49199228D02*
X-44473571Y49151609D01*
X-44473571Y49151609D02*
X-44425952Y49103990D01*
X-44425952Y49103990D02*
X-44378333Y49008752D01*
X-44378333Y49008752D02*
X-44378333Y48770657D01*
X-44378333Y48770657D02*
X-44425952Y48675419D01*
X-44425952Y48675419D02*
X-44473571Y48627800D01*
X-44473571Y48627800D02*
X-44568809Y48580180D01*
X-44568809Y48580180D02*
X-44854523Y48580180D01*
X-44854523Y48580180D02*
X-44949761Y48627800D01*
X-44949761Y48627800D02*
X-44997380Y48675419D01*
X16967142Y-48442619D02*
X16633809Y-47966428D01*
X16395714Y-48442619D02*
X16395714Y-47442619D01*
X16395714Y-47442619D02*
X16776666Y-47442619D01*
X16776666Y-47442619D02*
X16871904Y-47490238D01*
X16871904Y-47490238D02*
X16919523Y-47537857D01*
X16919523Y-47537857D02*
X16967142Y-47633095D01*
X16967142Y-47633095D02*
X16967142Y-47775952D01*
X16967142Y-47775952D02*
X16919523Y-47871190D01*
X16919523Y-47871190D02*
X16871904Y-47918809D01*
X16871904Y-47918809D02*
X16776666Y-47966428D01*
X16776666Y-47966428D02*
X16395714Y-47966428D01*
X17919523Y-48442619D02*
X17348095Y-48442619D01*
X17633809Y-48442619D02*
X17633809Y-47442619D01*
X17633809Y-47442619D02*
X17538571Y-47585476D01*
X17538571Y-47585476D02*
X17443333Y-47680714D01*
X17443333Y-47680714D02*
X17348095Y-47728333D01*
X18252857Y-47442619D02*
X18871904Y-47442619D01*
X18871904Y-47442619D02*
X18538571Y-47823571D01*
X18538571Y-47823571D02*
X18681428Y-47823571D01*
X18681428Y-47823571D02*
X18776666Y-47871190D01*
X18776666Y-47871190D02*
X18824285Y-47918809D01*
X18824285Y-47918809D02*
X18871904Y-48014047D01*
X18871904Y-48014047D02*
X18871904Y-48252142D01*
X18871904Y-48252142D02*
X18824285Y-48347380D01*
X18824285Y-48347380D02*
X18776666Y-48395000D01*
X18776666Y-48395000D02*
X18681428Y-48442619D01*
X18681428Y-48442619D02*
X18395714Y-48442619D01*
X18395714Y-48442619D02*
X18300476Y-48395000D01*
X18300476Y-48395000D02*
X18252857Y-48347380D01*
X17841666Y44537380D02*
X17841666Y43823095D01*
X17841666Y43823095D02*
X17794047Y43680238D01*
X17794047Y43680238D02*
X17698809Y43585000D01*
X17698809Y43585000D02*
X17555952Y43537380D01*
X17555952Y43537380D02*
X17460714Y43537380D01*
X18746428Y44537380D02*
X18555952Y44537380D01*
X18555952Y44537380D02*
X18460714Y44489761D01*
X18460714Y44489761D02*
X18413095Y44442142D01*
X18413095Y44442142D02*
X18317857Y44299285D01*
X18317857Y44299285D02*
X18270238Y44108809D01*
X18270238Y44108809D02*
X18270238Y43727857D01*
X18270238Y43727857D02*
X18317857Y43632619D01*
X18317857Y43632619D02*
X18365476Y43585000D01*
X18365476Y43585000D02*
X18460714Y43537380D01*
X18460714Y43537380D02*
X18651190Y43537380D01*
X18651190Y43537380D02*
X18746428Y43585000D01*
X18746428Y43585000D02*
X18794047Y43632619D01*
X18794047Y43632619D02*
X18841666Y43727857D01*
X18841666Y43727857D02*
X18841666Y43965952D01*
X18841666Y43965952D02*
X18794047Y44061190D01*
X18794047Y44061190D02*
X18746428Y44108809D01*
X18746428Y44108809D02*
X18651190Y44156428D01*
X18651190Y44156428D02*
X18460714Y44156428D01*
X18460714Y44156428D02*
X18365476Y44108809D01*
X18365476Y44108809D02*
X18317857Y44061190D01*
X18317857Y44061190D02*
X18270238Y43965952D01*
X43091905Y-5232619D02*
X43091905Y-4232619D01*
X43091905Y-4232619D02*
X43330000Y-4232619D01*
X43330000Y-4232619D02*
X43472857Y-4280238D01*
X43472857Y-4280238D02*
X43568095Y-4375476D01*
X43568095Y-4375476D02*
X43615714Y-4470714D01*
X43615714Y-4470714D02*
X43663333Y-4661190D01*
X43663333Y-4661190D02*
X43663333Y-4804047D01*
X43663333Y-4804047D02*
X43615714Y-4994523D01*
X43615714Y-4994523D02*
X43568095Y-5089761D01*
X43568095Y-5089761D02*
X43472857Y-5185000D01*
X43472857Y-5185000D02*
X43330000Y-5232619D01*
X43330000Y-5232619D02*
X43091905Y-5232619D01*
X44044286Y-4327857D02*
X44091905Y-4280238D01*
X44091905Y-4280238D02*
X44187143Y-4232619D01*
X44187143Y-4232619D02*
X44425238Y-4232619D01*
X44425238Y-4232619D02*
X44520476Y-4280238D01*
X44520476Y-4280238D02*
X44568095Y-4327857D01*
X44568095Y-4327857D02*
X44615714Y-4423095D01*
X44615714Y-4423095D02*
X44615714Y-4518333D01*
X44615714Y-4518333D02*
X44568095Y-4661190D01*
X44568095Y-4661190D02*
X43996667Y-5232619D01*
X43996667Y-5232619D02*
X44615714Y-5232619D01*
X30294761Y-39577857D02*
X30199523Y-39530238D01*
X30199523Y-39530238D02*
X30104285Y-39435000D01*
X30104285Y-39435000D02*
X29961428Y-39292142D01*
X29961428Y-39292142D02*
X29866190Y-39244523D01*
X29866190Y-39244523D02*
X29770952Y-39244523D01*
X29818571Y-39482619D02*
X29723333Y-39435000D01*
X29723333Y-39435000D02*
X29628095Y-39339761D01*
X29628095Y-39339761D02*
X29580476Y-39149285D01*
X29580476Y-39149285D02*
X29580476Y-38815952D01*
X29580476Y-38815952D02*
X29628095Y-38625476D01*
X29628095Y-38625476D02*
X29723333Y-38530238D01*
X29723333Y-38530238D02*
X29818571Y-38482619D01*
X29818571Y-38482619D02*
X30009047Y-38482619D01*
X30009047Y-38482619D02*
X30104285Y-38530238D01*
X30104285Y-38530238D02*
X30199523Y-38625476D01*
X30199523Y-38625476D02*
X30247142Y-38815952D01*
X30247142Y-38815952D02*
X30247142Y-39149285D01*
X30247142Y-39149285D02*
X30199523Y-39339761D01*
X30199523Y-39339761D02*
X30104285Y-39435000D01*
X30104285Y-39435000D02*
X30009047Y-39482619D01*
X30009047Y-39482619D02*
X29818571Y-39482619D01*
X30580476Y-38482619D02*
X31199523Y-38482619D01*
X31199523Y-38482619D02*
X30866190Y-38863571D01*
X30866190Y-38863571D02*
X31009047Y-38863571D01*
X31009047Y-38863571D02*
X31104285Y-38911190D01*
X31104285Y-38911190D02*
X31151904Y-38958809D01*
X31151904Y-38958809D02*
X31199523Y-39054047D01*
X31199523Y-39054047D02*
X31199523Y-39292142D01*
X31199523Y-39292142D02*
X31151904Y-39387380D01*
X31151904Y-39387380D02*
X31104285Y-39435000D01*
X31104285Y-39435000D02*
X31009047Y-39482619D01*
X31009047Y-39482619D02*
X30723333Y-39482619D01*
X30723333Y-39482619D02*
X30628095Y-39435000D01*
X30628095Y-39435000D02*
X30580476Y-39387380D01*
X30364761Y4412142D02*
X30269523Y4459761D01*
X30269523Y4459761D02*
X30174285Y4555000D01*
X30174285Y4555000D02*
X30031428Y4697857D01*
X30031428Y4697857D02*
X29936190Y4745476D01*
X29936190Y4745476D02*
X29840952Y4745476D01*
X29888571Y4507380D02*
X29793333Y4555000D01*
X29793333Y4555000D02*
X29698095Y4650238D01*
X29698095Y4650238D02*
X29650476Y4840714D01*
X29650476Y4840714D02*
X29650476Y5174047D01*
X29650476Y5174047D02*
X29698095Y5364523D01*
X29698095Y5364523D02*
X29793333Y5459761D01*
X29793333Y5459761D02*
X29888571Y5507380D01*
X29888571Y5507380D02*
X30079047Y5507380D01*
X30079047Y5507380D02*
X30174285Y5459761D01*
X30174285Y5459761D02*
X30269523Y5364523D01*
X30269523Y5364523D02*
X30317142Y5174047D01*
X30317142Y5174047D02*
X30317142Y4840714D01*
X30317142Y4840714D02*
X30269523Y4650238D01*
X30269523Y4650238D02*
X30174285Y4555000D01*
X30174285Y4555000D02*
X30079047Y4507380D01*
X30079047Y4507380D02*
X29888571Y4507380D01*
X30698095Y5412142D02*
X30745714Y5459761D01*
X30745714Y5459761D02*
X30840952Y5507380D01*
X30840952Y5507380D02*
X31079047Y5507380D01*
X31079047Y5507380D02*
X31174285Y5459761D01*
X31174285Y5459761D02*
X31221904Y5412142D01*
X31221904Y5412142D02*
X31269523Y5316904D01*
X31269523Y5316904D02*
X31269523Y5221666D01*
X31269523Y5221666D02*
X31221904Y5078809D01*
X31221904Y5078809D02*
X30650476Y4507380D01*
X30650476Y4507380D02*
X31269523Y4507380D01*
D12*
X-25000000Y-6000000D02*
X7000000Y-6000000D01*
X7000000Y-6000000D02*
X7000000Y-38000000D01*
X7000000Y-38000000D02*
X-25000000Y-38000000D01*
X-25000000Y-38000000D02*
X-25000000Y-6000000D01*
D13*
X-28041800Y15371800D02*
X-28041800Y23814760D01*
X-28041800Y26385240D02*
X-28041800Y34828200D01*
X-28041800Y34828200D02*
X-47498200Y34828200D01*
X-47498200Y15371800D02*
X-28041800Y15371800D01*
X-47498200Y23814760D02*
X-47498200Y15371800D01*
X-47498200Y34828200D02*
X-47498200Y26385240D01*
X-25920900Y25100000D02*
G75*
G03*
X-25920900Y25100000I-76200J0D01*
G01*
D11*
X-11940000Y41990000D02*
X-11824849Y41579770D01*
D14*
X-11824849Y41579770D02*
X-11940000Y41990000D01*
D11*
X-11824849Y41579770D02*
X-11400000Y41630000D01*
D14*
X-14300000Y41770000D02*
X-13300000Y41770000D01*
X-13300000Y41770000D02*
X-13300000Y41010000D01*
X-13300000Y41010000D02*
X-14300000Y41010000D01*
X-14300000Y41010000D02*
X-14300000Y41770000D01*
G36*
X-14300000Y41770000D02*
G01*
X-13300000Y41770000D01*
X-13300000Y41010000D01*
X-14300000Y41010000D01*
X-14300000Y41770000D01*
G37*
X-13990000Y41730000D02*
X-13600000Y41730000D01*
X-13600000Y41730000D02*
X-13600000Y40310000D01*
X-13600000Y40310000D02*
X-13990000Y40310000D01*
X-13990000Y40310000D02*
X-13990000Y41730000D01*
G36*
X-13990000Y41730000D02*
G01*
X-13600000Y41730000D01*
X-13600000Y40310000D01*
X-13990000Y40310000D01*
X-13990000Y41730000D01*
G37*
D11*
X-11759998Y40930000D02*
G75*
G03*
X-11824848Y41579770I619998J390000D01*
G01*
X-15320000Y41300000D02*
G75*
G03*
X-15320000Y41300000I-1240000J0D01*
G01*
X-12590000Y41300000D02*
G75*
G03*
X-12590000Y41300000I-1240000J0D01*
G01*
D15*
X-13647314Y42080000D02*
G75*
G03*
X-13647314Y42080000I-142686J0D01*
G01*
D11*
X-9900000Y41320000D02*
G75*
G03*
X-9900000Y41320000I-1240000J0D01*
G01*
D16*
X19595000Y-1140000D02*
X19595000Y1140000D01*
X20405000Y-1140000D02*
X20405000Y-3050000D01*
X20405000Y3050000D02*
X20405000Y1140000D01*
D12*
X7000000Y-6000000D02*
X39000000Y-6000000D01*
X39000000Y-6000000D02*
X39000000Y-38000000D01*
X39000000Y-38000000D02*
X7000000Y-38000000D01*
X7000000Y-38000000D02*
X7000000Y-6000000D01*
D16*
X26595000Y-1140000D02*
X26595000Y1140000D01*
X27405000Y-1140000D02*
X27405000Y-3050000D01*
X27405000Y3050000D02*
X27405000Y1140000D01*
X-34785000Y46795000D02*
X-32505000Y46795000D01*
X-34785000Y45985000D02*
X-36695000Y45985000D01*
X-30595000Y45985000D02*
X-32505000Y45985000D01*
D13*
X-28041800Y-24428200D02*
X-28041800Y-15985240D01*
X-28041800Y-13414760D02*
X-28041800Y-4971800D01*
X-28041800Y-4971800D02*
X-47498200Y-4971800D01*
X-47498200Y-24428200D02*
X-28041800Y-24428200D01*
X-47498200Y-15985240D02*
X-47498200Y-24428200D01*
X-47498200Y-4971800D02*
X-47498200Y-13414760D01*
X-25920900Y-14700000D02*
G75*
G03*
X-25920900Y-14700000I-76200J0D01*
G01*
D16*
X26595000Y42860000D02*
X26595000Y45140000D01*
X27405000Y42860000D02*
X27405000Y40950000D01*
X27405000Y47050000D02*
X27405000Y45140000D01*
D12*
X-40032064Y45500000D02*
X-38577936Y45500000D01*
X-40032064Y43680000D02*
X-38577936Y43680000D01*
X7000000Y38000000D02*
X39000000Y38000000D01*
X39000000Y38000000D02*
X39000000Y6000000D01*
X39000000Y6000000D02*
X7000000Y6000000D01*
X7000000Y6000000D02*
X7000000Y38000000D01*
X-25000000Y38000000D02*
X7000000Y38000000D01*
X7000000Y38000000D02*
X7000000Y6000000D01*
X7000000Y6000000D02*
X-25000000Y6000000D01*
X-25000000Y6000000D02*
X-25000000Y38000000D01*
X39080000Y-31720000D02*
X39080000Y-38220000D01*
X39080000Y-38220000D02*
X47830000Y-38220000D01*
X47830000Y-31720000D02*
X39080000Y-31720000D01*
X42825000Y38800000D02*
X42825000Y40610000D01*
X42825000Y40610000D02*
X47950000Y40610000D01*
X42825000Y47390000D02*
X43925000Y47390000D01*
X42825000Y49200000D02*
X42825000Y47390000D01*
X41325000Y38800000D02*
X42825000Y38800000D01*
X41325000Y49200000D02*
X42825000Y49200000D01*
D13*
X-28041800Y-4528200D02*
X-28041800Y3914760D01*
X-28041800Y6485240D02*
X-28041800Y14928200D01*
X-28041800Y14928200D02*
X-47498200Y14928200D01*
X-47498200Y-4528200D02*
X-28041800Y-4528200D01*
X-47498200Y3914760D02*
X-47498200Y-4528200D01*
X-47498200Y14928200D02*
X-47498200Y6485240D01*
X-25920900Y5200000D02*
G75*
G03*
X-25920900Y5200000I-76200J0D01*
G01*
D17*
X-11930540Y45101970D02*
X-11887289Y45088755D01*
X-11859442Y45072059D01*
X-11850371Y45058855D01*
X-11852868Y45043203D01*
X-11869069Y45018615D01*
X-11882768Y45001200D01*
X-11911008Y44969717D01*
X-11932225Y44956471D01*
X-11950312Y44957336D01*
X-12003965Y44970990D01*
X-12043370Y44970370D01*
X-12075368Y44954896D01*
X-12086110Y44945839D01*
X-12120495Y44913973D01*
X-12120495Y44497821D01*
X-12258812Y44497821D01*
X-12258812Y45101386D01*
X-12189653Y45101386D01*
X-12148131Y45099744D01*
X-12126709Y45093913D01*
X-12120498Y45082539D01*
X-12120495Y45082202D01*
X-12117561Y45070287D01*
X-12104296Y45071841D01*
X-12085916Y45080437D01*
X-12047954Y45096432D01*
X-12017128Y45106055D01*
X-11977464Y45108522D01*
X-11930540Y45101970D01*
G36*
X-11930540Y45101970D02*
G01*
X-11887289Y45088755D01*
X-11859442Y45072059D01*
X-11850371Y45058855D01*
X-11852868Y45043203D01*
X-11869069Y45018615D01*
X-11882768Y45001200D01*
X-11911008Y44969717D01*
X-11932225Y44956471D01*
X-11950312Y44957336D01*
X-12003965Y44970990D01*
X-12043370Y44970370D01*
X-12075368Y44954896D01*
X-12086110Y44945839D01*
X-12120495Y44913973D01*
X-12120495Y44497821D01*
X-12258812Y44497821D01*
X-12258812Y45101386D01*
X-12189653Y45101386D01*
X-12148131Y45099744D01*
X-12126709Y45093913D01*
X-12120498Y45082539D01*
X-12120495Y45082202D01*
X-12117561Y45070287D01*
X-12104296Y45071841D01*
X-12085916Y45080437D01*
X-12047954Y45096432D01*
X-12017128Y45106055D01*
X-11977464Y45108522D01*
X-11930540Y45101970D01*
G37*
X-12094745Y44158514D02*
X-12046405Y44148985D01*
X-12018886Y44134875D01*
X-11989936Y44111432D01*
X-12031124Y44059429D01*
X-12056518Y44027936D01*
X-12073762Y44012572D01*
X-12090898Y44010224D01*
X-12115973Y44017783D01*
X-12127743Y44022059D01*
X-12175730Y44028369D01*
X-12219676Y44014844D01*
X-12251940Y43984290D01*
X-12257181Y43974548D01*
X-12262888Y43948742D01*
X-12267294Y43901183D01*
X-12270189Y43835242D01*
X-12271369Y43754290D01*
X-12271386Y43742774D01*
X-12271386Y43542178D01*
X-12409703Y43542178D01*
X-12409703Y44158317D01*
X-12340544Y44158317D01*
X-12300667Y44157275D01*
X-12279893Y44152642D01*
X-12272211Y44142151D01*
X-12271386Y44132255D01*
X-12271386Y44106194D01*
X-12238255Y44132255D01*
X-12200265Y44150035D01*
X-12149230Y44158826D01*
X-12094745Y44158514D01*
G36*
X-12094745Y44158514D02*
G01*
X-12046405Y44148985D01*
X-12018886Y44134875D01*
X-11989936Y44111432D01*
X-12031124Y44059429D01*
X-12056518Y44027936D01*
X-12073762Y44012572D01*
X-12090898Y44010224D01*
X-12115973Y44017783D01*
X-12127743Y44022059D01*
X-12175730Y44028369D01*
X-12219676Y44014844D01*
X-12251940Y43984290D01*
X-12257181Y43974548D01*
X-12262888Y43948742D01*
X-12267294Y43901183D01*
X-12270189Y43835242D01*
X-12271369Y43754290D01*
X-12271386Y43742774D01*
X-12271386Y43542178D01*
X-12409703Y43542178D01*
X-12409703Y44158317D01*
X-12340544Y44158317D01*
X-12300667Y44157275D01*
X-12279893Y44152642D01*
X-12272211Y44142151D01*
X-12271386Y44132255D01*
X-12271386Y44106194D01*
X-12238255Y44132255D01*
X-12200265Y44150035D01*
X-12149230Y44158826D01*
X-12094745Y44158514D01*
G37*
X-14723356Y44156980D02*
X-14704539Y44151340D01*
X-14698473Y44138947D01*
X-14698218Y44133353D01*
X-14697129Y44117770D01*
X-14689632Y44115324D01*
X-14669381Y44126007D01*
X-14657351Y44133306D01*
X-14619400Y44148937D01*
X-14574072Y44156666D01*
X-14526544Y44157260D01*
X-14481995Y44151487D01*
X-14445602Y44140116D01*
X-14422543Y44123912D01*
X-14417996Y44103645D01*
X-14420291Y44098157D01*
X-14437020Y44075374D01*
X-14462963Y44047353D01*
X-14467655Y44042823D01*
X-14492383Y44021995D01*
X-14513718Y44015265D01*
X-14543555Y44019962D01*
X-14555508Y44023083D01*
X-14592705Y44030579D01*
X-14618859Y44027208D01*
X-14640946Y44015319D01*
X-14661178Y43999365D01*
X-14676079Y43979300D01*
X-14686434Y43951298D01*
X-14693029Y43911533D01*
X-14696649Y43856177D01*
X-14698078Y43781406D01*
X-14698218Y43736260D01*
X-14698218Y43542178D01*
X-14823960Y43542178D01*
X-14823960Y44158317D01*
X-14761089Y44158317D01*
X-14723356Y44156980D01*
G36*
X-14723356Y44156980D02*
G01*
X-14704539Y44151340D01*
X-14698473Y44138947D01*
X-14698218Y44133353D01*
X-14697129Y44117770D01*
X-14689632Y44115324D01*
X-14669381Y44126007D01*
X-14657351Y44133306D01*
X-14619400Y44148937D01*
X-14574072Y44156666D01*
X-14526544Y44157260D01*
X-14481995Y44151487D01*
X-14445602Y44140116D01*
X-14422543Y44123912D01*
X-14417996Y44103645D01*
X-14420291Y44098157D01*
X-14437020Y44075374D01*
X-14462963Y44047353D01*
X-14467655Y44042823D01*
X-14492383Y44021995D01*
X-14513718Y44015265D01*
X-14543555Y44019962D01*
X-14555508Y44023083D01*
X-14592705Y44030579D01*
X-14618859Y44027208D01*
X-14640946Y44015319D01*
X-14661178Y43999365D01*
X-14676079Y43979300D01*
X-14686434Y43951298D01*
X-14693029Y43911533D01*
X-14696649Y43856177D01*
X-14698078Y43781406D01*
X-14698218Y43736260D01*
X-14698218Y43542178D01*
X-14823960Y43542178D01*
X-14823960Y44158317D01*
X-14761089Y44158317D01*
X-14723356Y44156980D01*
G37*
X-12736633Y44905658D02*
X-12735445Y44813437D01*
X-12731103Y44743390D01*
X-12722442Y44692619D01*
X-12708296Y44658228D01*
X-12687500Y44637321D01*
X-12658890Y44627000D01*
X-12623465Y44624364D01*
X-12586364Y44627318D01*
X-12558182Y44638111D01*
X-12537757Y44659640D01*
X-12523921Y44694801D01*
X-12515509Y44746490D01*
X-12511357Y44817606D01*
X-12510297Y44905658D01*
X-12510297Y45101386D01*
X-12371980Y45101386D01*
X-12371980Y44497821D01*
X-12441138Y44497821D01*
X-12482830Y44499511D01*
X-12504299Y44505444D01*
X-12510297Y44516707D01*
X-12513909Y44526739D01*
X-12528286Y44524617D01*
X-12557264Y44510420D01*
X-12623681Y44488520D01*
X-12694125Y44490072D01*
X-12761623Y44513853D01*
X-12793767Y44532638D01*
X-12818285Y44552978D01*
X-12836196Y44578427D01*
X-12848521Y44612542D01*
X-12856277Y44658879D01*
X-12860484Y44720993D01*
X-12862160Y44802439D01*
X-12862376Y44865422D01*
X-12862376Y45101386D01*
X-12736633Y45101386D01*
X-12736633Y44905658D01*
G36*
X-12736633Y44905658D02*
G01*
X-12735445Y44813437D01*
X-12731103Y44743390D01*
X-12722442Y44692619D01*
X-12708296Y44658228D01*
X-12687500Y44637321D01*
X-12658890Y44627000D01*
X-12623465Y44624364D01*
X-12586364Y44627318D01*
X-12558182Y44638111D01*
X-12537757Y44659640D01*
X-12523921Y44694801D01*
X-12515509Y44746490D01*
X-12511357Y44817606D01*
X-12510297Y44905658D01*
X-12510297Y45101386D01*
X-12371980Y45101386D01*
X-12371980Y44497821D01*
X-12441138Y44497821D01*
X-12482830Y44499511D01*
X-12504299Y44505444D01*
X-12510297Y44516707D01*
X-12513909Y44526739D01*
X-12528286Y44524617D01*
X-12557264Y44510420D01*
X-12623681Y44488520D01*
X-12694125Y44490072D01*
X-12761623Y44513853D01*
X-12793767Y44532638D01*
X-12818285Y44552978D01*
X-12836196Y44578427D01*
X-12848521Y44612542D01*
X-12856277Y44658879D01*
X-12860484Y44720993D01*
X-12862160Y44802439D01*
X-12862376Y44865422D01*
X-12862376Y45101386D01*
X-12736633Y45101386D01*
X-12736633Y44905658D01*
G37*
X-14484012Y45090998D02*
X-14452717Y45076050D01*
X-14422409Y45054459D01*
X-14399318Y45029609D01*
X-14382500Y44997913D01*
X-14371006Y44955786D01*
X-14363891Y44899642D01*
X-14360207Y44825894D01*
X-14359008Y44730956D01*
X-14358989Y44721015D01*
X-14358713Y44497821D01*
X-14497030Y44497821D01*
X-14497030Y44703582D01*
X-14497128Y44779811D01*
X-14497809Y44835061D01*
X-14499651Y44873499D01*
X-14503233Y44899294D01*
X-14509132Y44916616D01*
X-14517927Y44929632D01*
X-14530180Y44942493D01*
X-14573047Y44970127D01*
X-14619843Y44975255D01*
X-14664424Y44957783D01*
X-14679928Y44944779D01*
X-14691310Y44932553D01*
X-14699481Y44919460D01*
X-14704974Y44901385D01*
X-14708320Y44874213D01*
X-14710051Y44833830D01*
X-14710697Y44776121D01*
X-14710792Y44705868D01*
X-14710792Y44497821D01*
X-14849109Y44497821D01*
X-14849109Y45101386D01*
X-14779950Y45101386D01*
X-14738428Y45099744D01*
X-14717006Y45093913D01*
X-14710795Y45082539D01*
X-14710792Y45082202D01*
X-14707910Y45071062D01*
X-14695199Y45072326D01*
X-14669926Y45084566D01*
X-14612605Y45102576D01*
X-14547037Y45104579D01*
X-14484012Y45090998D01*
G36*
X-14484012Y45090998D02*
G01*
X-14452717Y45076050D01*
X-14422409Y45054459D01*
X-14399318Y45029609D01*
X-14382500Y44997913D01*
X-14371006Y44955786D01*
X-14363891Y44899642D01*
X-14360207Y44825894D01*
X-14359008Y44730956D01*
X-14358989Y44721015D01*
X-14358713Y44497821D01*
X-14497030Y44497821D01*
X-14497030Y44703582D01*
X-14497128Y44779811D01*
X-14497809Y44835061D01*
X-14499651Y44873499D01*
X-14503233Y44899294D01*
X-14509132Y44916616D01*
X-14517927Y44929632D01*
X-14530180Y44942493D01*
X-14573047Y44970127D01*
X-14619843Y44975255D01*
X-14664424Y44957783D01*
X-14679928Y44944779D01*
X-14691310Y44932553D01*
X-14699481Y44919460D01*
X-14704974Y44901385D01*
X-14708320Y44874213D01*
X-14710051Y44833830D01*
X-14710697Y44776121D01*
X-14710792Y44705868D01*
X-14710792Y44497821D01*
X-14849109Y44497821D01*
X-14849109Y45101386D01*
X-14779950Y45101386D01*
X-14738428Y45099744D01*
X-14717006Y45093913D01*
X-14710795Y45082539D01*
X-14710792Y45082202D01*
X-14707910Y45071062D01*
X-14695199Y45072326D01*
X-14669926Y45084566D01*
X-14612605Y45102576D01*
X-14547037Y45104579D01*
X-14484012Y45090998D01*
G37*
X-11512774Y45096120D02*
X-11439920Y45065170D01*
X-11416973Y45050105D01*
X-11387646Y45026952D01*
X-11369236Y45008747D01*
X-11366039Y45002817D01*
X-11375065Y44989660D01*
X-11398163Y44967333D01*
X-11416656Y44951750D01*
X-11467272Y44911074D01*
X-11507240Y44944705D01*
X-11538126Y44966416D01*
X-11568241Y44973910D01*
X-11602708Y44972080D01*
X-11657439Y44958472D01*
X-11695114Y44930228D01*
X-11718009Y44884567D01*
X-11728403Y44818711D01*
X-11728405Y44818669D01*
X-11727506Y44745061D01*
X-11713537Y44691054D01*
X-11685672Y44654284D01*
X-11666675Y44641832D01*
X-11616224Y44626327D01*
X-11562337Y44626317D01*
X-11515454Y44641362D01*
X-11504356Y44648713D01*
X-11476524Y44667489D01*
X-11454764Y44670566D01*
X-11431296Y44656591D01*
X-11405351Y44631490D01*
X-11364284Y44589120D01*
X-11409879Y44551536D01*
X-11480326Y44509118D01*
X-11559767Y44488215D01*
X-11642785Y44489728D01*
X-11697306Y44503589D01*
X-11761030Y44537865D01*
X-11811995Y44591788D01*
X-11835149Y44629851D01*
X-11853901Y44684464D01*
X-11863285Y44753631D01*
X-11863357Y44828593D01*
X-11854176Y44900591D01*
X-11835801Y44960863D01*
X-11832907Y44967042D01*
X-11790048Y45027649D01*
X-11732021Y45071776D01*
X-11663409Y45098507D01*
X-11588799Y45106927D01*
X-11512774Y45096120D01*
G36*
X-11512774Y45096120D02*
G01*
X-11439920Y45065170D01*
X-11416973Y45050105D01*
X-11387646Y45026952D01*
X-11369236Y45008747D01*
X-11366039Y45002817D01*
X-11375065Y44989660D01*
X-11398163Y44967333D01*
X-11416656Y44951750D01*
X-11467272Y44911074D01*
X-11507240Y44944705D01*
X-11538126Y44966416D01*
X-11568241Y44973910D01*
X-11602708Y44972080D01*
X-11657439Y44958472D01*
X-11695114Y44930228D01*
X-11718009Y44884567D01*
X-11728403Y44818711D01*
X-11728405Y44818669D01*
X-11727506Y44745061D01*
X-11713537Y44691054D01*
X-11685672Y44654284D01*
X-11666675Y44641832D01*
X-11616224Y44626327D01*
X-11562337Y44626317D01*
X-11515454Y44641362D01*
X-11504356Y44648713D01*
X-11476524Y44667489D01*
X-11454764Y44670566D01*
X-11431296Y44656591D01*
X-11405351Y44631490D01*
X-11364284Y44589120D01*
X-11409879Y44551536D01*
X-11480326Y44509118D01*
X-11559767Y44488215D01*
X-11642785Y44489728D01*
X-11697306Y44503589D01*
X-11761030Y44537865D01*
X-11811995Y44591788D01*
X-11835149Y44629851D01*
X-11853901Y44684464D01*
X-11863285Y44753631D01*
X-11863357Y44828593D01*
X-11854176Y44900591D01*
X-11835801Y44960863D01*
X-11832907Y44967042D01*
X-11790048Y45027649D01*
X-11732021Y45071776D01*
X-11663409Y45098507D01*
X-11588799Y45106927D01*
X-11512774Y45096120D01*
G37*
X-13462410Y44806234D02*
X-13327624Y44806234D01*
X-13323083Y44733268D01*
X-13310014Y44677666D01*
X-13289244Y44642139D01*
X-13274448Y44631980D01*
X-13236536Y44624896D01*
X-13191473Y44626993D01*
X-13152513Y44637188D01*
X-13142296Y44642796D01*
X-13115341Y44675462D01*
X-13097549Y44725455D01*
X-13089976Y44786295D01*
X-13093675Y44851503D01*
X-13101943Y44890747D01*
X-13125680Y44936195D01*
X-13163151Y44964604D01*
X-13208280Y44974427D01*
X-13254989Y44964113D01*
X-13290868Y44938888D01*
X-13309723Y44918075D01*
X-13320728Y44897561D01*
X-13325974Y44869797D01*
X-13327551Y44827238D01*
X-13327624Y44806234D01*
X-13462410Y44806234D01*
X-13461906Y44862420D01*
X-13444612Y44949499D01*
X-13410971Y45017470D01*
X-13360982Y45066336D01*
X-13294644Y45096101D01*
X-13280399Y45099552D01*
X-13194790Y45107655D01*
X-13119238Y45093945D01*
X-13055637Y45059308D01*
X-13005877Y45004628D01*
X-12982432Y44960158D01*
X-12972366Y44920879D01*
X-12965844Y44864884D01*
X-12963049Y44800379D01*
X-12964164Y44735571D01*
X-12969374Y44678666D01*
X-12975459Y44648273D01*
X-12995986Y44606694D01*
X-13031537Y44562532D01*
X-13074381Y44523913D01*
X-13116789Y44498966D01*
X-13117823Y44498570D01*
X-13170447Y44487669D01*
X-13232812Y44487399D01*
X-13292076Y44497324D01*
X-13314960Y44505278D01*
X-13373898Y44538700D01*
X-13416110Y44582489D01*
X-13443844Y44640462D01*
X-13459349Y44716435D01*
X-13462857Y44756229D01*
X-13462410Y44806234D01*
G36*
X-13462410Y44806234D02*
G01*
X-13327624Y44806234D01*
X-13323083Y44733268D01*
X-13310014Y44677666D01*
X-13289244Y44642139D01*
X-13274448Y44631980D01*
X-13236536Y44624896D01*
X-13191473Y44626993D01*
X-13152513Y44637188D01*
X-13142296Y44642796D01*
X-13115341Y44675462D01*
X-13097549Y44725455D01*
X-13089976Y44786295D01*
X-13093675Y44851503D01*
X-13101943Y44890747D01*
X-13125680Y44936195D01*
X-13163151Y44964604D01*
X-13208280Y44974427D01*
X-13254989Y44964113D01*
X-13290868Y44938888D01*
X-13309723Y44918075D01*
X-13320728Y44897561D01*
X-13325974Y44869797D01*
X-13327551Y44827238D01*
X-13327624Y44806234D01*
X-13462410Y44806234D01*
X-13461906Y44862420D01*
X-13444612Y44949499D01*
X-13410971Y45017470D01*
X-13360982Y45066336D01*
X-13294644Y45096101D01*
X-13280399Y45099552D01*
X-13194790Y45107655D01*
X-13119238Y45093945D01*
X-13055637Y45059308D01*
X-13005877Y45004628D01*
X-12982432Y44960158D01*
X-12972366Y44920879D01*
X-12965844Y44864884D01*
X-12963049Y44800379D01*
X-12964164Y44735571D01*
X-12969374Y44678666D01*
X-12975459Y44648273D01*
X-12995986Y44606694D01*
X-13031537Y44562532D01*
X-13074381Y44523913D01*
X-13116789Y44498966D01*
X-13117823Y44498570D01*
X-13170447Y44487669D01*
X-13232812Y44487399D01*
X-13292076Y44497324D01*
X-13314960Y44505278D01*
X-13373898Y44538700D01*
X-13416110Y44582489D01*
X-13443844Y44640462D01*
X-13459349Y44716435D01*
X-13462857Y44756229D01*
X-13462410Y44806234D01*
G37*
X-13448476Y44155763D02*
X-13398745Y44152029D01*
X-13268709Y43762227D01*
X-13248322Y43831386D01*
X-13236054Y43874126D01*
X-13219915Y43931885D01*
X-13202488Y43995375D01*
X-13193274Y44029430D01*
X-13158612Y44158317D01*
X-13015609Y44158317D01*
X-13058354Y44023143D01*
X-13079404Y43956658D01*
X-13104833Y43876461D01*
X-13131390Y43792807D01*
X-13155098Y43718218D01*
X-13209098Y43548465D01*
X-13267402Y43544672D01*
X-13325705Y43540878D01*
X-13357321Y43645266D01*
X-13376818Y43710111D01*
X-13398096Y43781600D01*
X-13416692Y43844737D01*
X-13417426Y43847250D01*
X-13431316Y43890031D01*
X-13443571Y43919221D01*
X-13452154Y43930259D01*
X-13453918Y43928982D01*
X-13460109Y43911870D01*
X-13471872Y43875213D01*
X-13487775Y43823622D01*
X-13506386Y43761706D01*
X-13516457Y43727648D01*
X-13570993Y43542178D01*
X-13686736Y43542178D01*
X-13779263Y43834529D01*
X-13805256Y43916538D01*
X-13828934Y43991013D01*
X-13849180Y44054456D01*
X-13864874Y44103368D01*
X-13874898Y44134251D01*
X-13877945Y44143274D01*
X-13875533Y44152513D01*
X-13856592Y44156559D01*
X-13817177Y44156154D01*
X-13811007Y44155848D01*
X-13737914Y44152029D01*
X-13690043Y43975990D01*
X-13672447Y43911789D01*
X-13656723Y43855351D01*
X-13644254Y43811578D01*
X-13636426Y43785370D01*
X-13634980Y43781097D01*
X-13628986Y43786010D01*
X-13616899Y43811468D01*
X-13600107Y43854003D01*
X-13579997Y43910150D01*
X-13562997Y43960870D01*
X-13498206Y44159496D01*
X-13448476Y44155763D01*
G36*
X-13448476Y44155763D02*
G01*
X-13398745Y44152029D01*
X-13268709Y43762227D01*
X-13248322Y43831386D01*
X-13236054Y43874126D01*
X-13219915Y43931885D01*
X-13202488Y43995375D01*
X-13193274Y44029430D01*
X-13158612Y44158317D01*
X-13015609Y44158317D01*
X-13058354Y44023143D01*
X-13079404Y43956658D01*
X-13104833Y43876461D01*
X-13131390Y43792807D01*
X-13155098Y43718218D01*
X-13209098Y43548465D01*
X-13267402Y43544672D01*
X-13325705Y43540878D01*
X-13357321Y43645266D01*
X-13376818Y43710111D01*
X-13398096Y43781600D01*
X-13416692Y43844737D01*
X-13417426Y43847250D01*
X-13431316Y43890031D01*
X-13443571Y43919221D01*
X-13452154Y43930259D01*
X-13453918Y43928982D01*
X-13460109Y43911870D01*
X-13471872Y43875213D01*
X-13487775Y43823622D01*
X-13506386Y43761706D01*
X-13516457Y43727648D01*
X-13570993Y43542178D01*
X-13686736Y43542178D01*
X-13779263Y43834529D01*
X-13805256Y43916538D01*
X-13828934Y43991013D01*
X-13849180Y44054456D01*
X-13864874Y44103368D01*
X-13874898Y44134251D01*
X-13877945Y44143274D01*
X-13875533Y44152513D01*
X-13856592Y44156559D01*
X-13817177Y44156154D01*
X-13811007Y44155848D01*
X-13737914Y44152029D01*
X-13690043Y43975990D01*
X-13672447Y43911789D01*
X-13656723Y43855351D01*
X-13644254Y43811578D01*
X-13636426Y43785370D01*
X-13634980Y43781097D01*
X-13628986Y43786010D01*
X-13616899Y43811468D01*
X-13600107Y43854003D01*
X-13579997Y43910150D01*
X-13562997Y43960870D01*
X-13498206Y44159496D01*
X-13448476Y44155763D01*
G37*
X-16595672Y44800781D02*
X-16469955Y44800781D01*
X-16468726Y44765230D01*
X-16464266Y44717906D01*
X-16456397Y44687535D01*
X-16442207Y44665928D01*
X-16428917Y44653306D01*
X-16381802Y44626878D01*
X-16332505Y44623347D01*
X-16286593Y44642361D01*
X-16263638Y44663669D01*
X-16247096Y44685141D01*
X-16237421Y44705687D01*
X-16233174Y44732426D01*
X-16232920Y44772477D01*
X-16234228Y44809362D01*
X-16237043Y44862053D01*
X-16241505Y44896228D01*
X-16249548Y44918520D01*
X-16263103Y44935558D01*
X-16273845Y44945297D01*
X-16318777Y44970877D01*
X-16367249Y44972153D01*
X-16407894Y44957001D01*
X-16442567Y44925358D01*
X-16463224Y44873380D01*
X-16469955Y44800781D01*
X-16595672Y44800781D01*
X-16596479Y44843379D01*
X-16593948Y44901944D01*
X-16586362Y44945993D01*
X-16572681Y44980752D01*
X-16551865Y45011449D01*
X-16544147Y45020564D01*
X-16495889Y45065979D01*
X-16444128Y45092507D01*
X-16380828Y45103621D01*
X-16349961Y45104529D01*
X-16268261Y45094852D01*
X-16202479Y45065769D01*
X-16152540Y45017207D01*
X-16118374Y44949092D01*
X-16099907Y44861349D01*
X-16098583Y44847649D01*
X-16097546Y44751061D01*
X-16110993Y44666398D01*
X-16138108Y44597779D01*
X-16152627Y44575706D01*
X-16203201Y44528989D01*
X-16267609Y44498732D01*
X-16339666Y44486176D01*
X-16413185Y44492561D01*
X-16469072Y44512228D01*
X-16517132Y44545371D01*
X-16556412Y44588825D01*
X-16557092Y44589842D01*
X-16573044Y44616662D01*
X-16583410Y44643632D01*
X-16589688Y44677668D01*
X-16593373Y44725690D01*
X-16594997Y44765069D01*
X-16595672Y44800781D01*
G36*
X-16595672Y44800781D02*
G01*
X-16469955Y44800781D01*
X-16468726Y44765230D01*
X-16464266Y44717906D01*
X-16456397Y44687535D01*
X-16442207Y44665928D01*
X-16428917Y44653306D01*
X-16381802Y44626878D01*
X-16332505Y44623347D01*
X-16286593Y44642361D01*
X-16263638Y44663669D01*
X-16247096Y44685141D01*
X-16237421Y44705687D01*
X-16233174Y44732426D01*
X-16232920Y44772477D01*
X-16234228Y44809362D01*
X-16237043Y44862053D01*
X-16241505Y44896228D01*
X-16249548Y44918520D01*
X-16263103Y44935558D01*
X-16273845Y44945297D01*
X-16318777Y44970877D01*
X-16367249Y44972153D01*
X-16407894Y44957001D01*
X-16442567Y44925358D01*
X-16463224Y44873380D01*
X-16469955Y44800781D01*
X-16595672Y44800781D01*
X-16596479Y44843379D01*
X-16593948Y44901944D01*
X-16586362Y44945993D01*
X-16572681Y44980752D01*
X-16551865Y45011449D01*
X-16544147Y45020564D01*
X-16495889Y45065979D01*
X-16444128Y45092507D01*
X-16380828Y45103621D01*
X-16349961Y45104529D01*
X-16268261Y45094852D01*
X-16202479Y45065769D01*
X-16152540Y45017207D01*
X-16118374Y44949092D01*
X-16099907Y44861349D01*
X-16098583Y44847649D01*
X-16097546Y44751061D01*
X-16110993Y44666398D01*
X-16138108Y44597779D01*
X-16152627Y44575706D01*
X-16203201Y44528989D01*
X-16267609Y44498732D01*
X-16339666Y44486176D01*
X-16413185Y44492561D01*
X-16469072Y44512228D01*
X-16517132Y44545371D01*
X-16556412Y44588825D01*
X-16557092Y44589842D01*
X-16573044Y44616662D01*
X-16583410Y44643632D01*
X-16589688Y44677668D01*
X-16593373Y44725690D01*
X-16594997Y44765069D01*
X-16595672Y44800781D01*
G37*
X-14420633Y43843845D02*
X-14283279Y43843845D01*
X-14280097Y43789806D01*
X-14272859Y43745265D01*
X-14263060Y43720112D01*
X-14225989Y43685740D01*
X-14181974Y43673418D01*
X-14136584Y43683382D01*
X-14097797Y43713105D01*
X-14083108Y43733095D01*
X-14074519Y43756950D01*
X-14070496Y43791770D01*
X-14069505Y43844070D01*
X-14071278Y43895861D01*
X-14075963Y43941366D01*
X-14082603Y43971819D01*
X-14083710Y43974548D01*
X-14110491Y44007000D01*
X-14149579Y44024817D01*
X-14193315Y44027694D01*
X-14234038Y44015326D01*
X-14264087Y43987407D01*
X-14267204Y43981852D01*
X-14276961Y43947978D01*
X-14282277Y43899272D01*
X-14283279Y43843845D01*
X-14420633Y43843845D01*
X-14420568Y43864460D01*
X-14419664Y43897437D01*
X-14413514Y43979019D01*
X-14400733Y44040270D01*
X-14379471Y44085551D01*
X-14347878Y44119221D01*
X-14317207Y44138986D01*
X-14274354Y44152880D01*
X-14221056Y44157646D01*
X-14166480Y44153764D01*
X-14119792Y44141718D01*
X-14095124Y44127307D01*
X-14069505Y44104122D01*
X-14069505Y44397227D01*
X-13931188Y44397227D01*
X-13931188Y43542178D01*
X-14000346Y43542178D01*
X-14040488Y43543355D01*
X-14061394Y43548228D01*
X-14068922Y43558814D01*
X-14069505Y43565971D01*
X-14070774Y43580324D01*
X-14078779Y43583077D01*
X-14099815Y43574229D01*
X-14116173Y43565971D01*
X-14178977Y43546403D01*
X-14247248Y43545271D01*
X-14302752Y43559865D01*
X-14354438Y43595123D01*
X-14393838Y43647165D01*
X-14415413Y43708550D01*
X-14415962Y43711982D01*
X-14419167Y43749429D01*
X-14420761Y43803187D01*
X-14420633Y43843845D01*
G36*
X-14420633Y43843845D02*
G01*
X-14283279Y43843845D01*
X-14280097Y43789806D01*
X-14272859Y43745265D01*
X-14263060Y43720112D01*
X-14225989Y43685740D01*
X-14181974Y43673418D01*
X-14136584Y43683382D01*
X-14097797Y43713105D01*
X-14083108Y43733095D01*
X-14074519Y43756950D01*
X-14070496Y43791770D01*
X-14069505Y43844070D01*
X-14071278Y43895861D01*
X-14075963Y43941366D01*
X-14082603Y43971819D01*
X-14083710Y43974548D01*
X-14110491Y44007000D01*
X-14149579Y44024817D01*
X-14193315Y44027694D01*
X-14234038Y44015326D01*
X-14264087Y43987407D01*
X-14267204Y43981852D01*
X-14276961Y43947978D01*
X-14282277Y43899272D01*
X-14283279Y43843845D01*
X-14420633Y43843845D01*
X-14420568Y43864460D01*
X-14419664Y43897437D01*
X-14413514Y43979019D01*
X-14400733Y44040270D01*
X-14379471Y44085551D01*
X-14347878Y44119221D01*
X-14317207Y44138986D01*
X-14274354Y44152880D01*
X-14221056Y44157646D01*
X-14166480Y44153764D01*
X-14119792Y44141718D01*
X-14095124Y44127307D01*
X-14069505Y44104122D01*
X-14069505Y44397227D01*
X-13931188Y44397227D01*
X-13931188Y43542178D01*
X-14000346Y43542178D01*
X-14040488Y43543355D01*
X-14061394Y43548228D01*
X-14068922Y43558814D01*
X-14069505Y43565971D01*
X-14070774Y43580324D01*
X-14078779Y43583077D01*
X-14099815Y43574229D01*
X-14116173Y43565971D01*
X-14178977Y43546403D01*
X-14247248Y43545271D01*
X-14302752Y43559865D01*
X-14354438Y43595123D01*
X-14393838Y43647165D01*
X-14415413Y43708550D01*
X-14415962Y43711982D01*
X-14419167Y43749429D01*
X-14420761Y43803187D01*
X-14420633Y43843845D01*
G37*
X-11342900Y44874458D02*
X-11215148Y44874458D01*
X-11203416Y44869178D01*
X-11171562Y44865133D01*
X-11124603Y44862824D01*
X-11094846Y44862475D01*
X-11039352Y44862694D01*
X-11004654Y44864084D01*
X-10986399Y44867749D01*
X-10980234Y44874790D01*
X-10981805Y44886310D01*
X-10983122Y44890767D01*
X-11005618Y44932645D01*
X-11040997Y44966396D01*
X-11072220Y44981227D01*
X-11113699Y44980332D01*
X-11155731Y44961836D01*
X-11190988Y44931214D01*
X-11212146Y44893938D01*
X-11215148Y44874458D01*
X-11342900Y44874458D01*
X-11333310Y44924771D01*
X-11301302Y44995809D01*
X-11255299Y45051221D01*
X-11197179Y45088991D01*
X-11128820Y45107104D01*
X-11052102Y45103543D01*
X-11019904Y45095721D01*
X-10958175Y45067079D01*
X-10905390Y45023333D01*
X-10868859Y44970883D01*
X-10863840Y44959107D01*
X-10856955Y44928260D01*
X-10852136Y44882629D01*
X-10850495Y44836508D01*
X-10850495Y44749307D01*
X-11032822Y44749307D01*
X-11108021Y44749022D01*
X-11160997Y44747296D01*
X-11194675Y44742819D01*
X-11211980Y44734280D01*
X-11215837Y44720370D01*
X-11209171Y44699778D01*
X-11197230Y44675685D01*
X-11163920Y44635475D01*
X-11117632Y44615442D01*
X-11061056Y44616095D01*
X-10996969Y44637899D01*
X-10941583Y44664807D01*
X-10895625Y44628468D01*
X-10849667Y44592128D01*
X-10892904Y44552181D01*
X-10950626Y44514437D01*
X-11021614Y44491680D01*
X-11097971Y44485312D01*
X-11171801Y44496732D01*
X-11183713Y44500607D01*
X-11248601Y44534494D01*
X-11296870Y44585014D01*
X-11329535Y44653675D01*
X-11347615Y44741986D01*
X-11347825Y44743879D01*
X-11349444Y44840122D01*
X-11342900Y44874458D01*
G36*
X-11342900Y44874458D02*
G01*
X-11215148Y44874458D01*
X-11203416Y44869178D01*
X-11171562Y44865133D01*
X-11124603Y44862824D01*
X-11094846Y44862475D01*
X-11039352Y44862694D01*
X-11004654Y44864084D01*
X-10986399Y44867749D01*
X-10980234Y44874790D01*
X-10981805Y44886310D01*
X-10983122Y44890767D01*
X-11005618Y44932645D01*
X-11040997Y44966396D01*
X-11072220Y44981227D01*
X-11113699Y44980332D01*
X-11155731Y44961836D01*
X-11190988Y44931214D01*
X-11212146Y44893938D01*
X-11215148Y44874458D01*
X-11342900Y44874458D01*
X-11333310Y44924771D01*
X-11301302Y44995809D01*
X-11255299Y45051221D01*
X-11197179Y45088991D01*
X-11128820Y45107104D01*
X-11052102Y45103543D01*
X-11019904Y45095721D01*
X-10958175Y45067079D01*
X-10905390Y45023333D01*
X-10868859Y44970883D01*
X-10863840Y44959107D01*
X-10856955Y44928260D01*
X-10852136Y44882629D01*
X-10850495Y44836508D01*
X-10850495Y44749307D01*
X-11032822Y44749307D01*
X-11108021Y44749022D01*
X-11160997Y44747296D01*
X-11194675Y44742819D01*
X-11211980Y44734280D01*
X-11215837Y44720370D01*
X-11209171Y44699778D01*
X-11197230Y44675685D01*
X-11163920Y44635475D01*
X-11117632Y44615442D01*
X-11061056Y44616095D01*
X-10996969Y44637899D01*
X-10941583Y44664807D01*
X-10895625Y44628468D01*
X-10849667Y44592128D01*
X-10892904Y44552181D01*
X-10950626Y44514437D01*
X-11021614Y44491680D01*
X-11097971Y44485312D01*
X-11171801Y44496732D01*
X-11183713Y44500607D01*
X-11248601Y44534494D01*
X-11296870Y44585014D01*
X-11329535Y44653675D01*
X-11347615Y44741986D01*
X-11347825Y44743879D01*
X-11349444Y44840122D01*
X-11342900Y44874458D01*
G37*
X-13715983Y45103548D02*
X-13668366Y45094518D01*
X-13618966Y45075630D01*
X-13613688Y45073223D01*
X-13576226Y45053524D01*
X-13550283Y45035219D01*
X-13541897Y45023492D01*
X-13549883Y45004368D01*
X-13569280Y44976150D01*
X-13577890Y44965616D01*
X-13613372Y44924153D01*
X-13659115Y44951142D01*
X-13702650Y44969122D01*
X-13752950Y44978733D01*
X-13801188Y44979340D01*
X-13838533Y44970309D01*
X-13847495Y44964673D01*
X-13864563Y44938829D01*
X-13866637Y44909059D01*
X-13853866Y44885803D01*
X-13846312Y44881292D01*
X-13823675Y44875691D01*
X-13783885Y44869108D01*
X-13734834Y44862817D01*
X-13725785Y44861830D01*
X-13647004Y44848202D01*
X-13589864Y44825054D01*
X-13551970Y44790248D01*
X-13530921Y44741646D01*
X-13524365Y44682282D01*
X-13533423Y44614802D01*
X-13562836Y44561812D01*
X-13612722Y44523217D01*
X-13683200Y44498919D01*
X-13761435Y44489333D01*
X-13825234Y44489448D01*
X-13876984Y44498155D01*
X-13912327Y44510175D01*
X-13956983Y44531120D01*
X-13998253Y44555426D01*
X-14012921Y44566124D01*
X-14050643Y44596916D01*
X-14005148Y44642951D01*
X-13959653Y44688987D01*
X-13907928Y44654757D01*
X-13856048Y44629048D01*
X-13800649Y44615601D01*
X-13747395Y44614182D01*
X-13701951Y44624557D01*
X-13669984Y44646493D01*
X-13659662Y44665002D01*
X-13661211Y44694686D01*
X-13686860Y44717385D01*
X-13736540Y44733060D01*
X-13790969Y44740305D01*
X-13874736Y44754127D01*
X-13936967Y44780204D01*
X-13978493Y44819301D01*
X-14000147Y44872180D01*
X-14003147Y44934874D01*
X-13988329Y45000358D01*
X-13954546Y45049856D01*
X-13901495Y45083592D01*
X-13828874Y45101793D01*
X-13775072Y45105361D01*
X-13715983Y45103548D01*
G36*
X-13715983Y45103548D02*
G01*
X-13668366Y45094518D01*
X-13618966Y45075630D01*
X-13613688Y45073223D01*
X-13576226Y45053524D01*
X-13550283Y45035219D01*
X-13541897Y45023492D01*
X-13549883Y45004368D01*
X-13569280Y44976150D01*
X-13577890Y44965616D01*
X-13613372Y44924153D01*
X-13659115Y44951142D01*
X-13702650Y44969122D01*
X-13752950Y44978733D01*
X-13801188Y44979340D01*
X-13838533Y44970309D01*
X-13847495Y44964673D01*
X-13864563Y44938829D01*
X-13866637Y44909059D01*
X-13853866Y44885803D01*
X-13846312Y44881292D01*
X-13823675Y44875691D01*
X-13783885Y44869108D01*
X-13734834Y44862817D01*
X-13725785Y44861830D01*
X-13647004Y44848202D01*
X-13589864Y44825054D01*
X-13551970Y44790248D01*
X-13530921Y44741646D01*
X-13524365Y44682282D01*
X-13533423Y44614802D01*
X-13562836Y44561812D01*
X-13612722Y44523217D01*
X-13683200Y44498919D01*
X-13761435Y44489333D01*
X-13825234Y44489448D01*
X-13876984Y44498155D01*
X-13912327Y44510175D01*
X-13956983Y44531120D01*
X-13998253Y44555426D01*
X-14012921Y44566124D01*
X-14050643Y44596916D01*
X-14005148Y44642951D01*
X-13959653Y44688987D01*
X-13907928Y44654757D01*
X-13856048Y44629048D01*
X-13800649Y44615601D01*
X-13747395Y44614182D01*
X-13701951Y44624557D01*
X-13669984Y44646493D01*
X-13659662Y44665002D01*
X-13661211Y44694686D01*
X-13686860Y44717385D01*
X-13736540Y44733060D01*
X-13790969Y44740305D01*
X-13874736Y44754127D01*
X-13936967Y44780204D01*
X-13978493Y44819301D01*
X-14000147Y44872180D01*
X-14003147Y44934874D01*
X-13988329Y45000358D01*
X-13954546Y45049856D01*
X-13901495Y45083592D01*
X-13828874Y45101793D01*
X-13775072Y45105361D01*
X-13715983Y45103548D01*
G37*
X-11989579Y43918587D02*
X-11869010Y43918587D01*
X-11857348Y43913535D01*
X-11826002Y43909571D01*
X-11780429Y43907232D01*
X-11749554Y43906831D01*
X-11694019Y43907217D01*
X-11658967Y43909025D01*
X-11639738Y43913227D01*
X-11631670Y43920797D01*
X-11630099Y43931782D01*
X-11640879Y43965619D01*
X-11668020Y43999060D01*
X-11703723Y44024728D01*
X-11739440Y44035228D01*
X-11787952Y44025914D01*
X-11829947Y43998987D01*
X-11859064Y43960173D01*
X-11869010Y43918587D01*
X-11989579Y43918587D01*
X-11987401Y43949764D01*
X-11965945Y44029051D01*
X-11929530Y44088737D01*
X-11877703Y44129451D01*
X-11810010Y44151821D01*
X-11773338Y44156129D01*
X-11697419Y44155030D01*
X-11637315Y44139403D01*
X-11586979Y44107152D01*
X-11562607Y44083060D01*
X-11522655Y44026105D01*
X-11499758Y43960035D01*
X-11491892Y43878818D01*
X-11491852Y43872252D01*
X-11491782Y43806237D01*
X-11871736Y43806237D01*
X-11863637Y43771658D01*
X-11849013Y43740341D01*
X-11823419Y43707709D01*
X-11818065Y43702500D01*
X-11772057Y43674306D01*
X-11719590Y43669525D01*
X-11659197Y43688074D01*
X-11648960Y43693069D01*
X-11617561Y43708255D01*
X-11596530Y43716906D01*
X-11592861Y43717707D01*
X-11580052Y43709937D01*
X-11555622Y43690928D01*
X-11543221Y43680540D01*
X-11517524Y43656679D01*
X-11509085Y43640923D01*
X-11514942Y43626429D01*
X-11518072Y43622466D01*
X-11539275Y43605121D01*
X-11574262Y43584041D01*
X-11598663Y43571735D01*
X-11667928Y43550054D01*
X-11744612Y43543029D01*
X-11817235Y43551353D01*
X-11837574Y43557314D01*
X-11900524Y43591048D01*
X-11947185Y43642955D01*
X-11977827Y43713541D01*
X-11992718Y43803308D01*
X-11994353Y43850247D01*
X-11989579Y43918587D01*
G36*
X-11989579Y43918587D02*
G01*
X-11869010Y43918587D01*
X-11857348Y43913535D01*
X-11826002Y43909571D01*
X-11780429Y43907232D01*
X-11749554Y43906831D01*
X-11694019Y43907217D01*
X-11658967Y43909025D01*
X-11639738Y43913227D01*
X-11631670Y43920797D01*
X-11630099Y43931782D01*
X-11640879Y43965619D01*
X-11668020Y43999060D01*
X-11703723Y44024728D01*
X-11739440Y44035228D01*
X-11787952Y44025914D01*
X-11829947Y43998987D01*
X-11859064Y43960173D01*
X-11869010Y43918587D01*
X-11989579Y43918587D01*
X-11987401Y43949764D01*
X-11965945Y44029051D01*
X-11929530Y44088737D01*
X-11877703Y44129451D01*
X-11810010Y44151821D01*
X-11773338Y44156129D01*
X-11697419Y44155030D01*
X-11637315Y44139403D01*
X-11586979Y44107152D01*
X-11562607Y44083060D01*
X-11522655Y44026105D01*
X-11499758Y43960035D01*
X-11491892Y43878818D01*
X-11491852Y43872252D01*
X-11491782Y43806237D01*
X-11871736Y43806237D01*
X-11863637Y43771658D01*
X-11849013Y43740341D01*
X-11823419Y43707709D01*
X-11818065Y43702500D01*
X-11772057Y43674306D01*
X-11719590Y43669525D01*
X-11659197Y43688074D01*
X-11648960Y43693069D01*
X-11617561Y43708255D01*
X-11596530Y43716906D01*
X-11592861Y43717707D01*
X-11580052Y43709937D01*
X-11555622Y43690928D01*
X-11543221Y43680540D01*
X-11517524Y43656679D01*
X-11509085Y43640923D01*
X-11514942Y43626429D01*
X-11518072Y43622466D01*
X-11539275Y43605121D01*
X-11574262Y43584041D01*
X-11598663Y43571735D01*
X-11667928Y43550054D01*
X-11744612Y43543029D01*
X-11817235Y43551353D01*
X-11837574Y43557314D01*
X-11900524Y43591048D01*
X-11947185Y43642955D01*
X-11977827Y43713541D01*
X-11992718Y43803308D01*
X-11994353Y43850247D01*
X-11989579Y43918587D01*
G37*
X-15436482Y44877701D02*
X-15310582Y44877701D01*
X-15307115Y44869442D01*
X-15292863Y44864887D01*
X-15263470Y44862935D01*
X-15214575Y44862483D01*
X-15195748Y44862475D01*
X-15138467Y44863157D01*
X-15102141Y44865636D01*
X-15082604Y44870557D01*
X-15075690Y44878566D01*
X-15075445Y44881138D01*
X-15083336Y44901577D01*
X-15103085Y44930211D01*
X-15111575Y44940237D01*
X-15143094Y44968592D01*
X-15175949Y44979741D01*
X-15193651Y44980673D01*
X-15241539Y44969019D01*
X-15281699Y44937715D01*
X-15307173Y44892248D01*
X-15307625Y44890767D01*
X-15310582Y44877701D01*
X-15436482Y44877701D01*
X-15422392Y44944490D01*
X-15396038Y44999975D01*
X-15363807Y45039361D01*
X-15304217Y45082069D01*
X-15234168Y45104891D01*
X-15159661Y45106954D01*
X-15086699Y45087386D01*
X-15074168Y45081486D01*
X-15030799Y45049717D01*
X-14989790Y45003354D01*
X-14959168Y44952304D01*
X-14950459Y44928834D01*
X-14942512Y44886909D01*
X-14937774Y44836243D01*
X-14937199Y44815321D01*
X-14937129Y44749307D01*
X-15317083Y44749307D01*
X-15308983Y44714727D01*
X-15289104Y44673830D01*
X-15254347Y44638486D01*
X-15212998Y44615718D01*
X-15186649Y44610990D01*
X-15150916Y44616727D01*
X-15108282Y44631118D01*
X-15093799Y44637738D01*
X-15040240Y44664487D01*
X-14994533Y44629624D01*
X-14968158Y44606045D01*
X-14954124Y44586583D01*
X-14953414Y44580871D01*
X-14965951Y44567027D01*
X-14993428Y44545988D01*
X-15018366Y44529575D01*
X-15085664Y44500070D01*
X-15161110Y44486716D01*
X-15235888Y44490188D01*
X-15295495Y44508337D01*
X-15356941Y44547216D01*
X-15400608Y44598405D01*
X-15427926Y44664633D01*
X-15440322Y44748629D01*
X-15441421Y44787064D01*
X-15437022Y44875139D01*
X-15436482Y44877701D01*
G36*
X-15436482Y44877701D02*
G01*
X-15310582Y44877701D01*
X-15307115Y44869442D01*
X-15292863Y44864887D01*
X-15263470Y44862935D01*
X-15214575Y44862483D01*
X-15195748Y44862475D01*
X-15138467Y44863157D01*
X-15102141Y44865636D01*
X-15082604Y44870557D01*
X-15075690Y44878566D01*
X-15075445Y44881138D01*
X-15083336Y44901577D01*
X-15103085Y44930211D01*
X-15111575Y44940237D01*
X-15143094Y44968592D01*
X-15175949Y44979741D01*
X-15193651Y44980673D01*
X-15241539Y44969019D01*
X-15281699Y44937715D01*
X-15307173Y44892248D01*
X-15307625Y44890767D01*
X-15310582Y44877701D01*
X-15436482Y44877701D01*
X-15422392Y44944490D01*
X-15396038Y44999975D01*
X-15363807Y45039361D01*
X-15304217Y45082069D01*
X-15234168Y45104891D01*
X-15159661Y45106954D01*
X-15086699Y45087386D01*
X-15074168Y45081486D01*
X-15030799Y45049717D01*
X-14989790Y45003354D01*
X-14959168Y44952304D01*
X-14950459Y44928834D01*
X-14942512Y44886909D01*
X-14937774Y44836243D01*
X-14937199Y44815321D01*
X-14937129Y44749307D01*
X-15317083Y44749307D01*
X-15308983Y44714727D01*
X-15289104Y44673830D01*
X-15254347Y44638486D01*
X-15212998Y44615718D01*
X-15186649Y44610990D01*
X-15150916Y44616727D01*
X-15108282Y44631118D01*
X-15093799Y44637738D01*
X-15040240Y44664487D01*
X-14994533Y44629624D01*
X-14968158Y44606045D01*
X-14954124Y44586583D01*
X-14953414Y44580871D01*
X-14965951Y44567027D01*
X-14993428Y44545988D01*
X-15018366Y44529575D01*
X-15085664Y44500070D01*
X-15161110Y44486716D01*
X-15235888Y44490188D01*
X-15295495Y44508337D01*
X-15356941Y44547216D01*
X-15400608Y44598405D01*
X-15427926Y44664633D01*
X-15440322Y44748629D01*
X-15441421Y44787064D01*
X-15437022Y44875139D01*
X-15436482Y44877701D01*
G37*
X-13018254Y43728176D02*
X-12894492Y43728176D01*
X-12883587Y43700575D01*
X-12851255Y43680796D01*
X-12799090Y43670181D01*
X-12771213Y43668772D01*
X-12724753Y43672380D01*
X-12693871Y43686403D01*
X-12686336Y43693069D01*
X-12665924Y43729334D01*
X-12661188Y43762227D01*
X-12661188Y43806237D01*
X-12722487Y43806237D01*
X-12793744Y43802605D01*
X-12843724Y43791182D01*
X-12875304Y43771176D01*
X-12882374Y43762257D01*
X-12894492Y43728176D01*
X-13018254Y43728176D01*
X-13016029Y43767544D01*
X-12993337Y43824756D01*
X-12962376Y43863420D01*
X-12943624Y43880136D01*
X-12925267Y43891122D01*
X-12901381Y43897820D01*
X-12866043Y43901674D01*
X-12813331Y43904127D01*
X-12792423Y43904832D01*
X-12661188Y43909121D01*
X-12661380Y43948842D01*
X-12666463Y43990595D01*
X-12684838Y44015842D01*
X-12721961Y44031970D01*
X-12722957Y44032258D01*
X-12775590Y44038600D01*
X-12827094Y44030316D01*
X-12865370Y44010173D01*
X-12880728Y44000227D01*
X-12897270Y44001603D01*
X-12922725Y44016013D01*
X-12937672Y44026183D01*
X-12966909Y44047912D01*
X-12985020Y44064200D01*
X-12987926Y44068863D01*
X-12975960Y44092995D01*
X-12940604Y44121815D01*
X-12925247Y44131539D01*
X-12881099Y44148286D01*
X-12821602Y44157773D01*
X-12755513Y44159905D01*
X-12691589Y44154583D01*
X-12638589Y44141710D01*
X-12623269Y44134890D01*
X-12593572Y44117026D01*
X-12570780Y44096907D01*
X-12553917Y44071038D01*
X-12542002Y44035927D01*
X-12534058Y43988080D01*
X-12529106Y43924004D01*
X-12526169Y43840206D01*
X-12525053Y43784232D01*
X-12520948Y43542178D01*
X-12591068Y43542178D01*
X-12633607Y43543962D01*
X-12655524Y43550058D01*
X-12661188Y43560294D01*
X-12664179Y43571363D01*
X-12677549Y43569246D01*
X-12695767Y43560371D01*
X-12741376Y43546767D01*
X-12799993Y43543101D01*
X-12861646Y43549097D01*
X-12916362Y43564479D01*
X-12921270Y43566614D01*
X-12971277Y43601745D01*
X-13004244Y43650581D01*
X-13019413Y43707667D01*
X-13018254Y43728176D01*
G36*
X-13018254Y43728176D02*
G01*
X-12894492Y43728176D01*
X-12883587Y43700575D01*
X-12851255Y43680796D01*
X-12799090Y43670181D01*
X-12771213Y43668772D01*
X-12724753Y43672380D01*
X-12693871Y43686403D01*
X-12686336Y43693069D01*
X-12665924Y43729334D01*
X-12661188Y43762227D01*
X-12661188Y43806237D01*
X-12722487Y43806237D01*
X-12793744Y43802605D01*
X-12843724Y43791182D01*
X-12875304Y43771176D01*
X-12882374Y43762257D01*
X-12894492Y43728176D01*
X-13018254Y43728176D01*
X-13016029Y43767544D01*
X-12993337Y43824756D01*
X-12962376Y43863420D01*
X-12943624Y43880136D01*
X-12925267Y43891122D01*
X-12901381Y43897820D01*
X-12866043Y43901674D01*
X-12813331Y43904127D01*
X-12792423Y43904832D01*
X-12661188Y43909121D01*
X-12661380Y43948842D01*
X-12666463Y43990595D01*
X-12684838Y44015842D01*
X-12721961Y44031970D01*
X-12722957Y44032258D01*
X-12775590Y44038600D01*
X-12827094Y44030316D01*
X-12865370Y44010173D01*
X-12880728Y44000227D01*
X-12897270Y44001603D01*
X-12922725Y44016013D01*
X-12937672Y44026183D01*
X-12966909Y44047912D01*
X-12985020Y44064200D01*
X-12987926Y44068863D01*
X-12975960Y44092995D01*
X-12940604Y44121815D01*
X-12925247Y44131539D01*
X-12881099Y44148286D01*
X-12821602Y44157773D01*
X-12755513Y44159905D01*
X-12691589Y44154583D01*
X-12638589Y44141710D01*
X-12623269Y44134890D01*
X-12593572Y44117026D01*
X-12570780Y44096907D01*
X-12553917Y44071038D01*
X-12542002Y44035927D01*
X-12534058Y43988080D01*
X-12529106Y43924004D01*
X-12526169Y43840206D01*
X-12525053Y43784232D01*
X-12520948Y43542178D01*
X-12591068Y43542178D01*
X-12633607Y43543962D01*
X-12655524Y43550058D01*
X-12661188Y43560294D01*
X-12664179Y43571363D01*
X-12677549Y43569246D01*
X-12695767Y43560371D01*
X-12741376Y43546767D01*
X-12799993Y43543101D01*
X-12861646Y43549097D01*
X-12916362Y43564479D01*
X-12921270Y43566614D01*
X-12971277Y43601745D01*
X-13004244Y43650581D01*
X-13019413Y43707667D01*
X-13018254Y43728176D01*
G37*
X-15435955Y43738434D02*
X-15314356Y43738434D01*
X-15303726Y43705839D01*
X-15286410Y43687495D01*
X-15251652Y43673621D01*
X-15205773Y43668083D01*
X-15158988Y43670809D01*
X-15121514Y43681726D01*
X-15111015Y43688731D01*
X-15092668Y43721096D01*
X-15088020Y43757889D01*
X-15088020Y43806237D01*
X-15157582Y43806237D01*
X-15223667Y43801150D01*
X-15273764Y43786737D01*
X-15304929Y43764271D01*
X-15314356Y43738434D01*
X-15435955Y43738434D01*
X-15433987Y43780353D01*
X-15410710Y43836155D01*
X-15366948Y43878353D01*
X-15360899Y43882192D01*
X-15334907Y43894691D01*
X-15302735Y43902260D01*
X-15257760Y43905939D01*
X-15204331Y43906784D01*
X-15088020Y43906831D01*
X-15088020Y43955589D01*
X-15092953Y43993419D01*
X-15105543Y44018764D01*
X-15107017Y44020113D01*
X-15135034Y44031200D01*
X-15177326Y44035497D01*
X-15224064Y44033385D01*
X-15265418Y44025244D01*
X-15289957Y44013035D01*
X-15303253Y44003254D01*
X-15317294Y44001387D01*
X-15336671Y44009400D01*
X-15365976Y44029261D01*
X-15409803Y44062937D01*
X-15413825Y44066091D01*
X-15411764Y44077764D01*
X-15394568Y44097178D01*
X-15368433Y44118752D01*
X-15339552Y44136904D01*
X-15330478Y44141191D01*
X-15297380Y44149744D01*
X-15248880Y44155845D01*
X-15194695Y44158292D01*
X-15192161Y44158297D01*
X-15114210Y44153445D01*
X-15055055Y44137661D01*
X-15010023Y44109052D01*
X-14978246Y44071581D01*
X-14968366Y44055589D01*
X-14961073Y44038837D01*
X-14955974Y44017408D01*
X-14952679Y43987384D01*
X-14950797Y43944846D01*
X-14949937Y43885878D01*
X-14949707Y43806560D01*
X-14949703Y43785516D01*
X-14949703Y43542178D01*
X-15010059Y43542178D01*
X-15048557Y43544874D01*
X-15077023Y43551705D01*
X-15084155Y43555917D01*
X-15103652Y43563187D01*
X-15123566Y43555917D01*
X-15156353Y43546840D01*
X-15203978Y43543187D01*
X-15256764Y43544772D01*
X-15305036Y43551411D01*
X-15333218Y43559928D01*
X-15387753Y43594937D01*
X-15421835Y43643521D01*
X-15437157Y43708118D01*
X-15437299Y43709777D01*
X-15435955Y43738434D01*
G36*
X-15435955Y43738434D02*
G01*
X-15314356Y43738434D01*
X-15303726Y43705839D01*
X-15286410Y43687495D01*
X-15251652Y43673621D01*
X-15205773Y43668083D01*
X-15158988Y43670809D01*
X-15121514Y43681726D01*
X-15111015Y43688731D01*
X-15092668Y43721096D01*
X-15088020Y43757889D01*
X-15088020Y43806237D01*
X-15157582Y43806237D01*
X-15223667Y43801150D01*
X-15273764Y43786737D01*
X-15304929Y43764271D01*
X-15314356Y43738434D01*
X-15435955Y43738434D01*
X-15433987Y43780353D01*
X-15410710Y43836155D01*
X-15366948Y43878353D01*
X-15360899Y43882192D01*
X-15334907Y43894691D01*
X-15302735Y43902260D01*
X-15257760Y43905939D01*
X-15204331Y43906784D01*
X-15088020Y43906831D01*
X-15088020Y43955589D01*
X-15092953Y43993419D01*
X-15105543Y44018764D01*
X-15107017Y44020113D01*
X-15135034Y44031200D01*
X-15177326Y44035497D01*
X-15224064Y44033385D01*
X-15265418Y44025244D01*
X-15289957Y44013035D01*
X-15303253Y44003254D01*
X-15317294Y44001387D01*
X-15336671Y44009400D01*
X-15365976Y44029261D01*
X-15409803Y44062937D01*
X-15413825Y44066091D01*
X-15411764Y44077764D01*
X-15394568Y44097178D01*
X-15368433Y44118752D01*
X-15339552Y44136904D01*
X-15330478Y44141191D01*
X-15297380Y44149744D01*
X-15248880Y44155845D01*
X-15194695Y44158292D01*
X-15192161Y44158297D01*
X-15114210Y44153445D01*
X-15055055Y44137661D01*
X-15010023Y44109052D01*
X-14978246Y44071581D01*
X-14968366Y44055589D01*
X-14961073Y44038837D01*
X-14955974Y44017408D01*
X-14952679Y43987384D01*
X-14950797Y43944846D01*
X-14949937Y43885878D01*
X-14949707Y43806560D01*
X-14949703Y43785516D01*
X-14949703Y43542178D01*
X-15010059Y43542178D01*
X-15048557Y43544874D01*
X-15077023Y43551705D01*
X-15084155Y43555917D01*
X-15103652Y43563187D01*
X-15123566Y43555917D01*
X-15156353Y43546840D01*
X-15203978Y43543187D01*
X-15256764Y43544772D01*
X-15305036Y43551411D01*
X-15333218Y43559928D01*
X-15387753Y43594937D01*
X-15421835Y43643521D01*
X-15437157Y43708118D01*
X-15437299Y43709777D01*
X-15435955Y43738434D01*
G37*
X-16005940Y44789350D02*
X-15867624Y44789350D01*
X-15864097Y44719746D01*
X-15852215Y44671431D01*
X-15830020Y44641369D01*
X-15795559Y44626529D01*
X-15760742Y44623564D01*
X-15721329Y44626972D01*
X-15695171Y44640383D01*
X-15678814Y44658104D01*
X-15665937Y44677165D01*
X-15658272Y44698399D01*
X-15654861Y44728151D01*
X-15654749Y44772764D01*
X-15655897Y44810120D01*
X-15658532Y44866396D01*
X-15662456Y44903342D01*
X-15669063Y44926777D01*
X-15679749Y44942520D01*
X-15689833Y44951620D01*
X-15731970Y44971463D01*
X-15781840Y44974668D01*
X-15810476Y44967832D01*
X-15838828Y44943536D01*
X-15857609Y44896272D01*
X-15866712Y44826376D01*
X-15867624Y44789350D01*
X-16005940Y44789350D01*
X-16005940Y45101386D01*
X-15936782Y45101386D01*
X-15895260Y45099744D01*
X-15873838Y45093913D01*
X-15867626Y45082539D01*
X-15867624Y45082202D01*
X-15864742Y45071062D01*
X-15852030Y45072327D01*
X-15826757Y45084567D01*
X-15767869Y45103293D01*
X-15701615Y45105261D01*
X-15638759Y45090816D01*
X-15612247Y45077718D01*
X-15579553Y45054894D01*
X-15555725Y45030004D01*
X-15539406Y44998751D01*
X-15529240Y44956834D01*
X-15523872Y44899956D01*
X-15521944Y44823816D01*
X-15521831Y44791083D01*
X-15522161Y44719344D01*
X-15523527Y44668073D01*
X-15526500Y44632596D01*
X-15531649Y44608237D01*
X-15539543Y44590320D01*
X-15547757Y44578098D01*
X-15600187Y44526095D01*
X-15661930Y44494816D01*
X-15728536Y44485408D01*
X-15795558Y44499020D01*
X-15816792Y44508646D01*
X-15867624Y44535141D01*
X-15867624Y44119948D01*
X-15830525Y44139132D01*
X-15781643Y44153975D01*
X-15721561Y44157778D01*
X-15661564Y44150757D01*
X-15616256Y44134987D01*
X-15578675Y44104953D01*
X-15546564Y44061976D01*
X-15544150Y44057564D01*
X-15533967Y44036779D01*
X-15526530Y44015830D01*
X-15521411Y43990452D01*
X-15518181Y43956382D01*
X-15516413Y43909359D01*
X-15515677Y43845118D01*
X-15515544Y43772824D01*
X-15515544Y43542178D01*
X-15653861Y43542178D01*
X-15653861Y43967467D01*
X-15692549Y44000021D01*
X-15732738Y44026060D01*
X-15770797Y44030795D01*
X-15809066Y44018611D01*
X-15829462Y44006680D01*
X-15844642Y43989687D01*
X-15855438Y43964005D01*
X-15862683Y43926009D01*
X-15867208Y43872074D01*
X-15869844Y43798575D01*
X-15870772Y43749653D01*
X-15873911Y43548465D01*
X-15939926Y43544664D01*
X-16005940Y43540864D01*
X-16005940Y44789350D01*
G36*
X-16005940Y44789350D02*
G01*
X-15867624Y44789350D01*
X-15864097Y44719746D01*
X-15852215Y44671431D01*
X-15830020Y44641369D01*
X-15795559Y44626529D01*
X-15760742Y44623564D01*
X-15721329Y44626972D01*
X-15695171Y44640383D01*
X-15678814Y44658104D01*
X-15665937Y44677165D01*
X-15658272Y44698399D01*
X-15654861Y44728151D01*
X-15654749Y44772764D01*
X-15655897Y44810120D01*
X-15658532Y44866396D01*
X-15662456Y44903342D01*
X-15669063Y44926777D01*
X-15679749Y44942520D01*
X-15689833Y44951620D01*
X-15731970Y44971463D01*
X-15781840Y44974668D01*
X-15810476Y44967832D01*
X-15838828Y44943536D01*
X-15857609Y44896272D01*
X-15866712Y44826376D01*
X-15867624Y44789350D01*
X-16005940Y44789350D01*
X-16005940Y45101386D01*
X-15936782Y45101386D01*
X-15895260Y45099744D01*
X-15873838Y45093913D01*
X-15867626Y45082539D01*
X-15867624Y45082202D01*
X-15864742Y45071062D01*
X-15852030Y45072327D01*
X-15826757Y45084567D01*
X-15767869Y45103293D01*
X-15701615Y45105261D01*
X-15638759Y45090816D01*
X-15612247Y45077718D01*
X-15579553Y45054894D01*
X-15555725Y45030004D01*
X-15539406Y44998751D01*
X-15529240Y44956834D01*
X-15523872Y44899956D01*
X-15521944Y44823816D01*
X-15521831Y44791083D01*
X-15522161Y44719344D01*
X-15523527Y44668073D01*
X-15526500Y44632596D01*
X-15531649Y44608237D01*
X-15539543Y44590320D01*
X-15547757Y44578098D01*
X-15600187Y44526095D01*
X-15661930Y44494816D01*
X-15728536Y44485408D01*
X-15795558Y44499020D01*
X-15816792Y44508646D01*
X-15867624Y44535141D01*
X-15867624Y44119948D01*
X-15830525Y44139132D01*
X-15781643Y44153975D01*
X-15721561Y44157778D01*
X-15661564Y44150757D01*
X-15616256Y44134987D01*
X-15578675Y44104953D01*
X-15546564Y44061976D01*
X-15544150Y44057564D01*
X-15533967Y44036779D01*
X-15526530Y44015830D01*
X-15521411Y43990452D01*
X-15518181Y43956382D01*
X-15516413Y43909359D01*
X-15515677Y43845118D01*
X-15515544Y43772824D01*
X-15515544Y43542178D01*
X-15653861Y43542178D01*
X-15653861Y43967467D01*
X-15692549Y44000021D01*
X-15732738Y44026060D01*
X-15770797Y44030795D01*
X-15809066Y44018611D01*
X-15829462Y44006680D01*
X-15844642Y43989687D01*
X-15855438Y43964005D01*
X-15862683Y43926009D01*
X-15867208Y43872074D01*
X-15869844Y43798575D01*
X-15870772Y43749653D01*
X-15873911Y43548465D01*
X-15939926Y43544664D01*
X-16005940Y43540864D01*
X-16005940Y44789350D01*
G37*
X-13353036Y49269982D02*
X-13296188Y48968430D01*
X-12876662Y48795488D01*
X-12625016Y48966605D01*
X-12554542Y49014250D01*
X-12490837Y49056790D01*
X-12436874Y49092285D01*
X-12395627Y49118790D01*
X-12370066Y49134364D01*
X-12363105Y49137722D01*
X-12350565Y49129086D01*
X-12323769Y49105208D01*
X-12285720Y49069141D01*
X-12239421Y49023933D01*
X-12187877Y48972636D01*
X-12134091Y48918299D01*
X-12081065Y48863972D01*
X-12031805Y48812705D01*
X-11989313Y48767549D01*
X-11956593Y48731554D01*
X-11936649Y48707770D01*
X-11931881Y48699810D01*
X-11938743Y48685135D01*
X-11957980Y48652986D01*
X-11987570Y48606508D01*
X-12025490Y48548844D01*
X-12069718Y48483140D01*
X-12095346Y48445664D01*
X-12142059Y48377232D01*
X-12183568Y48315480D01*
X-12217860Y48263481D01*
X-12242920Y48224308D01*
X-12256736Y48201035D01*
X-12258812Y48196145D01*
X-12254105Y48182245D01*
X-12241277Y48149850D01*
X-12222262Y48103515D01*
X-12198997Y48047794D01*
X-12173416Y47987242D01*
X-12147455Y47926414D01*
X-12123050Y47869864D01*
X-12102137Y47822148D01*
X-12086651Y47787819D01*
X-12078528Y47771432D01*
X-12078048Y47770788D01*
X-12065293Y47767659D01*
X-12031323Y47760679D01*
X-11979660Y47750533D01*
X-11913824Y47737908D01*
X-11837336Y47723491D01*
X-11792710Y47715177D01*
X-11710979Y47699616D01*
X-11637157Y47684808D01*
X-11574979Y47671564D01*
X-11528178Y47660695D01*
X-11500491Y47653011D01*
X-11494926Y47650573D01*
X-11489474Y47634070D01*
X-11485076Y47596800D01*
X-11481728Y47543120D01*
X-11479426Y47477388D01*
X-11478168Y47403963D01*
X-11477952Y47327204D01*
X-11478773Y47251468D01*
X-11480629Y47181114D01*
X-11483518Y47120500D01*
X-11487435Y47073984D01*
X-11492378Y47045925D01*
X-11495343Y47040084D01*
X-11513066Y47033083D01*
X-11550619Y47023073D01*
X-11603036Y47011231D01*
X-11665348Y46998733D01*
X-11687100Y46994690D01*
X-11791976Y46975480D01*
X-11874820Y46960009D01*
X-11938370Y46947663D01*
X-11985363Y46937827D01*
X-12018537Y46929886D01*
X-12040629Y46923224D01*
X-12054376Y46917227D01*
X-12062516Y46911281D01*
X-12063655Y46910106D01*
X-12075023Y46891174D01*
X-12092365Y46854331D01*
X-12113950Y46804087D01*
X-12138046Y46744954D01*
X-12162921Y46681444D01*
X-12186843Y46618068D01*
X-12208081Y46559338D01*
X-12224903Y46509765D01*
X-12235578Y46473861D01*
X-12238373Y46456138D01*
X-12238140Y46455517D01*
X-12228669Y46441030D01*
X-12207182Y46409156D01*
X-12175937Y46363211D01*
X-12137193Y46306515D01*
X-12093207Y46242383D01*
X-12080681Y46224158D01*
X-12036016Y46158086D01*
X-11996712Y46097800D01*
X-11964912Y46046765D01*
X-11942755Y46008440D01*
X-11932383Y45986289D01*
X-11931881Y45983568D01*
X-11940595Y45969264D01*
X-11964675Y45940928D01*
X-12001024Y45901604D01*
X-12046547Y45854339D01*
X-12098148Y45802177D01*
X-12152733Y45748165D01*
X-12207206Y45695347D01*
X-12258471Y45646769D01*
X-12303433Y45605477D01*
X-12338996Y45574515D01*
X-12362065Y45556930D01*
X-12368446Y45554059D01*
X-12383301Y45560822D01*
X-12413714Y45579061D01*
X-12454732Y45605703D01*
X-12486291Y45627148D01*
X-12543475Y45666497D01*
X-12611194Y45712829D01*
X-12679120Y45759087D01*
X-12715639Y45783845D01*
X-12839248Y45867453D01*
X-12943009Y45811350D01*
X-12990280Y45786772D01*
X-13030477Y45767669D01*
X-13057674Y45756773D01*
X-13064598Y45755257D01*
X-13072923Y45766451D01*
X-13089346Y45798083D01*
X-13112643Y45847235D01*
X-13141586Y45910990D01*
X-13174950Y45986429D01*
X-13211509Y46070636D01*
X-13250036Y46160692D01*
X-13289306Y46253679D01*
X-13328092Y46346680D01*
X-13365170Y46436777D01*
X-13399311Y46521052D01*
X-13429292Y46596587D01*
X-13453884Y46660466D01*
X-13471864Y46709769D01*
X-13482003Y46741579D01*
X-13483634Y46752504D01*
X-13470709Y46766439D01*
X-13442411Y46789060D01*
X-13404654Y46815667D01*
X-13401485Y46817772D01*
X-13303900Y46895886D01*
X-13225214Y46987018D01*
X-13166109Y47088255D01*
X-13127268Y47196682D01*
X-13109372Y47309386D01*
X-13113103Y47423452D01*
X-13139143Y47535966D01*
X-13188175Y47644015D01*
X-13202600Y47667655D01*
X-13277631Y47763113D01*
X-13366270Y47839768D01*
X-13465451Y47897220D01*
X-13572105Y47935071D01*
X-13683164Y47952922D01*
X-13795561Y47950375D01*
X-13906227Y47927030D01*
X-14012094Y47882490D01*
X-14110095Y47816355D01*
X-14140410Y47789513D01*
X-14217562Y47705488D01*
X-14273782Y47617034D01*
X-14312347Y47517885D01*
X-14333826Y47419697D01*
X-14339128Y47309303D01*
X-14321448Y47198360D01*
X-14282581Y47090619D01*
X-14224323Y46989831D01*
X-14148469Y46899744D01*
X-14056817Y46824108D01*
X-14044772Y46816136D01*
X-14006611Y46790026D01*
X-13977601Y46767405D01*
X-13963732Y46752961D01*
X-13963531Y46752504D01*
X-13966508Y46736879D01*
X-13978311Y46701418D01*
X-13997714Y46649038D01*
X-14023488Y46582655D01*
X-14054409Y46505186D01*
X-14089249Y46419550D01*
X-14126783Y46328663D01*
X-14165783Y46235441D01*
X-14205023Y46142803D01*
X-14243276Y46053665D01*
X-14279317Y45970945D01*
X-14311917Y45897559D01*
X-14339852Y45836425D01*
X-14361895Y45790459D01*
X-14376818Y45762579D01*
X-14382828Y45755257D01*
X-14401191Y45760959D01*
X-14435552Y45776251D01*
X-14479984Y45798401D01*
X-14504417Y45811350D01*
X-14608178Y45867453D01*
X-14731787Y45783845D01*
X-14794886Y45741013D01*
X-14863970Y45693878D01*
X-14928707Y45649497D01*
X-14961134Y45627148D01*
X-15006741Y45596523D01*
X-15045360Y45572253D01*
X-15071952Y45557413D01*
X-15080590Y45554276D01*
X-15093161Y45562739D01*
X-15120984Y45586364D01*
X-15161361Y45622698D01*
X-15211595Y45669289D01*
X-15268988Y45723683D01*
X-15305286Y45758608D01*
X-15368790Y45821004D01*
X-15423673Y45876812D01*
X-15467714Y45923646D01*
X-15498695Y45959118D01*
X-15514398Y45980839D01*
X-15515905Y45985248D01*
X-15508914Y46002015D01*
X-15489594Y46035918D01*
X-15460091Y46083524D01*
X-15422545Y46141401D01*
X-15379100Y46206116D01*
X-15366745Y46224158D01*
X-15321727Y46289733D01*
X-15281340Y46348772D01*
X-15247840Y46397958D01*
X-15223486Y46433972D01*
X-15210536Y46453498D01*
X-15209285Y46455517D01*
X-15211156Y46471078D01*
X-15221087Y46505291D01*
X-15237347Y46553645D01*
X-15258205Y46611629D01*
X-15281927Y46674730D01*
X-15306784Y46738437D01*
X-15331042Y46798239D01*
X-15352971Y46849624D01*
X-15370838Y46888081D01*
X-15382913Y46909098D01*
X-15383771Y46910106D01*
X-15391154Y46916112D01*
X-15403625Y46922052D01*
X-15423920Y46928540D01*
X-15454778Y46936191D01*
X-15498934Y46945620D01*
X-15559126Y46957441D01*
X-15638093Y46972271D01*
X-15738570Y46990723D01*
X-15760325Y46994690D01*
X-15824802Y47007147D01*
X-15881011Y47019334D01*
X-15923987Y47030074D01*
X-15948760Y47038191D01*
X-15952082Y47040084D01*
X-15957556Y47056862D01*
X-15962006Y47094355D01*
X-15965428Y47148206D01*
X-15967819Y47214056D01*
X-15969177Y47287547D01*
X-15969499Y47364320D01*
X-15968781Y47440017D01*
X-15967021Y47510280D01*
X-15964216Y47570750D01*
X-15960362Y47617070D01*
X-15955457Y47644881D01*
X-15952500Y47650573D01*
X-15936037Y47656314D01*
X-15898551Y47665655D01*
X-15843775Y47677785D01*
X-15775445Y47691893D01*
X-15697294Y47707170D01*
X-15654716Y47715177D01*
X-15573929Y47730279D01*
X-15501887Y47743960D01*
X-15442111Y47755533D01*
X-15398121Y47764313D01*
X-15373439Y47769613D01*
X-15369377Y47770788D01*
X-15362511Y47784035D01*
X-15347998Y47815943D01*
X-15327771Y47861953D01*
X-15303766Y47917508D01*
X-15277918Y47978047D01*
X-15252160Y48039014D01*
X-15228427Y48095849D01*
X-15208654Y48143994D01*
X-15194776Y48178890D01*
X-15188726Y48195979D01*
X-15188614Y48196726D01*
X-15195472Y48210207D01*
X-15214698Y48241230D01*
X-15244272Y48286711D01*
X-15282173Y48343568D01*
X-15326380Y48408717D01*
X-15352079Y48446138D01*
X-15398907Y48514753D01*
X-15440499Y48577048D01*
X-15474825Y48629871D01*
X-15499857Y48670073D01*
X-15513565Y48694500D01*
X-15515544Y48699976D01*
X-15507034Y48712722D01*
X-15483507Y48739937D01*
X-15447968Y48778572D01*
X-15403423Y48825577D01*
X-15352877Y48877905D01*
X-15299336Y48932505D01*
X-15245805Y48986330D01*
X-15195289Y49036330D01*
X-15150794Y49079457D01*
X-15115325Y49112661D01*
X-15091887Y49132894D01*
X-15084046Y49137722D01*
X-15071280Y49130933D01*
X-15040744Y49111858D01*
X-14995410Y49082439D01*
X-14938244Y49044619D01*
X-14872216Y49000339D01*
X-14822410Y48966605D01*
X-14570764Y48795488D01*
X-14361001Y48881959D01*
X-14151237Y48968430D01*
X-14094389Y49269982D01*
X-14037540Y49571534D01*
X-13409885Y49571534D01*
X-13353036Y49269982D01*
G36*
X-13353036Y49269982D02*
G01*
X-13296188Y48968430D01*
X-12876662Y48795488D01*
X-12625016Y48966605D01*
X-12554542Y49014250D01*
X-12490837Y49056790D01*
X-12436874Y49092285D01*
X-12395627Y49118790D01*
X-12370066Y49134364D01*
X-12363105Y49137722D01*
X-12350565Y49129086D01*
X-12323769Y49105208D01*
X-12285720Y49069141D01*
X-12239421Y49023933D01*
X-12187877Y48972636D01*
X-12134091Y48918299D01*
X-12081065Y48863972D01*
X-12031805Y48812705D01*
X-11989313Y48767549D01*
X-11956593Y48731554D01*
X-11936649Y48707770D01*
X-11931881Y48699810D01*
X-11938743Y48685135D01*
X-11957980Y48652986D01*
X-11987570Y48606508D01*
X-12025490Y48548844D01*
X-12069718Y48483140D01*
X-12095346Y48445664D01*
X-12142059Y48377232D01*
X-12183568Y48315480D01*
X-12217860Y48263481D01*
X-12242920Y48224308D01*
X-12256736Y48201035D01*
X-12258812Y48196145D01*
X-12254105Y48182245D01*
X-12241277Y48149850D01*
X-12222262Y48103515D01*
X-12198997Y48047794D01*
X-12173416Y47987242D01*
X-12147455Y47926414D01*
X-12123050Y47869864D01*
X-12102137Y47822148D01*
X-12086651Y47787819D01*
X-12078528Y47771432D01*
X-12078048Y47770788D01*
X-12065293Y47767659D01*
X-12031323Y47760679D01*
X-11979660Y47750533D01*
X-11913824Y47737908D01*
X-11837336Y47723491D01*
X-11792710Y47715177D01*
X-11710979Y47699616D01*
X-11637157Y47684808D01*
X-11574979Y47671564D01*
X-11528178Y47660695D01*
X-11500491Y47653011D01*
X-11494926Y47650573D01*
X-11489474Y47634070D01*
X-11485076Y47596800D01*
X-11481728Y47543120D01*
X-11479426Y47477388D01*
X-11478168Y47403963D01*
X-11477952Y47327204D01*
X-11478773Y47251468D01*
X-11480629Y47181114D01*
X-11483518Y47120500D01*
X-11487435Y47073984D01*
X-11492378Y47045925D01*
X-11495343Y47040084D01*
X-11513066Y47033083D01*
X-11550619Y47023073D01*
X-11603036Y47011231D01*
X-11665348Y46998733D01*
X-11687100Y46994690D01*
X-11791976Y46975480D01*
X-11874820Y46960009D01*
X-11938370Y46947663D01*
X-11985363Y46937827D01*
X-12018537Y46929886D01*
X-12040629Y46923224D01*
X-12054376Y46917227D01*
X-12062516Y46911281D01*
X-12063655Y46910106D01*
X-12075023Y46891174D01*
X-12092365Y46854331D01*
X-12113950Y46804087D01*
X-12138046Y46744954D01*
X-12162921Y46681444D01*
X-12186843Y46618068D01*
X-12208081Y46559338D01*
X-12224903Y46509765D01*
X-12235578Y46473861D01*
X-12238373Y46456138D01*
X-12238140Y46455517D01*
X-12228669Y46441030D01*
X-12207182Y46409156D01*
X-12175937Y46363211D01*
X-12137193Y46306515D01*
X-12093207Y46242383D01*
X-12080681Y46224158D01*
X-12036016Y46158086D01*
X-11996712Y46097800D01*
X-11964912Y46046765D01*
X-11942755Y46008440D01*
X-11932383Y45986289D01*
X-11931881Y45983568D01*
X-11940595Y45969264D01*
X-11964675Y45940928D01*
X-12001024Y45901604D01*
X-12046547Y45854339D01*
X-12098148Y45802177D01*
X-12152733Y45748165D01*
X-12207206Y45695347D01*
X-12258471Y45646769D01*
X-12303433Y45605477D01*
X-12338996Y45574515D01*
X-12362065Y45556930D01*
X-12368446Y45554059D01*
X-12383301Y45560822D01*
X-12413714Y45579061D01*
X-12454732Y45605703D01*
X-12486291Y45627148D01*
X-12543475Y45666497D01*
X-12611194Y45712829D01*
X-12679120Y45759087D01*
X-12715639Y45783845D01*
X-12839248Y45867453D01*
X-12943009Y45811350D01*
X-12990280Y45786772D01*
X-13030477Y45767669D01*
X-13057674Y45756773D01*
X-13064598Y45755257D01*
X-13072923Y45766451D01*
X-13089346Y45798083D01*
X-13112643Y45847235D01*
X-13141586Y45910990D01*
X-13174950Y45986429D01*
X-13211509Y46070636D01*
X-13250036Y46160692D01*
X-13289306Y46253679D01*
X-13328092Y46346680D01*
X-13365170Y46436777D01*
X-13399311Y46521052D01*
X-13429292Y46596587D01*
X-13453884Y46660466D01*
X-13471864Y46709769D01*
X-13482003Y46741579D01*
X-13483634Y46752504D01*
X-13470709Y46766439D01*
X-13442411Y46789060D01*
X-13404654Y46815667D01*
X-13401485Y46817772D01*
X-13303900Y46895886D01*
X-13225214Y46987018D01*
X-13166109Y47088255D01*
X-13127268Y47196682D01*
X-13109372Y47309386D01*
X-13113103Y47423452D01*
X-13139143Y47535966D01*
X-13188175Y47644015D01*
X-13202600Y47667655D01*
X-13277631Y47763113D01*
X-13366270Y47839768D01*
X-13465451Y47897220D01*
X-13572105Y47935071D01*
X-13683164Y47952922D01*
X-13795561Y47950375D01*
X-13906227Y47927030D01*
X-14012094Y47882490D01*
X-14110095Y47816355D01*
X-14140410Y47789513D01*
X-14217562Y47705488D01*
X-14273782Y47617034D01*
X-14312347Y47517885D01*
X-14333826Y47419697D01*
X-14339128Y47309303D01*
X-14321448Y47198360D01*
X-14282581Y47090619D01*
X-14224323Y46989831D01*
X-14148469Y46899744D01*
X-14056817Y46824108D01*
X-14044772Y46816136D01*
X-14006611Y46790026D01*
X-13977601Y46767405D01*
X-13963732Y46752961D01*
X-13963531Y46752504D01*
X-13966508Y46736879D01*
X-13978311Y46701418D01*
X-13997714Y46649038D01*
X-14023488Y46582655D01*
X-14054409Y46505186D01*
X-14089249Y46419550D01*
X-14126783Y46328663D01*
X-14165783Y46235441D01*
X-14205023Y46142803D01*
X-14243276Y46053665D01*
X-14279317Y45970945D01*
X-14311917Y45897559D01*
X-14339852Y45836425D01*
X-14361895Y45790459D01*
X-14376818Y45762579D01*
X-14382828Y45755257D01*
X-14401191Y45760959D01*
X-14435552Y45776251D01*
X-14479984Y45798401D01*
X-14504417Y45811350D01*
X-14608178Y45867453D01*
X-14731787Y45783845D01*
X-14794886Y45741013D01*
X-14863970Y45693878D01*
X-14928707Y45649497D01*
X-14961134Y45627148D01*
X-15006741Y45596523D01*
X-15045360Y45572253D01*
X-15071952Y45557413D01*
X-15080590Y45554276D01*
X-15093161Y45562739D01*
X-15120984Y45586364D01*
X-15161361Y45622698D01*
X-15211595Y45669289D01*
X-15268988Y45723683D01*
X-15305286Y45758608D01*
X-15368790Y45821004D01*
X-15423673Y45876812D01*
X-15467714Y45923646D01*
X-15498695Y45959118D01*
X-15514398Y45980839D01*
X-15515905Y45985248D01*
X-15508914Y46002015D01*
X-15489594Y46035918D01*
X-15460091Y46083524D01*
X-15422545Y46141401D01*
X-15379100Y46206116D01*
X-15366745Y46224158D01*
X-15321727Y46289733D01*
X-15281340Y46348772D01*
X-15247840Y46397958D01*
X-15223486Y46433972D01*
X-15210536Y46453498D01*
X-15209285Y46455517D01*
X-15211156Y46471078D01*
X-15221087Y46505291D01*
X-15237347Y46553645D01*
X-15258205Y46611629D01*
X-15281927Y46674730D01*
X-15306784Y46738437D01*
X-15331042Y46798239D01*
X-15352971Y46849624D01*
X-15370838Y46888081D01*
X-15382913Y46909098D01*
X-15383771Y46910106D01*
X-15391154Y46916112D01*
X-15403625Y46922052D01*
X-15423920Y46928540D01*
X-15454778Y46936191D01*
X-15498934Y46945620D01*
X-15559126Y46957441D01*
X-15638093Y46972271D01*
X-15738570Y46990723D01*
X-15760325Y46994690D01*
X-15824802Y47007147D01*
X-15881011Y47019334D01*
X-15923987Y47030074D01*
X-15948760Y47038191D01*
X-15952082Y47040084D01*
X-15957556Y47056862D01*
X-15962006Y47094355D01*
X-15965428Y47148206D01*
X-15967819Y47214056D01*
X-15969177Y47287547D01*
X-15969499Y47364320D01*
X-15968781Y47440017D01*
X-15967021Y47510280D01*
X-15964216Y47570750D01*
X-15960362Y47617070D01*
X-15955457Y47644881D01*
X-15952500Y47650573D01*
X-15936037Y47656314D01*
X-15898551Y47665655D01*
X-15843775Y47677785D01*
X-15775445Y47691893D01*
X-15697294Y47707170D01*
X-15654716Y47715177D01*
X-15573929Y47730279D01*
X-15501887Y47743960D01*
X-15442111Y47755533D01*
X-15398121Y47764313D01*
X-15373439Y47769613D01*
X-15369377Y47770788D01*
X-15362511Y47784035D01*
X-15347998Y47815943D01*
X-15327771Y47861953D01*
X-15303766Y47917508D01*
X-15277918Y47978047D01*
X-15252160Y48039014D01*
X-15228427Y48095849D01*
X-15208654Y48143994D01*
X-15194776Y48178890D01*
X-15188726Y48195979D01*
X-15188614Y48196726D01*
X-15195472Y48210207D01*
X-15214698Y48241230D01*
X-15244272Y48286711D01*
X-15282173Y48343568D01*
X-15326380Y48408717D01*
X-15352079Y48446138D01*
X-15398907Y48514753D01*
X-15440499Y48577048D01*
X-15474825Y48629871D01*
X-15499857Y48670073D01*
X-15513565Y48694500D01*
X-15515544Y48699976D01*
X-15507034Y48712722D01*
X-15483507Y48739937D01*
X-15447968Y48778572D01*
X-15403423Y48825577D01*
X-15352877Y48877905D01*
X-15299336Y48932505D01*
X-15245805Y48986330D01*
X-15195289Y49036330D01*
X-15150794Y49079457D01*
X-15115325Y49112661D01*
X-15091887Y49132894D01*
X-15084046Y49137722D01*
X-15071280Y49130933D01*
X-15040744Y49111858D01*
X-14995410Y49082439D01*
X-14938244Y49044619D01*
X-14872216Y49000339D01*
X-14822410Y48966605D01*
X-14570764Y48795488D01*
X-14361001Y48881959D01*
X-14151237Y48968430D01*
X-14094389Y49269982D01*
X-14037540Y49571534D01*
X-13409885Y49571534D01*
X-13353036Y49269982D01*
G37*
D16*
X26595000Y-45140000D02*
X26595000Y-42860000D01*
X27405000Y-45140000D02*
X27405000Y-47050000D01*
X27405000Y-40950000D02*
X27405000Y-42860000D01*
X-34785000Y40145000D02*
X-32505000Y40145000D01*
X-34785000Y39335000D02*
X-36695000Y39335000D01*
X-30595000Y39335000D02*
X-32505000Y39335000D01*
X19595000Y-45140000D02*
X19595000Y-42860000D01*
X20405000Y-45140000D02*
X20405000Y-47050000D01*
X20405000Y-40950000D02*
X20405000Y-42860000D01*
D13*
X-28041800Y-44328200D02*
X-28041800Y-35885240D01*
X-28041800Y-33314760D02*
X-28041800Y-24871800D01*
X-28041800Y-24871800D02*
X-47498200Y-24871800D01*
X-47498200Y-44328200D02*
X-28041800Y-44328200D01*
X-47498200Y-35885240D02*
X-47498200Y-44328200D01*
X-47498200Y-24871800D02*
X-47498200Y-33314760D01*
X-25920900Y-34600000D02*
G75*
G03*
X-25920900Y-34600000I-76200J0D01*
G01*
D16*
X-46085000Y40197800D02*
X-43805000Y40197800D01*
X-46085000Y39387800D02*
X-47995000Y39387800D01*
X-41895000Y39387800D02*
X-43805000Y39387800D01*
D12*
X39090000Y38230000D02*
X39090000Y31730000D01*
X39090000Y31730000D02*
X47840000Y31730000D01*
X47840000Y38230000D02*
X39090000Y38230000D01*
X41235000Y24070000D02*
X41235000Y20960000D01*
X41235000Y24070000D02*
X43895000Y24070000D01*
X41235000Y19440000D02*
X41235000Y15880000D01*
X41235000Y14360000D02*
X41235000Y13790000D01*
X41235000Y13790000D02*
X43895000Y13790000D01*
X43895000Y24070000D02*
X43895000Y23500000D01*
X43895000Y23500000D02*
X45415000Y23500000D01*
X43895000Y21980000D02*
X43895000Y18420000D01*
X43895000Y16900000D02*
X43895000Y13790000D01*
D16*
X-46085000Y46847800D02*
X-43805000Y46847800D01*
X-46085000Y46037800D02*
X-47995000Y46037800D01*
X-41895000Y46037800D02*
X-43805000Y46037800D01*
X19595000Y42860000D02*
X19595000Y45140000D01*
X20405000Y42860000D02*
X20405000Y40950000D01*
X20405000Y47050000D02*
X20405000Y45140000D01*
D12*
X39080000Y-5770000D02*
X39080000Y-12270000D01*
X39080000Y-12270000D02*
X47830000Y-12270000D01*
X47830000Y-5770000D02*
X39080000Y-5770000D01*
X42825000Y-49200000D02*
X42825000Y-47390000D01*
X42825000Y-47390000D02*
X47950000Y-47390000D01*
X42825000Y-40610000D02*
X43925000Y-40610000D01*
X42825000Y-38800000D02*
X42825000Y-40610000D01*
X41325000Y-49200000D02*
X42825000Y-49200000D01*
X41325000Y-38800000D02*
X42825000Y-38800000D01*
X42825000Y-5200000D02*
X42825000Y-3390000D01*
X42825000Y-3390000D02*
X47950000Y-3390000D01*
X42825000Y3390000D02*
X43925000Y3390000D01*
X42825000Y5200000D02*
X42825000Y3390000D01*
X41325000Y-5200000D02*
X42825000Y-5200000D01*
X41325000Y5200000D02*
X42825000Y5200000D01*
M02*
