M48
INCH,TZ
T1C0.0157
%
G90
G05
T1
X-19283Y19469
X-19142Y-5244
X-19142Y-13071
X-19138Y18685
X-19138Y17685
X-19138Y16685
X-19138Y15685
X-19138Y14685
X-19138Y13685
X-19138Y12685
X-19138Y11685
X-19138Y10685
X-19138Y8685
X-19138Y7685
X-19138Y6685
X-19138Y5685
X-19138Y4685
X-19138Y3685
X-19138Y2685
X-19138Y1429
X-19138Y685
X-19138Y-315
X-19138Y-1315
X-19138Y-2315
X-19138Y-3315
X-19138Y-4315
X-19138Y-6315
X-19138Y-7315
X-19138Y-8315
X-19138Y-9315
X-19138Y-10315
X-19138Y-11315
X-19138Y-12315
X-19138Y-14315
X-19138Y-15315
X-19138Y-16315
X-19138Y-17315
X-19138Y-18315
X-19138Y-19315
X-18280Y17689
X-17969Y19449
X-17807Y1429
X-17783Y-5236
X-17760Y16685
X-17760Y13685
X-17760Y12685
X-17760Y11685
X-17760Y10685
X-17760Y8685
X-17760Y7685
X-17760Y6685
X-17760Y5685
X-17760Y4685
X-17760Y3685
X-17760Y2685
X-17760Y685
X-17760Y-315
X-17760Y-1315
X-17760Y-2315
X-17760Y-3315
X-17760Y-4315
X-17760Y-6315
X-17760Y-7315
X-17760Y-8315
X-17760Y-9315
X-17760Y-10315
X-17760Y-11315
X-17760Y-12315
X-17760Y-14315
X-17760Y-15315
X-17760Y-16315
X-17760Y-17315
X-17760Y-18315
X-17760Y-19315
X-17740Y-13079
X-17693Y15902
X-17398Y18610
X-16626Y17630
X-16382Y14685
X-16382Y13685
X-16382Y12685
X-16382Y11685
X-16382Y10685
X-16382Y8685
X-16382Y7685
X-16382Y6685
X-16382Y5685
X-16382Y4685
X-16382Y3685
X-16382Y2685
X-16382Y685
X-16382Y-315
X-16382Y-1315
X-16382Y-2315
X-16382Y-3315
X-16382Y-4315
X-16382Y-6315
X-16382Y-7315
X-16382Y-8315
X-16382Y-9315
X-16382Y-10315
X-16382Y-11315
X-16382Y-12315
X-16382Y-14315
X-16382Y-15315
X-16382Y-16315
X-16382Y-17315
X-16382Y-18315
X-16382Y-19315
X-16378Y-5236
X-16358Y-13067
X-16197Y16697
X-16173Y15642
X-16157Y1677
X-16063Y18571
X-15882Y19449
X16846Y18303
X16929Y19291
X16929Y17323
X17346Y18791
X17358Y16843
X17362Y17843
X17717Y19291
X17717Y17291
X17717Y15291
X17717Y14291
X17717Y13291
X17717Y12291
X17717Y11291
X17717Y10291
X17717Y8291
X17717Y7480
X17717Y6291
X17717Y5291
X17717Y4291
X17717Y3291
X17717Y2291
X17717Y1575
X17717Y291
X17717Y-1709
X17717Y-2709
X17717Y-3709
X17717Y-4709
X17717Y-5709
X17717Y-6709
X17717Y-7709
X17717Y-8709
X17717Y-9709
X17717Y-10709
X17717Y-11709
X17717Y-12709
X17717Y-13709
X17717Y-14709
X17717Y-15709
X17717Y-16709
X17717Y-17701
X17717Y-19291
X17720Y-524
X18134Y18799
X18161Y17854
X18161Y16858
X18504Y19291
X18504Y17291
X18504Y15291
X18504Y12291
X18504Y11291
X18504Y10291
X18504Y9291
X18504Y8291
X18504Y7291
X18504Y6291
X18504Y5291
X18504Y4291
X18504Y3291
X18504Y2291
X18504Y1575
X18504Y291
X18504Y-1709
X18504Y-2709
X18504Y-4709
X18504Y-5709
X18504Y-6709
X18504Y-7709
X18504Y-8709
X18504Y-9709
X18504Y-10709
X18504Y-11709
X18504Y-12709
X18504Y-14709
X18504Y-15709
X18504Y-16709
X18504Y-17709
X18504Y-19291
X18508Y-520
X18933Y18803
X18941Y17858
X18949Y16843
X19291Y19291
X19291Y18291
X19291Y17291
X19291Y16291
X19291Y15291
X19291Y14291
X19291Y13291
X19291Y12291
X19291Y11291
X19291Y10291
X19291Y9291
X19291Y8291
X19291Y7291
X19291Y6291
X19291Y5291
X19291Y4291
X19291Y3291
X19291Y2291
X19291Y1291
X19291Y291
X19291Y-709
X19291Y-1709
X19291Y-2709
X19291Y-3709
X19291Y-4709
X19291Y-5709
X19291Y-6709
X19291Y-7709
X19291Y-8709
X19291Y-9709
X19291Y-10709
X19291Y-11709
X19291Y-12709
X19291Y-13709
X19291Y-14709
X19291Y-15709
X19291Y-16709
X19291Y-17709
X19291Y-19291
T0
M30
